G04 #@! TF.FileFunction,Legend,Top*
%FSLAX46Y46*%
G04 Gerber Fmt 4.6, Leading zero omitted, Abs format (unit mm)*
G04 Created by KiCad (PCBNEW 4.0.6) date 06/13/17 23:52:04*
%MOMM*%
%LPD*%
G01*
G04 APERTURE LIST*
%ADD10C,0.100000*%
%ADD11C,0.300000*%
%ADD12C,0.120000*%
%ADD13C,0.010000*%
%ADD14C,0.150000*%
G04 APERTURE END LIST*
D10*
D11*
X27118571Y-41794284D02*
X28618571Y-41437141D01*
X27547143Y-41151427D01*
X28618571Y-40865713D01*
X27118571Y-40508570D01*
X28547143Y-40008570D02*
X28618571Y-39794284D01*
X28618571Y-39437141D01*
X28547143Y-39294284D01*
X28475714Y-39222855D01*
X28332857Y-39151427D01*
X28190000Y-39151427D01*
X28047143Y-39222855D01*
X27975714Y-39294284D01*
X27904286Y-39437141D01*
X27832857Y-39722855D01*
X27761429Y-39865713D01*
X27690000Y-39937141D01*
X27547143Y-40008570D01*
X27404286Y-40008570D01*
X27261429Y-39937141D01*
X27190000Y-39865713D01*
X27118571Y-39722855D01*
X27118571Y-39365713D01*
X27190000Y-39151427D01*
X27261429Y-38579999D02*
X27190000Y-38508570D01*
X27118571Y-38365713D01*
X27118571Y-38008570D01*
X27190000Y-37865713D01*
X27261429Y-37794284D01*
X27404286Y-37722856D01*
X27547143Y-37722856D01*
X27761429Y-37794284D01*
X28618571Y-38651427D01*
X28618571Y-37722856D01*
X27761429Y-36865713D02*
X27690000Y-37008571D01*
X27618571Y-37079999D01*
X27475714Y-37151428D01*
X27404286Y-37151428D01*
X27261429Y-37079999D01*
X27190000Y-37008571D01*
X27118571Y-36865713D01*
X27118571Y-36579999D01*
X27190000Y-36437142D01*
X27261429Y-36365713D01*
X27404286Y-36294285D01*
X27475714Y-36294285D01*
X27618571Y-36365713D01*
X27690000Y-36437142D01*
X27761429Y-36579999D01*
X27761429Y-36865713D01*
X27832857Y-37008571D01*
X27904286Y-37079999D01*
X28047143Y-37151428D01*
X28332857Y-37151428D01*
X28475714Y-37079999D01*
X28547143Y-37008571D01*
X28618571Y-36865713D01*
X28618571Y-36579999D01*
X28547143Y-36437142D01*
X28475714Y-36365713D01*
X28332857Y-36294285D01*
X28047143Y-36294285D01*
X27904286Y-36365713D01*
X27832857Y-36437142D01*
X27761429Y-36579999D01*
X28618571Y-34865714D02*
X28618571Y-35722857D01*
X28618571Y-35294285D02*
X27118571Y-35294285D01*
X27332857Y-35437142D01*
X27475714Y-35580000D01*
X27547143Y-35722857D01*
X27261429Y-34294286D02*
X27190000Y-34222857D01*
X27118571Y-34080000D01*
X27118571Y-33722857D01*
X27190000Y-33580000D01*
X27261429Y-33508571D01*
X27404286Y-33437143D01*
X27547143Y-33437143D01*
X27761429Y-33508571D01*
X28618571Y-34365714D01*
X28618571Y-33437143D01*
X27832857Y-32294286D02*
X27904286Y-32080000D01*
X27975714Y-32008572D01*
X28118571Y-31937143D01*
X28332857Y-31937143D01*
X28475714Y-32008572D01*
X28547143Y-32080000D01*
X28618571Y-32222858D01*
X28618571Y-32794286D01*
X27118571Y-32794286D01*
X27118571Y-32294286D01*
X27190000Y-32151429D01*
X27261429Y-32080000D01*
X27404286Y-32008572D01*
X27547143Y-32008572D01*
X27690000Y-32080000D01*
X27761429Y-32151429D01*
X27832857Y-32294286D01*
X27832857Y-32794286D01*
X21562857Y-67988571D02*
X21562857Y-66488571D01*
X23134286Y-67988571D02*
X22634286Y-67274286D01*
X22277143Y-67988571D02*
X22277143Y-66488571D01*
X22848571Y-66488571D01*
X22991429Y-66560000D01*
X23062857Y-66631429D01*
X23134286Y-66774286D01*
X23134286Y-66988571D01*
X23062857Y-67131429D01*
X22991429Y-67202857D01*
X22848571Y-67274286D01*
X22277143Y-67274286D01*
X24062857Y-66488571D02*
X24348571Y-66488571D01*
X24491429Y-66560000D01*
X24634286Y-66702857D01*
X24705714Y-66988571D01*
X24705714Y-67488571D01*
X24634286Y-67774286D01*
X24491429Y-67917143D01*
X24348571Y-67988571D01*
X24062857Y-67988571D01*
X23920000Y-67917143D01*
X23777143Y-67774286D01*
X23705714Y-67488571D01*
X23705714Y-66988571D01*
X23777143Y-66702857D01*
X23920000Y-66560000D01*
X24062857Y-66488571D01*
X25348572Y-67988571D02*
X25348572Y-66488571D01*
X26205715Y-67988571D01*
X26205715Y-66488571D01*
X27777144Y-67845714D02*
X27705715Y-67917143D01*
X27491429Y-67988571D01*
X27348572Y-67988571D01*
X27134287Y-67917143D01*
X26991429Y-67774286D01*
X26920001Y-67631429D01*
X26848572Y-67345714D01*
X26848572Y-67131429D01*
X26920001Y-66845714D01*
X26991429Y-66702857D01*
X27134287Y-66560000D01*
X27348572Y-66488571D01*
X27491429Y-66488571D01*
X27705715Y-66560000D01*
X27777144Y-66631429D01*
X29134287Y-67988571D02*
X28420001Y-67988571D01*
X28420001Y-66488571D01*
X29562858Y-67560000D02*
X30277144Y-67560000D01*
X29420001Y-67988571D02*
X29920001Y-66488571D01*
X30420001Y-67988571D01*
X30920001Y-67988571D02*
X30920001Y-66488571D01*
X31777144Y-67988571D01*
X31777144Y-66488571D01*
X88885713Y-84498571D02*
X88885713Y-82998571D01*
X89742856Y-84498571D01*
X89742856Y-82998571D01*
X90742856Y-82998571D02*
X91028570Y-82998571D01*
X91171428Y-83070000D01*
X91314285Y-83212857D01*
X91385713Y-83498571D01*
X91385713Y-83998571D01*
X91314285Y-84284286D01*
X91171428Y-84427143D01*
X91028570Y-84498571D01*
X90742856Y-84498571D01*
X90599999Y-84427143D01*
X90457142Y-84284286D01*
X90385713Y-83998571D01*
X90385713Y-83498571D01*
X90457142Y-83212857D01*
X90599999Y-83070000D01*
X90742856Y-82998571D01*
X91814285Y-82998571D02*
X92671428Y-82998571D01*
X92242857Y-84498571D02*
X92242857Y-82998571D01*
X93171428Y-83712857D02*
X93671428Y-83712857D01*
X93885714Y-84498571D02*
X93171428Y-84498571D01*
X93171428Y-82998571D01*
X93885714Y-82998571D01*
X95457142Y-82998571D02*
X96314285Y-82998571D01*
X95885714Y-84498571D02*
X95885714Y-82998571D01*
X96814285Y-84498571D02*
X96814285Y-82998571D01*
X96814285Y-83712857D02*
X97671428Y-83712857D01*
X97671428Y-84498571D02*
X97671428Y-82998571D01*
X98385714Y-83712857D02*
X98885714Y-83712857D01*
X99100000Y-84498571D02*
X98385714Y-84498571D01*
X98385714Y-82998571D01*
X99100000Y-82998571D01*
X101171428Y-82998571D02*
X101457142Y-82998571D01*
X101600000Y-83070000D01*
X101742857Y-83212857D01*
X101814285Y-83498571D01*
X101814285Y-83998571D01*
X101742857Y-84284286D01*
X101600000Y-84427143D01*
X101457142Y-84498571D01*
X101171428Y-84498571D01*
X101028571Y-84427143D01*
X100885714Y-84284286D01*
X100814285Y-83998571D01*
X100814285Y-83498571D01*
X100885714Y-83212857D01*
X101028571Y-83070000D01*
X101171428Y-82998571D01*
X103314286Y-84498571D02*
X102814286Y-83784286D01*
X102457143Y-84498571D02*
X102457143Y-82998571D01*
X103028571Y-82998571D01*
X103171429Y-83070000D01*
X103242857Y-83141429D01*
X103314286Y-83284286D01*
X103314286Y-83498571D01*
X103242857Y-83641429D01*
X103171429Y-83712857D01*
X103028571Y-83784286D01*
X102457143Y-83784286D01*
X103957143Y-84498571D02*
X103957143Y-82998571D01*
X104671429Y-83712857D02*
X105171429Y-83712857D01*
X105385715Y-84498571D02*
X104671429Y-84498571D01*
X104671429Y-82998571D01*
X105385715Y-82998571D01*
X106028572Y-84498571D02*
X106028572Y-82998571D01*
X106885715Y-84498571D01*
X106885715Y-82998571D01*
X107385715Y-82998571D02*
X108242858Y-82998571D01*
X107814287Y-84498571D02*
X107814287Y-82998571D01*
X108671429Y-84070000D02*
X109385715Y-84070000D01*
X108528572Y-84498571D02*
X109028572Y-82998571D01*
X109528572Y-84498571D01*
X109814286Y-82998571D02*
X110671429Y-82998571D01*
X110242858Y-84498571D02*
X110242858Y-82998571D01*
X111171429Y-84498571D02*
X111171429Y-82998571D01*
X112171429Y-82998571D02*
X112457143Y-82998571D01*
X112600001Y-83070000D01*
X112742858Y-83212857D01*
X112814286Y-83498571D01*
X112814286Y-83998571D01*
X112742858Y-84284286D01*
X112600001Y-84427143D01*
X112457143Y-84498571D01*
X112171429Y-84498571D01*
X112028572Y-84427143D01*
X111885715Y-84284286D01*
X111814286Y-83998571D01*
X111814286Y-83498571D01*
X111885715Y-83212857D01*
X112028572Y-83070000D01*
X112171429Y-82998571D01*
X113457144Y-84498571D02*
X113457144Y-82998571D01*
X114314287Y-84498571D01*
X114314287Y-82998571D01*
X30372857Y-46691428D02*
X30444286Y-46477142D01*
X30515714Y-46405714D01*
X30658571Y-46334285D01*
X30872857Y-46334285D01*
X31015714Y-46405714D01*
X31087143Y-46477142D01*
X31158571Y-46620000D01*
X31158571Y-47191428D01*
X29658571Y-47191428D01*
X29658571Y-46691428D01*
X29730000Y-46548571D01*
X29801429Y-46477142D01*
X29944286Y-46405714D01*
X30087143Y-46405714D01*
X30230000Y-46477142D01*
X30301429Y-46548571D01*
X30372857Y-46691428D01*
X30372857Y-47191428D01*
X29658571Y-45905714D02*
X29658571Y-45048571D01*
X31158571Y-45477142D02*
X29658571Y-45477142D01*
X31301429Y-44905714D02*
X31301429Y-43762857D01*
X31158571Y-42691428D02*
X31158571Y-43405714D01*
X29658571Y-43405714D01*
X30372857Y-42191428D02*
X30372857Y-41691428D01*
X31158571Y-41477142D02*
X31158571Y-42191428D01*
X29658571Y-42191428D01*
X29658571Y-41477142D01*
X31158571Y-40834285D02*
X29658571Y-40834285D01*
X29658571Y-40477142D01*
X29730000Y-40262857D01*
X29872857Y-40119999D01*
X30015714Y-40048571D01*
X30301429Y-39977142D01*
X30515714Y-39977142D01*
X30801429Y-40048571D01*
X30944286Y-40119999D01*
X31087143Y-40262857D01*
X31158571Y-40477142D01*
X31158571Y-40834285D01*
X31301429Y-39691428D02*
X31301429Y-38548571D01*
X30372857Y-37691428D02*
X30444286Y-37477142D01*
X30515714Y-37405714D01*
X30658571Y-37334285D01*
X30872857Y-37334285D01*
X31015714Y-37405714D01*
X31087143Y-37477142D01*
X31158571Y-37620000D01*
X31158571Y-38191428D01*
X29658571Y-38191428D01*
X29658571Y-37691428D01*
X29730000Y-37548571D01*
X29801429Y-37477142D01*
X29944286Y-37405714D01*
X30087143Y-37405714D01*
X30230000Y-37477142D01*
X30301429Y-37548571D01*
X30372857Y-37691428D01*
X30372857Y-38191428D01*
X29658571Y-36405714D02*
X29658571Y-36120000D01*
X29730000Y-35977142D01*
X29872857Y-35834285D01*
X30158571Y-35762857D01*
X30658571Y-35762857D01*
X30944286Y-35834285D01*
X31087143Y-35977142D01*
X31158571Y-36120000D01*
X31158571Y-36405714D01*
X31087143Y-36548571D01*
X30944286Y-36691428D01*
X30658571Y-36762857D01*
X30158571Y-36762857D01*
X29872857Y-36691428D01*
X29730000Y-36548571D01*
X29658571Y-36405714D01*
X30730000Y-35191428D02*
X30730000Y-34477142D01*
X31158571Y-35334285D02*
X29658571Y-34834285D01*
X31158571Y-34334285D01*
X31158571Y-32977142D02*
X30444286Y-33477142D01*
X31158571Y-33834285D02*
X29658571Y-33834285D01*
X29658571Y-33262857D01*
X29730000Y-33119999D01*
X29801429Y-33048571D01*
X29944286Y-32977142D01*
X30158571Y-32977142D01*
X30301429Y-33048571D01*
X30372857Y-33119999D01*
X30444286Y-33262857D01*
X30444286Y-33834285D01*
X31158571Y-32334285D02*
X29658571Y-32334285D01*
X29658571Y-31977142D01*
X29730000Y-31762857D01*
X29872857Y-31619999D01*
X30015714Y-31548571D01*
X30301429Y-31477142D01*
X30515714Y-31477142D01*
X30801429Y-31548571D01*
X30944286Y-31619999D01*
X31087143Y-31762857D01*
X31158571Y-31977142D01*
X31158571Y-32334285D01*
D12*
X53030000Y-41970000D02*
X46030000Y-41970000D01*
X53030000Y-36770000D02*
X46030000Y-36770000D01*
X46030000Y-36770000D02*
X46030000Y-37770000D01*
X35870000Y-36770000D02*
X42870000Y-36770000D01*
X35870000Y-41970000D02*
X42870000Y-41970000D01*
X42870000Y-41970000D02*
X42870000Y-40970000D01*
X53030000Y-72450000D02*
X46030000Y-72450000D01*
X53030000Y-67250000D02*
X46030000Y-67250000D01*
X46030000Y-67250000D02*
X46030000Y-68250000D01*
X76510000Y-29150000D02*
X83510000Y-29150000D01*
X76510000Y-34350000D02*
X83510000Y-34350000D01*
X83510000Y-34350000D02*
X83510000Y-33350000D01*
X35870000Y-29150000D02*
X42870000Y-29150000D01*
X35870000Y-34350000D02*
X42870000Y-34350000D01*
X42870000Y-34350000D02*
X42870000Y-33350000D01*
X113990000Y-80070000D02*
X106990000Y-80070000D01*
X113990000Y-74870000D02*
X106990000Y-74870000D01*
X106990000Y-74870000D02*
X106990000Y-75870000D01*
X29140000Y-29270000D02*
X29140000Y-26670000D01*
X29140000Y-26670000D02*
X26520000Y-26670000D01*
X26520000Y-26670000D02*
X26520000Y-29270000D01*
X26520000Y-29270000D02*
X29140000Y-29270000D01*
X26520000Y-28320000D02*
X26520000Y-27560000D01*
X26520000Y-27560000D02*
X20520000Y-27560000D01*
X20520000Y-27560000D02*
X20520000Y-28320000D01*
X20520000Y-28320000D02*
X26520000Y-28320000D01*
X29570000Y-28320000D02*
X29140000Y-28320000D01*
X29570000Y-27560000D02*
X29140000Y-27560000D01*
X26520000Y-28200000D02*
X20520000Y-28200000D01*
X26520000Y-28080000D02*
X20520000Y-28080000D01*
X26520000Y-27960000D02*
X20520000Y-27960000D01*
X26520000Y-27840000D02*
X20520000Y-27840000D01*
X26520000Y-27720000D02*
X20520000Y-27720000D01*
X26520000Y-27600000D02*
X20520000Y-27600000D01*
X29140000Y-26670000D02*
X29140000Y-24130000D01*
X29140000Y-24130000D02*
X26520000Y-24130000D01*
X26520000Y-24130000D02*
X26520000Y-26670000D01*
X26520000Y-26670000D02*
X29140000Y-26670000D01*
X26520000Y-25780000D02*
X26520000Y-25020000D01*
X26520000Y-25020000D02*
X20520000Y-25020000D01*
X20520000Y-25020000D02*
X20520000Y-25780000D01*
X20520000Y-25780000D02*
X26520000Y-25780000D01*
X29570000Y-25780000D02*
X29140000Y-25780000D01*
X29570000Y-25020000D02*
X29140000Y-25020000D01*
X29140000Y-24130000D02*
X29140000Y-21530000D01*
X29140000Y-21530000D02*
X26520000Y-21530000D01*
X26520000Y-21530000D02*
X26520000Y-24130000D01*
X26520000Y-24130000D02*
X29140000Y-24130000D01*
X26520000Y-23240000D02*
X26520000Y-22480000D01*
X26520000Y-22480000D02*
X20520000Y-22480000D01*
X20520000Y-22480000D02*
X20520000Y-23240000D01*
X20520000Y-23240000D02*
X26520000Y-23240000D01*
X29570000Y-23240000D02*
X29140000Y-23240000D01*
X29570000Y-22480000D02*
X29140000Y-22480000D01*
X31750000Y-27940000D02*
X31750000Y-29210000D01*
X31750000Y-29210000D02*
X30480000Y-29210000D01*
X35870000Y-21530000D02*
X42870000Y-21530000D01*
X35870000Y-26730000D02*
X42870000Y-26730000D01*
X42870000Y-26730000D02*
X42870000Y-25730000D01*
X35870000Y-44390000D02*
X42870000Y-44390000D01*
X35870000Y-49590000D02*
X42870000Y-49590000D01*
X42870000Y-49590000D02*
X42870000Y-48590000D01*
X35870000Y-52010000D02*
X42870000Y-52010000D01*
X35870000Y-57210000D02*
X42870000Y-57210000D01*
X42870000Y-57210000D02*
X42870000Y-56210000D01*
X35870000Y-59630000D02*
X42870000Y-59630000D01*
X35870000Y-64830000D02*
X42870000Y-64830000D01*
X42870000Y-64830000D02*
X42870000Y-63830000D01*
X35870000Y-67250000D02*
X42870000Y-67250000D01*
X35870000Y-72450000D02*
X42870000Y-72450000D01*
X42870000Y-72450000D02*
X42870000Y-71450000D01*
X35870000Y-74870000D02*
X42870000Y-74870000D01*
X35870000Y-80070000D02*
X42870000Y-80070000D01*
X42870000Y-80070000D02*
X42870000Y-79070000D01*
X53030000Y-80070000D02*
X46030000Y-80070000D01*
X53030000Y-74870000D02*
X46030000Y-74870000D01*
X46030000Y-74870000D02*
X46030000Y-75870000D01*
X53030000Y-64830000D02*
X46030000Y-64830000D01*
X53030000Y-59630000D02*
X46030000Y-59630000D01*
X46030000Y-59630000D02*
X46030000Y-60630000D01*
X53030000Y-57210000D02*
X46030000Y-57210000D01*
X53030000Y-52010000D02*
X46030000Y-52010000D01*
X46030000Y-52010000D02*
X46030000Y-53010000D01*
X53030000Y-49590000D02*
X46030000Y-49590000D01*
X53030000Y-44390000D02*
X46030000Y-44390000D01*
X46030000Y-44390000D02*
X46030000Y-45390000D01*
X53030000Y-34350000D02*
X46030000Y-34350000D01*
X53030000Y-29150000D02*
X46030000Y-29150000D01*
X46030000Y-29150000D02*
X46030000Y-30150000D01*
X53030000Y-26730000D02*
X46030000Y-26730000D01*
X53030000Y-21530000D02*
X46030000Y-21530000D01*
X46030000Y-21530000D02*
X46030000Y-22530000D01*
X56190000Y-21530000D02*
X63190000Y-21530000D01*
X56190000Y-26730000D02*
X63190000Y-26730000D01*
X63190000Y-26730000D02*
X63190000Y-25730000D01*
X56190000Y-29150000D02*
X63190000Y-29150000D01*
X56190000Y-34350000D02*
X63190000Y-34350000D01*
X63190000Y-34350000D02*
X63190000Y-33350000D01*
X56190000Y-36770000D02*
X63190000Y-36770000D01*
X56190000Y-41970000D02*
X63190000Y-41970000D01*
X63190000Y-41970000D02*
X63190000Y-40970000D01*
X56190000Y-44390000D02*
X63190000Y-44390000D01*
X56190000Y-49590000D02*
X63190000Y-49590000D01*
X63190000Y-49590000D02*
X63190000Y-48590000D01*
X56190000Y-52010000D02*
X63190000Y-52010000D01*
X56190000Y-57210000D02*
X63190000Y-57210000D01*
X63190000Y-57210000D02*
X63190000Y-56210000D01*
X56190000Y-59630000D02*
X63190000Y-59630000D01*
X56190000Y-64830000D02*
X63190000Y-64830000D01*
X63190000Y-64830000D02*
X63190000Y-63830000D01*
X56190000Y-67250000D02*
X63190000Y-67250000D01*
X56190000Y-72450000D02*
X63190000Y-72450000D01*
X63190000Y-72450000D02*
X63190000Y-71450000D01*
X56190000Y-74870000D02*
X63190000Y-74870000D01*
X56190000Y-80070000D02*
X63190000Y-80070000D01*
X63190000Y-80070000D02*
X63190000Y-79070000D01*
X73350000Y-80070000D02*
X66350000Y-80070000D01*
X73350000Y-74870000D02*
X66350000Y-74870000D01*
X66350000Y-74870000D02*
X66350000Y-75870000D01*
X73350000Y-72450000D02*
X66350000Y-72450000D01*
X73350000Y-67250000D02*
X66350000Y-67250000D01*
X66350000Y-67250000D02*
X66350000Y-68250000D01*
X73350000Y-64830000D02*
X66350000Y-64830000D01*
X73350000Y-59630000D02*
X66350000Y-59630000D01*
X66350000Y-59630000D02*
X66350000Y-60630000D01*
X73350000Y-57210000D02*
X66350000Y-57210000D01*
X73350000Y-52010000D02*
X66350000Y-52010000D01*
X66350000Y-52010000D02*
X66350000Y-53010000D01*
X73350000Y-49590000D02*
X66350000Y-49590000D01*
X73350000Y-44390000D02*
X66350000Y-44390000D01*
X66350000Y-44390000D02*
X66350000Y-45390000D01*
X73350000Y-41970000D02*
X66350000Y-41970000D01*
X73350000Y-36770000D02*
X66350000Y-36770000D01*
X66350000Y-36770000D02*
X66350000Y-37770000D01*
X73350000Y-34350000D02*
X66350000Y-34350000D01*
X73350000Y-29150000D02*
X66350000Y-29150000D01*
X66350000Y-29150000D02*
X66350000Y-30150000D01*
X73350000Y-26730000D02*
X66350000Y-26730000D01*
X73350000Y-21530000D02*
X66350000Y-21530000D01*
X66350000Y-21530000D02*
X66350000Y-22530000D01*
X76510000Y-21530000D02*
X83510000Y-21530000D01*
X76510000Y-26730000D02*
X83510000Y-26730000D01*
X83510000Y-26730000D02*
X83510000Y-25730000D01*
X76510000Y-36770000D02*
X83510000Y-36770000D01*
X76510000Y-41970000D02*
X83510000Y-41970000D01*
X83510000Y-41970000D02*
X83510000Y-40970000D01*
X76510000Y-44390000D02*
X83510000Y-44390000D01*
X76510000Y-49590000D02*
X83510000Y-49590000D01*
X83510000Y-49590000D02*
X83510000Y-48590000D01*
X76510000Y-52010000D02*
X83510000Y-52010000D01*
X76510000Y-57210000D02*
X83510000Y-57210000D01*
X83510000Y-57210000D02*
X83510000Y-56210000D01*
X76510000Y-59630000D02*
X83510000Y-59630000D01*
X76510000Y-64830000D02*
X83510000Y-64830000D01*
X83510000Y-64830000D02*
X83510000Y-63830000D01*
X76510000Y-67250000D02*
X83510000Y-67250000D01*
X76510000Y-72450000D02*
X83510000Y-72450000D01*
X83510000Y-72450000D02*
X83510000Y-71450000D01*
X76510000Y-74870000D02*
X83510000Y-74870000D01*
X76510000Y-80070000D02*
X83510000Y-80070000D01*
X83510000Y-80070000D02*
X83510000Y-79070000D01*
X93670000Y-80070000D02*
X86670000Y-80070000D01*
X93670000Y-74870000D02*
X86670000Y-74870000D01*
X86670000Y-74870000D02*
X86670000Y-75870000D01*
X93670000Y-72450000D02*
X86670000Y-72450000D01*
X93670000Y-67250000D02*
X86670000Y-67250000D01*
X86670000Y-67250000D02*
X86670000Y-68250000D01*
X93670000Y-64830000D02*
X86670000Y-64830000D01*
X93670000Y-59630000D02*
X86670000Y-59630000D01*
X86670000Y-59630000D02*
X86670000Y-60630000D01*
X93670000Y-57210000D02*
X86670000Y-57210000D01*
X93670000Y-52010000D02*
X86670000Y-52010000D01*
X86670000Y-52010000D02*
X86670000Y-53010000D01*
X93670000Y-49590000D02*
X86670000Y-49590000D01*
X93670000Y-44390000D02*
X86670000Y-44390000D01*
X86670000Y-44390000D02*
X86670000Y-45390000D01*
X93670000Y-41970000D02*
X86670000Y-41970000D01*
X93670000Y-36770000D02*
X86670000Y-36770000D01*
X86670000Y-36770000D02*
X86670000Y-37770000D01*
X93670000Y-34350000D02*
X86670000Y-34350000D01*
X93670000Y-29150000D02*
X86670000Y-29150000D01*
X86670000Y-29150000D02*
X86670000Y-30150000D01*
X93670000Y-26730000D02*
X86670000Y-26730000D01*
X93670000Y-21530000D02*
X86670000Y-21530000D01*
X86670000Y-21530000D02*
X86670000Y-22530000D01*
X96830000Y-21530000D02*
X103830000Y-21530000D01*
X96830000Y-26730000D02*
X103830000Y-26730000D01*
X103830000Y-26730000D02*
X103830000Y-25730000D01*
X96830000Y-29150000D02*
X103830000Y-29150000D01*
X96830000Y-34350000D02*
X103830000Y-34350000D01*
X103830000Y-34350000D02*
X103830000Y-33350000D01*
X96830000Y-36770000D02*
X103830000Y-36770000D01*
X96830000Y-41970000D02*
X103830000Y-41970000D01*
X103830000Y-41970000D02*
X103830000Y-40970000D01*
X96830000Y-44390000D02*
X103830000Y-44390000D01*
X96830000Y-49590000D02*
X103830000Y-49590000D01*
X103830000Y-49590000D02*
X103830000Y-48590000D01*
X96830000Y-52010000D02*
X103830000Y-52010000D01*
X96830000Y-57210000D02*
X103830000Y-57210000D01*
X103830000Y-57210000D02*
X103830000Y-56210000D01*
X96830000Y-59630000D02*
X103830000Y-59630000D01*
X96830000Y-64830000D02*
X103830000Y-64830000D01*
X103830000Y-64830000D02*
X103830000Y-63830000D01*
X96830000Y-67250000D02*
X103830000Y-67250000D01*
X96830000Y-72450000D02*
X103830000Y-72450000D01*
X103830000Y-72450000D02*
X103830000Y-71450000D01*
X96830000Y-74870000D02*
X103830000Y-74870000D01*
X96830000Y-80070000D02*
X103830000Y-80070000D01*
X103830000Y-80070000D02*
X103830000Y-79070000D01*
X113990000Y-72450000D02*
X106990000Y-72450000D01*
X113990000Y-67250000D02*
X106990000Y-67250000D01*
X106990000Y-67250000D02*
X106990000Y-68250000D01*
X113990000Y-64830000D02*
X106990000Y-64830000D01*
X113990000Y-59630000D02*
X106990000Y-59630000D01*
X106990000Y-59630000D02*
X106990000Y-60630000D01*
X113990000Y-57210000D02*
X106990000Y-57210000D01*
X113990000Y-52010000D02*
X106990000Y-52010000D01*
X106990000Y-52010000D02*
X106990000Y-53010000D01*
X113990000Y-49590000D02*
X106990000Y-49590000D01*
X113990000Y-44390000D02*
X106990000Y-44390000D01*
X106990000Y-44390000D02*
X106990000Y-45390000D01*
X113990000Y-41970000D02*
X106990000Y-41970000D01*
X113990000Y-36770000D02*
X106990000Y-36770000D01*
X106990000Y-36770000D02*
X106990000Y-37770000D01*
X113990000Y-34350000D02*
X106990000Y-34350000D01*
X113990000Y-29150000D02*
X106990000Y-29150000D01*
X106990000Y-29150000D02*
X106990000Y-30150000D01*
X113990000Y-26730000D02*
X106990000Y-26730000D01*
X113990000Y-21530000D02*
X106990000Y-21530000D01*
X106990000Y-21530000D02*
X106990000Y-22530000D01*
X43600000Y-23630000D02*
X43600000Y-24630000D01*
X45300000Y-24630000D02*
X45300000Y-23630000D01*
X43600000Y-31250000D02*
X43600000Y-32250000D01*
X45300000Y-32250000D02*
X45300000Y-31250000D01*
X43600000Y-38870000D02*
X43600000Y-39870000D01*
X45300000Y-39870000D02*
X45300000Y-38870000D01*
X43600000Y-46490000D02*
X43600000Y-47490000D01*
X45300000Y-47490000D02*
X45300000Y-46490000D01*
X43600000Y-54110000D02*
X43600000Y-55110000D01*
X45300000Y-55110000D02*
X45300000Y-54110000D01*
X43600000Y-61730000D02*
X43600000Y-62730000D01*
X45300000Y-62730000D02*
X45300000Y-61730000D01*
X43600000Y-69350000D02*
X43600000Y-70350000D01*
X45300000Y-70350000D02*
X45300000Y-69350000D01*
X43600000Y-76970000D02*
X43600000Y-77970000D01*
X45300000Y-77970000D02*
X45300000Y-76970000D01*
X55460000Y-77970000D02*
X55460000Y-76970000D01*
X53760000Y-76970000D02*
X53760000Y-77970000D01*
X55460000Y-70350000D02*
X55460000Y-69350000D01*
X53760000Y-69350000D02*
X53760000Y-70350000D01*
X55460000Y-62730000D02*
X55460000Y-61730000D01*
X53760000Y-61730000D02*
X53760000Y-62730000D01*
X55460000Y-55110000D02*
X55460000Y-54110000D01*
X53760000Y-54110000D02*
X53760000Y-55110000D01*
X55460000Y-47490000D02*
X55460000Y-46490000D01*
X53760000Y-46490000D02*
X53760000Y-47490000D01*
X55460000Y-39870000D02*
X55460000Y-38870000D01*
X53760000Y-38870000D02*
X53760000Y-39870000D01*
X55460000Y-32250000D02*
X55460000Y-31250000D01*
X53760000Y-31250000D02*
X53760000Y-32250000D01*
X55460000Y-24630000D02*
X55460000Y-23630000D01*
X53760000Y-23630000D02*
X53760000Y-24630000D01*
X63920000Y-23630000D02*
X63920000Y-24630000D01*
X65620000Y-24630000D02*
X65620000Y-23630000D01*
X63920000Y-31250000D02*
X63920000Y-32250000D01*
X65620000Y-32250000D02*
X65620000Y-31250000D01*
X63920000Y-38870000D02*
X63920000Y-39870000D01*
X65620000Y-39870000D02*
X65620000Y-38870000D01*
X63920000Y-46490000D02*
X63920000Y-47490000D01*
X65620000Y-47490000D02*
X65620000Y-46490000D01*
X63920000Y-54110000D02*
X63920000Y-55110000D01*
X65620000Y-55110000D02*
X65620000Y-54110000D01*
X63920000Y-61730000D02*
X63920000Y-62730000D01*
X65620000Y-62730000D02*
X65620000Y-61730000D01*
X63920000Y-69350000D02*
X63920000Y-70350000D01*
X65620000Y-70350000D02*
X65620000Y-69350000D01*
X63920000Y-76970000D02*
X63920000Y-77970000D01*
X65620000Y-77970000D02*
X65620000Y-76970000D01*
X75780000Y-77970000D02*
X75780000Y-76970000D01*
X74080000Y-76970000D02*
X74080000Y-77970000D01*
X75780000Y-70350000D02*
X75780000Y-69350000D01*
X74080000Y-69350000D02*
X74080000Y-70350000D01*
X75780000Y-62730000D02*
X75780000Y-61730000D01*
X74080000Y-61730000D02*
X74080000Y-62730000D01*
X75780000Y-55110000D02*
X75780000Y-54110000D01*
X74080000Y-54110000D02*
X74080000Y-55110000D01*
X75780000Y-47490000D02*
X75780000Y-46490000D01*
X74080000Y-46490000D02*
X74080000Y-47490000D01*
X75780000Y-39870000D02*
X75780000Y-38870000D01*
X74080000Y-38870000D02*
X74080000Y-39870000D01*
X75780000Y-32250000D02*
X75780000Y-31250000D01*
X74080000Y-31250000D02*
X74080000Y-32250000D01*
X75780000Y-24630000D02*
X75780000Y-23630000D01*
X74080000Y-23630000D02*
X74080000Y-24630000D01*
X84240000Y-23630000D02*
X84240000Y-24630000D01*
X85940000Y-24630000D02*
X85940000Y-23630000D01*
X84240000Y-31250000D02*
X84240000Y-32250000D01*
X85940000Y-32250000D02*
X85940000Y-31250000D01*
X84240000Y-38870000D02*
X84240000Y-39870000D01*
X85940000Y-39870000D02*
X85940000Y-38870000D01*
X84240000Y-46490000D02*
X84240000Y-47490000D01*
X85940000Y-47490000D02*
X85940000Y-46490000D01*
X84240000Y-54110000D02*
X84240000Y-55110000D01*
X85940000Y-55110000D02*
X85940000Y-54110000D01*
X84240000Y-61730000D02*
X84240000Y-62730000D01*
X85940000Y-62730000D02*
X85940000Y-61730000D01*
X84240000Y-69350000D02*
X84240000Y-70350000D01*
X85940000Y-70350000D02*
X85940000Y-69350000D01*
X84240000Y-76970000D02*
X84240000Y-77970000D01*
X85940000Y-77970000D02*
X85940000Y-76970000D01*
X96100000Y-77970000D02*
X96100000Y-76970000D01*
X94400000Y-76970000D02*
X94400000Y-77970000D01*
X96100000Y-70350000D02*
X96100000Y-69350000D01*
X94400000Y-69350000D02*
X94400000Y-70350000D01*
X96100000Y-62730000D02*
X96100000Y-61730000D01*
X94400000Y-61730000D02*
X94400000Y-62730000D01*
X96100000Y-55110000D02*
X96100000Y-54110000D01*
X94400000Y-54110000D02*
X94400000Y-55110000D01*
X96100000Y-47490000D02*
X96100000Y-46490000D01*
X94400000Y-46490000D02*
X94400000Y-47490000D01*
X96100000Y-39870000D02*
X96100000Y-38870000D01*
X94400000Y-38870000D02*
X94400000Y-39870000D01*
X96100000Y-32250000D02*
X96100000Y-31250000D01*
X94400000Y-31250000D02*
X94400000Y-32250000D01*
X96100000Y-24630000D02*
X96100000Y-23630000D01*
X94400000Y-23630000D02*
X94400000Y-24630000D01*
X104560000Y-23630000D02*
X104560000Y-24630000D01*
X106260000Y-24630000D02*
X106260000Y-23630000D01*
X104560000Y-31250000D02*
X104560000Y-32250000D01*
X106260000Y-32250000D02*
X106260000Y-31250000D01*
X104560000Y-38870000D02*
X104560000Y-39870000D01*
X106260000Y-39870000D02*
X106260000Y-38870000D01*
X104560000Y-46490000D02*
X104560000Y-47490000D01*
X106260000Y-47490000D02*
X106260000Y-46490000D01*
X104560000Y-54110000D02*
X104560000Y-55110000D01*
X106260000Y-55110000D02*
X106260000Y-54110000D01*
X104560000Y-61730000D02*
X104560000Y-62730000D01*
X106260000Y-62730000D02*
X106260000Y-61730000D01*
X104560000Y-69350000D02*
X104560000Y-70350000D01*
X106260000Y-70350000D02*
X106260000Y-69350000D01*
X104560000Y-76970000D02*
X104560000Y-77970000D01*
X106260000Y-77970000D02*
X106260000Y-76970000D01*
X116420000Y-77970000D02*
X116420000Y-76970000D01*
X114720000Y-76970000D02*
X114720000Y-77970000D01*
X116420000Y-70350000D02*
X116420000Y-69350000D01*
X114720000Y-69350000D02*
X114720000Y-70350000D01*
X116420000Y-62730000D02*
X116420000Y-61730000D01*
X114720000Y-61730000D02*
X114720000Y-62730000D01*
X116420000Y-55110000D02*
X116420000Y-54110000D01*
X114720000Y-54110000D02*
X114720000Y-55110000D01*
X116420000Y-47490000D02*
X116420000Y-46490000D01*
X114720000Y-46490000D02*
X114720000Y-47490000D01*
X116420000Y-39870000D02*
X116420000Y-38870000D01*
X114720000Y-38870000D02*
X114720000Y-39870000D01*
X116420000Y-32250000D02*
X116420000Y-31250000D01*
X114720000Y-31250000D02*
X114720000Y-32250000D01*
X116420000Y-24630000D02*
X116420000Y-23630000D01*
X114720000Y-23630000D02*
X114720000Y-24630000D01*
D13*
G36*
X22606000Y-76708927D02*
X22706105Y-77340207D01*
X22981436Y-78032908D01*
X23394516Y-78709622D01*
X23812663Y-79201229D01*
X24266686Y-79612541D01*
X24699492Y-79885933D01*
X25231161Y-80094557D01*
X25330510Y-80125915D01*
X25936636Y-80295838D01*
X26412586Y-80371597D01*
X26862786Y-80356386D01*
X27391662Y-80253394D01*
X27619757Y-80195878D01*
X28368879Y-80000756D01*
X29047032Y-80467818D01*
X29405277Y-80722246D01*
X29671798Y-80925892D01*
X29782527Y-81027661D01*
X29710458Y-81127431D01*
X29464436Y-81287823D01*
X29207434Y-81420704D01*
X28575000Y-81720964D01*
X28575000Y-82380410D01*
X28510137Y-82944996D01*
X28318460Y-83300392D01*
X28004333Y-83439041D01*
X27962678Y-83440734D01*
X27656075Y-83473125D01*
X27495500Y-83505885D01*
X27209156Y-83510279D01*
X27077907Y-83461913D01*
X26943702Y-83286904D01*
X26781174Y-82958223D01*
X26691635Y-82730012D01*
X26537938Y-82353417D01*
X26386527Y-82158797D01*
X26178716Y-82081552D01*
X26093228Y-82071298D01*
X25726608Y-82019514D01*
X25278383Y-81932895D01*
X25157791Y-81905694D01*
X24840880Y-81841066D01*
X24621023Y-81853400D01*
X24412081Y-81974425D01*
X24127917Y-82235868D01*
X24047494Y-82314652D01*
X23496905Y-82855014D01*
X23019702Y-82583122D01*
X22611892Y-82318410D01*
X22412416Y-82067611D01*
X22392296Y-81754095D01*
X22522550Y-81301235D01*
X22528559Y-81284468D01*
X22759661Y-80641796D01*
X22296001Y-80128579D01*
X22001104Y-79772695D01*
X21764562Y-79435741D01*
X21685858Y-79293869D01*
X21545758Y-79074769D01*
X21345590Y-79028803D01*
X21151938Y-79064745D01*
X20730825Y-79139047D01*
X20389042Y-79170808D01*
X20157840Y-79153405D01*
X20002221Y-79040729D01*
X19863229Y-78773654D01*
X19780251Y-78560281D01*
X19658637Y-78175198D01*
X19603066Y-77873744D01*
X19609991Y-77771695D01*
X19772510Y-77607069D01*
X20134548Y-77382872D01*
X20654861Y-77120456D01*
X21292204Y-76841174D01*
X21772458Y-76652126D01*
X22606000Y-76338382D01*
X22606000Y-76708927D01*
X22606000Y-76708927D01*
G37*
X22606000Y-76708927D02*
X22706105Y-77340207D01*
X22981436Y-78032908D01*
X23394516Y-78709622D01*
X23812663Y-79201229D01*
X24266686Y-79612541D01*
X24699492Y-79885933D01*
X25231161Y-80094557D01*
X25330510Y-80125915D01*
X25936636Y-80295838D01*
X26412586Y-80371597D01*
X26862786Y-80356386D01*
X27391662Y-80253394D01*
X27619757Y-80195878D01*
X28368879Y-80000756D01*
X29047032Y-80467818D01*
X29405277Y-80722246D01*
X29671798Y-80925892D01*
X29782527Y-81027661D01*
X29710458Y-81127431D01*
X29464436Y-81287823D01*
X29207434Y-81420704D01*
X28575000Y-81720964D01*
X28575000Y-82380410D01*
X28510137Y-82944996D01*
X28318460Y-83300392D01*
X28004333Y-83439041D01*
X27962678Y-83440734D01*
X27656075Y-83473125D01*
X27495500Y-83505885D01*
X27209156Y-83510279D01*
X27077907Y-83461913D01*
X26943702Y-83286904D01*
X26781174Y-82958223D01*
X26691635Y-82730012D01*
X26537938Y-82353417D01*
X26386527Y-82158797D01*
X26178716Y-82081552D01*
X26093228Y-82071298D01*
X25726608Y-82019514D01*
X25278383Y-81932895D01*
X25157791Y-81905694D01*
X24840880Y-81841066D01*
X24621023Y-81853400D01*
X24412081Y-81974425D01*
X24127917Y-82235868D01*
X24047494Y-82314652D01*
X23496905Y-82855014D01*
X23019702Y-82583122D01*
X22611892Y-82318410D01*
X22412416Y-82067611D01*
X22392296Y-81754095D01*
X22522550Y-81301235D01*
X22528559Y-81284468D01*
X22759661Y-80641796D01*
X22296001Y-80128579D01*
X22001104Y-79772695D01*
X21764562Y-79435741D01*
X21685858Y-79293869D01*
X21545758Y-79074769D01*
X21345590Y-79028803D01*
X21151938Y-79064745D01*
X20730825Y-79139047D01*
X20389042Y-79170808D01*
X20157840Y-79153405D01*
X20002221Y-79040729D01*
X19863229Y-78773654D01*
X19780251Y-78560281D01*
X19658637Y-78175198D01*
X19603066Y-77873744D01*
X19609991Y-77771695D01*
X19772510Y-77607069D01*
X20134548Y-77382872D01*
X20654861Y-77120456D01*
X21292204Y-76841174D01*
X21772458Y-76652126D01*
X22606000Y-76338382D01*
X22606000Y-76708927D01*
G36*
X32214127Y-71559813D02*
X32523624Y-71983048D01*
X32615817Y-72327848D01*
X32486806Y-72653530D01*
X32132690Y-73019407D01*
X32117277Y-73032718D01*
X31819051Y-73298006D01*
X31684146Y-73473900D01*
X31683026Y-73636303D01*
X31786153Y-73861116D01*
X31791152Y-73870784D01*
X31949109Y-74242743D01*
X32099922Y-74700383D01*
X32136849Y-74837118D01*
X32236437Y-75183724D01*
X32361530Y-75366127D01*
X32593067Y-75454215D01*
X32908809Y-75503674D01*
X33434911Y-75618620D01*
X33744850Y-75811797D01*
X33873409Y-76122165D01*
X33858369Y-76567278D01*
X33790960Y-76934096D01*
X33712829Y-77188831D01*
X33682230Y-77239569D01*
X33510058Y-77311243D01*
X33173091Y-77390319D01*
X32907306Y-77435200D01*
X32229712Y-77533500D01*
X31659812Y-79057500D01*
X32085906Y-79556609D01*
X32332929Y-79896254D01*
X32486709Y-80204494D01*
X32512000Y-80325446D01*
X32427228Y-80553940D01*
X32218107Y-80851549D01*
X31952425Y-81142017D01*
X31697969Y-81349085D01*
X31553453Y-81403749D01*
X31388608Y-81338043D01*
X31085179Y-81171070D01*
X30791461Y-80990999D01*
X30310457Y-80669350D01*
X29807431Y-80311435D01*
X29584961Y-80144252D01*
X29267012Y-79898741D01*
X29039572Y-79723762D01*
X28967413Y-79668832D01*
X29020437Y-79567995D01*
X29212329Y-79349406D01*
X29397854Y-79162035D01*
X29992446Y-78424904D01*
X30368260Y-77574144D01*
X30531775Y-76593313D01*
X30540381Y-76263500D01*
X30472294Y-75373901D01*
X30253869Y-74629043D01*
X29854760Y-73949797D01*
X29482027Y-73503767D01*
X28969421Y-72947655D01*
X29105669Y-72029677D01*
X29179147Y-71561003D01*
X29240978Y-71300748D01*
X29314738Y-71205783D01*
X29424003Y-71232981D01*
X29511708Y-71286938D01*
X29926722Y-71554397D01*
X30204161Y-71698954D01*
X30424105Y-71728630D01*
X30666637Y-71651449D01*
X31011837Y-71475432D01*
X31072950Y-71443342D01*
X31789254Y-71068308D01*
X32214127Y-71559813D01*
X32214127Y-71559813D01*
G37*
X32214127Y-71559813D02*
X32523624Y-71983048D01*
X32615817Y-72327848D01*
X32486806Y-72653530D01*
X32132690Y-73019407D01*
X32117277Y-73032718D01*
X31819051Y-73298006D01*
X31684146Y-73473900D01*
X31683026Y-73636303D01*
X31786153Y-73861116D01*
X31791152Y-73870784D01*
X31949109Y-74242743D01*
X32099922Y-74700383D01*
X32136849Y-74837118D01*
X32236437Y-75183724D01*
X32361530Y-75366127D01*
X32593067Y-75454215D01*
X32908809Y-75503674D01*
X33434911Y-75618620D01*
X33744850Y-75811797D01*
X33873409Y-76122165D01*
X33858369Y-76567278D01*
X33790960Y-76934096D01*
X33712829Y-77188831D01*
X33682230Y-77239569D01*
X33510058Y-77311243D01*
X33173091Y-77390319D01*
X32907306Y-77435200D01*
X32229712Y-77533500D01*
X31659812Y-79057500D01*
X32085906Y-79556609D01*
X32332929Y-79896254D01*
X32486709Y-80204494D01*
X32512000Y-80325446D01*
X32427228Y-80553940D01*
X32218107Y-80851549D01*
X31952425Y-81142017D01*
X31697969Y-81349085D01*
X31553453Y-81403749D01*
X31388608Y-81338043D01*
X31085179Y-81171070D01*
X30791461Y-80990999D01*
X30310457Y-80669350D01*
X29807431Y-80311435D01*
X29584961Y-80144252D01*
X29267012Y-79898741D01*
X29039572Y-79723762D01*
X28967413Y-79668832D01*
X29020437Y-79567995D01*
X29212329Y-79349406D01*
X29397854Y-79162035D01*
X29992446Y-78424904D01*
X30368260Y-77574144D01*
X30531775Y-76593313D01*
X30540381Y-76263500D01*
X30472294Y-75373901D01*
X30253869Y-74629043D01*
X29854760Y-73949797D01*
X29482027Y-73503767D01*
X28969421Y-72947655D01*
X29105669Y-72029677D01*
X29179147Y-71561003D01*
X29240978Y-71300748D01*
X29314738Y-71205783D01*
X29424003Y-71232981D01*
X29511708Y-71286938D01*
X29926722Y-71554397D01*
X30204161Y-71698954D01*
X30424105Y-71728630D01*
X30666637Y-71651449D01*
X31011837Y-71475432D01*
X31072950Y-71443342D01*
X31789254Y-71068308D01*
X32214127Y-71559813D01*
G36*
X29032940Y-74529428D02*
X29204180Y-74806632D01*
X29334703Y-75079809D01*
X29560753Y-75901490D01*
X29558806Y-76731777D01*
X29343250Y-77523369D01*
X28928473Y-78228967D01*
X28328864Y-78801269D01*
X28170710Y-78906364D01*
X27495449Y-79201514D01*
X26736842Y-79336602D01*
X25993296Y-79300394D01*
X25612800Y-79198379D01*
X25297149Y-79074173D01*
X25102077Y-78984998D01*
X25079934Y-78970267D01*
X25174241Y-78913083D01*
X25465698Y-78790060D01*
X25911362Y-78618242D01*
X26468284Y-78414670D01*
X26581634Y-78374340D01*
X27194163Y-78144990D01*
X27740375Y-77917823D01*
X28163447Y-77717995D01*
X28406552Y-77570663D01*
X28416250Y-77562150D01*
X28642765Y-77228582D01*
X28675376Y-76802674D01*
X28514883Y-76251297D01*
X28451420Y-76104750D01*
X28266892Y-75783441D01*
X28040557Y-75605845D01*
X27724260Y-75563951D01*
X27269849Y-75649750D01*
X26733500Y-75819000D01*
X26217664Y-75985738D01*
X25894466Y-76055405D01*
X25722001Y-76028433D01*
X25658367Y-75905251D01*
X25654000Y-75830102D01*
X25661168Y-75743448D01*
X25703026Y-75665275D01*
X25810107Y-75581063D01*
X26012941Y-75476288D01*
X26342061Y-75336427D01*
X26827997Y-75146960D01*
X27501281Y-74893363D01*
X28067000Y-74682355D01*
X28468668Y-74541274D01*
X28781809Y-74446745D01*
X28908610Y-74422064D01*
X29032940Y-74529428D01*
X29032940Y-74529428D01*
G37*
X29032940Y-74529428D02*
X29204180Y-74806632D01*
X29334703Y-75079809D01*
X29560753Y-75901490D01*
X29558806Y-76731777D01*
X29343250Y-77523369D01*
X28928473Y-78228967D01*
X28328864Y-78801269D01*
X28170710Y-78906364D01*
X27495449Y-79201514D01*
X26736842Y-79336602D01*
X25993296Y-79300394D01*
X25612800Y-79198379D01*
X25297149Y-79074173D01*
X25102077Y-78984998D01*
X25079934Y-78970267D01*
X25174241Y-78913083D01*
X25465698Y-78790060D01*
X25911362Y-78618242D01*
X26468284Y-78414670D01*
X26581634Y-78374340D01*
X27194163Y-78144990D01*
X27740375Y-77917823D01*
X28163447Y-77717995D01*
X28406552Y-77570663D01*
X28416250Y-77562150D01*
X28642765Y-77228582D01*
X28675376Y-76802674D01*
X28514883Y-76251297D01*
X28451420Y-76104750D01*
X28266892Y-75783441D01*
X28040557Y-75605845D01*
X27724260Y-75563951D01*
X27269849Y-75649750D01*
X26733500Y-75819000D01*
X26217664Y-75985738D01*
X25894466Y-76055405D01*
X25722001Y-76028433D01*
X25658367Y-75905251D01*
X25654000Y-75830102D01*
X25661168Y-75743448D01*
X25703026Y-75665275D01*
X25810107Y-75581063D01*
X26012941Y-75476288D01*
X26342061Y-75336427D01*
X26827997Y-75146960D01*
X27501281Y-74893363D01*
X28067000Y-74682355D01*
X28468668Y-74541274D01*
X28781809Y-74446745D01*
X28908610Y-74422064D01*
X29032940Y-74529428D01*
G36*
X27243806Y-73334353D02*
X27703169Y-73460698D01*
X28130500Y-73642397D01*
X27686000Y-73825847D01*
X27366310Y-73951314D01*
X26889696Y-74130715D01*
X26338657Y-74333176D01*
X26098500Y-74419949D01*
X25560630Y-74632386D01*
X25084406Y-74854853D01*
X24742933Y-75051771D01*
X24650541Y-75124645D01*
X24470800Y-75320204D01*
X24408342Y-75502983D01*
X24447317Y-75771968D01*
X24509648Y-76004673D01*
X24728867Y-76505200D01*
X25046735Y-76879454D01*
X25411937Y-77073578D01*
X25542764Y-77089000D01*
X25789424Y-77045300D01*
X26170180Y-76933070D01*
X26446387Y-76835064D01*
X26984201Y-76652047D01*
X27329341Y-76592156D01*
X27511043Y-76654933D01*
X27559000Y-76817636D01*
X27510797Y-76934423D01*
X27344615Y-77063447D01*
X27028092Y-77221214D01*
X26528865Y-77424233D01*
X25939750Y-77643598D01*
X25340557Y-77859506D01*
X24828780Y-78039825D01*
X24450744Y-78168539D01*
X24252776Y-78229630D01*
X24236579Y-78232461D01*
X24138655Y-78127899D01*
X23978865Y-77860499D01*
X23866162Y-77640178D01*
X23615289Y-76848230D01*
X23591005Y-76032258D01*
X23776258Y-75240038D01*
X24153997Y-74519351D01*
X24707170Y-73917972D01*
X25336500Y-73520281D01*
X25907507Y-73350014D01*
X26582018Y-73287063D01*
X27243806Y-73334353D01*
X27243806Y-73334353D01*
G37*
X27243806Y-73334353D02*
X27703169Y-73460698D01*
X28130500Y-73642397D01*
X27686000Y-73825847D01*
X27366310Y-73951314D01*
X26889696Y-74130715D01*
X26338657Y-74333176D01*
X26098500Y-74419949D01*
X25560630Y-74632386D01*
X25084406Y-74854853D01*
X24742933Y-75051771D01*
X24650541Y-75124645D01*
X24470800Y-75320204D01*
X24408342Y-75502983D01*
X24447317Y-75771968D01*
X24509648Y-76004673D01*
X24728867Y-76505200D01*
X25046735Y-76879454D01*
X25411937Y-77073578D01*
X25542764Y-77089000D01*
X25789424Y-77045300D01*
X26170180Y-76933070D01*
X26446387Y-76835064D01*
X26984201Y-76652047D01*
X27329341Y-76592156D01*
X27511043Y-76654933D01*
X27559000Y-76817636D01*
X27510797Y-76934423D01*
X27344615Y-77063447D01*
X27028092Y-77221214D01*
X26528865Y-77424233D01*
X25939750Y-77643598D01*
X25340557Y-77859506D01*
X24828780Y-78039825D01*
X24450744Y-78168539D01*
X24252776Y-78229630D01*
X24236579Y-78232461D01*
X24138655Y-78127899D01*
X23978865Y-77860499D01*
X23866162Y-77640178D01*
X23615289Y-76848230D01*
X23591005Y-76032258D01*
X23776258Y-75240038D01*
X24153997Y-74519351D01*
X24707170Y-73917972D01*
X25336500Y-73520281D01*
X25907507Y-73350014D01*
X26582018Y-73287063D01*
X27243806Y-73334353D01*
G36*
X28298534Y-69159465D02*
X28576462Y-69327572D01*
X28709962Y-69496682D01*
X28745698Y-69760793D01*
X28737884Y-70044497D01*
X28711570Y-70401467D01*
X28662962Y-70866262D01*
X28600480Y-71376945D01*
X28532545Y-71871578D01*
X28467575Y-72288223D01*
X28413993Y-72564944D01*
X28384484Y-72644000D01*
X28258542Y-72600022D01*
X27985747Y-72490700D01*
X27896088Y-72453499D01*
X27364540Y-72318313D01*
X26693772Y-72270688D01*
X25982701Y-72309826D01*
X25330241Y-72434928D01*
X25200373Y-72475265D01*
X24595986Y-72783455D01*
X23984502Y-73271565D01*
X23428098Y-73875150D01*
X22988954Y-74529759D01*
X22787153Y-74976548D01*
X22631237Y-75389986D01*
X22475998Y-75644395D01*
X22246199Y-75818267D01*
X21866603Y-75990096D01*
X21782876Y-76024298D01*
X21376236Y-76182487D01*
X21060578Y-76292035D01*
X20918792Y-76327000D01*
X20862148Y-76211522D01*
X20859088Y-75900945D01*
X20882937Y-75653052D01*
X20967141Y-74979104D01*
X20332479Y-74681845D01*
X19906558Y-74459967D01*
X19682551Y-74255254D01*
X19622613Y-74001024D01*
X19688894Y-73630600D01*
X19703788Y-73574223D01*
X19842119Y-73152327D01*
X20016292Y-72911371D01*
X20287257Y-72817643D01*
X20715964Y-72837434D01*
X20970745Y-72873492D01*
X21780500Y-72998405D01*
X22392306Y-72344952D01*
X23004112Y-71691500D01*
X22786166Y-70965273D01*
X22664924Y-70486582D01*
X22673758Y-70169819D01*
X22845787Y-69942144D01*
X23214127Y-69730720D01*
X23382915Y-69652773D01*
X23907292Y-69416312D01*
X24177396Y-69730679D01*
X24464683Y-70076586D01*
X24701500Y-70374937D01*
X24846674Y-70547194D01*
X24993262Y-70634638D01*
X25213374Y-70649829D01*
X25579118Y-70605328D01*
X25813667Y-70568660D01*
X26671835Y-70432492D01*
X26909770Y-69791996D01*
X27164970Y-69284882D01*
X27474840Y-69020256D01*
X27859462Y-68988971D01*
X28298534Y-69159465D01*
X28298534Y-69159465D01*
G37*
X28298534Y-69159465D02*
X28576462Y-69327572D01*
X28709962Y-69496682D01*
X28745698Y-69760793D01*
X28737884Y-70044497D01*
X28711570Y-70401467D01*
X28662962Y-70866262D01*
X28600480Y-71376945D01*
X28532545Y-71871578D01*
X28467575Y-72288223D01*
X28413993Y-72564944D01*
X28384484Y-72644000D01*
X28258542Y-72600022D01*
X27985747Y-72490700D01*
X27896088Y-72453499D01*
X27364540Y-72318313D01*
X26693772Y-72270688D01*
X25982701Y-72309826D01*
X25330241Y-72434928D01*
X25200373Y-72475265D01*
X24595986Y-72783455D01*
X23984502Y-73271565D01*
X23428098Y-73875150D01*
X22988954Y-74529759D01*
X22787153Y-74976548D01*
X22631237Y-75389986D01*
X22475998Y-75644395D01*
X22246199Y-75818267D01*
X21866603Y-75990096D01*
X21782876Y-76024298D01*
X21376236Y-76182487D01*
X21060578Y-76292035D01*
X20918792Y-76327000D01*
X20862148Y-76211522D01*
X20859088Y-75900945D01*
X20882937Y-75653052D01*
X20967141Y-74979104D01*
X20332479Y-74681845D01*
X19906558Y-74459967D01*
X19682551Y-74255254D01*
X19622613Y-74001024D01*
X19688894Y-73630600D01*
X19703788Y-73574223D01*
X19842119Y-73152327D01*
X20016292Y-72911371D01*
X20287257Y-72817643D01*
X20715964Y-72837434D01*
X20970745Y-72873492D01*
X21780500Y-72998405D01*
X22392306Y-72344952D01*
X23004112Y-71691500D01*
X22786166Y-70965273D01*
X22664924Y-70486582D01*
X22673758Y-70169819D01*
X22845787Y-69942144D01*
X23214127Y-69730720D01*
X23382915Y-69652773D01*
X23907292Y-69416312D01*
X24177396Y-69730679D01*
X24464683Y-70076586D01*
X24701500Y-70374937D01*
X24846674Y-70547194D01*
X24993262Y-70634638D01*
X25213374Y-70649829D01*
X25579118Y-70605328D01*
X25813667Y-70568660D01*
X26671835Y-70432492D01*
X26909770Y-69791996D01*
X27164970Y-69284882D01*
X27474840Y-69020256D01*
X27859462Y-68988971D01*
X28298534Y-69159465D01*
G36*
X20328931Y-36274186D02*
X20773555Y-36190365D01*
X20901053Y-35881080D01*
X21028551Y-35571794D01*
X20776246Y-35200754D01*
X20705996Y-35096843D01*
X20643272Y-35002913D01*
X20590938Y-34923348D01*
X20551857Y-34862530D01*
X20528893Y-34824843D01*
X20523942Y-34814579D01*
X20536676Y-34796090D01*
X20571882Y-34756580D01*
X20625062Y-34700478D01*
X20691718Y-34632213D01*
X20767354Y-34556214D01*
X20847472Y-34476908D01*
X20927574Y-34398725D01*
X21003164Y-34326093D01*
X21069745Y-34263441D01*
X21122818Y-34215197D01*
X21157887Y-34185790D01*
X21169623Y-34178759D01*
X21191260Y-34188877D01*
X21238662Y-34217241D01*
X21307193Y-34260871D01*
X21392215Y-34316782D01*
X21489093Y-34381994D01*
X21544350Y-34419781D01*
X21645248Y-34488657D01*
X21736299Y-34549860D01*
X21812970Y-34600422D01*
X21870728Y-34637372D01*
X21905043Y-34657742D01*
X21912254Y-34660803D01*
X21932748Y-34653864D01*
X21980513Y-34634949D01*
X22048832Y-34606913D01*
X22130989Y-34572609D01*
X22220270Y-34534891D01*
X22309958Y-34496613D01*
X22393338Y-34460630D01*
X22463694Y-34429794D01*
X22514310Y-34406961D01*
X22538471Y-34394983D01*
X22539422Y-34394276D01*
X22544036Y-34375469D01*
X22554328Y-34325382D01*
X22569287Y-34249207D01*
X22587901Y-34152135D01*
X22609159Y-34039357D01*
X22621418Y-33973558D01*
X22644362Y-33853050D01*
X22666195Y-33744203D01*
X22685722Y-33652524D01*
X22701748Y-33583519D01*
X22713079Y-33542696D01*
X22716674Y-33534489D01*
X22741006Y-33526452D01*
X22795959Y-33519967D01*
X22875108Y-33515030D01*
X22972026Y-33511636D01*
X23080287Y-33509782D01*
X23193465Y-33509462D01*
X23305135Y-33510673D01*
X23408868Y-33513410D01*
X23498241Y-33517669D01*
X23566826Y-33523445D01*
X23608197Y-33530733D01*
X23616810Y-33535105D01*
X23627133Y-33561236D01*
X23641892Y-33616607D01*
X23659352Y-33693893D01*
X23677780Y-33785770D01*
X23683741Y-33817842D01*
X23712066Y-33972476D01*
X23734876Y-34094625D01*
X23753080Y-34188327D01*
X23767583Y-34257616D01*
X23779292Y-34306529D01*
X23789115Y-34339103D01*
X23797956Y-34359372D01*
X23806724Y-34371374D01*
X23808457Y-34373053D01*
X23836371Y-34389816D01*
X23890695Y-34415386D01*
X23964777Y-34447212D01*
X24051965Y-34482740D01*
X24145608Y-34519417D01*
X24239052Y-34554689D01*
X24325647Y-34586004D01*
X24398740Y-34610807D01*
X24451678Y-34626546D01*
X24477811Y-34630668D01*
X24478726Y-34630324D01*
X24500086Y-34616359D01*
X24547084Y-34584678D01*
X24614827Y-34538609D01*
X24698423Y-34481482D01*
X24792982Y-34416627D01*
X24819854Y-34398157D01*
X24917275Y-34332301D01*
X25006163Y-34274350D01*
X25081412Y-34227462D01*
X25137920Y-34194793D01*
X25170581Y-34179500D01*
X25174593Y-34178759D01*
X25195684Y-34191608D01*
X25237464Y-34227112D01*
X25295445Y-34280707D01*
X25365135Y-34347829D01*
X25442045Y-34423913D01*
X25521683Y-34504396D01*
X25599561Y-34584713D01*
X25671186Y-34660301D01*
X25732070Y-34726595D01*
X25777721Y-34779031D01*
X25803650Y-34813045D01*
X25807883Y-34822455D01*
X25797912Y-34844357D01*
X25771020Y-34889200D01*
X25731736Y-34949679D01*
X25700117Y-34996211D01*
X25642098Y-35080525D01*
X25573784Y-35180374D01*
X25505579Y-35280527D01*
X25469075Y-35334373D01*
X25345800Y-35516629D01*
X25428520Y-35669619D01*
X25464759Y-35739318D01*
X25492926Y-35798586D01*
X25508991Y-35838689D01*
X25511226Y-35848897D01*
X25494722Y-35861171D01*
X25448082Y-35885387D01*
X25375609Y-35919737D01*
X25281606Y-35962412D01*
X25170374Y-36011606D01*
X25046215Y-36065510D01*
X24913432Y-36122316D01*
X24776327Y-36180218D01*
X24639202Y-36237407D01*
X24506358Y-36292076D01*
X24382098Y-36342416D01*
X24270725Y-36386620D01*
X24176539Y-36422881D01*
X24103844Y-36449391D01*
X24056941Y-36464342D01*
X24040833Y-36466746D01*
X24020286Y-36447689D01*
X23986933Y-36405964D01*
X23947702Y-36350294D01*
X23944599Y-36345622D01*
X23829423Y-36201736D01*
X23695053Y-36085717D01*
X23545784Y-35998570D01*
X23385913Y-35941301D01*
X23219737Y-35914914D01*
X23051552Y-35920415D01*
X22885655Y-35958810D01*
X22726342Y-36031105D01*
X22691487Y-36052374D01*
X22550737Y-36163004D01*
X22437714Y-36293698D01*
X22353003Y-36439936D01*
X22297194Y-36597192D01*
X22270874Y-36760943D01*
X22274630Y-36926667D01*
X22309050Y-37089838D01*
X22374723Y-37245935D01*
X22472235Y-37390433D01*
X22511813Y-37435131D01*
X22635703Y-37548888D01*
X22766124Y-37631782D01*
X22912315Y-37688644D01*
X23057088Y-37720313D01*
X23219860Y-37728131D01*
X23383440Y-37702062D01*
X23542298Y-37644755D01*
X23690906Y-37558856D01*
X23823735Y-37447014D01*
X23935256Y-37311877D01*
X23947011Y-37294117D01*
X23985508Y-37237850D01*
X24018863Y-37195077D01*
X24040160Y-37174628D01*
X24040833Y-37174331D01*
X24063871Y-37178721D01*
X24116157Y-37196124D01*
X24193390Y-37224732D01*
X24291268Y-37262735D01*
X24405491Y-37308326D01*
X24531758Y-37359697D01*
X24665767Y-37415038D01*
X24803218Y-37472542D01*
X24939808Y-37530399D01*
X25071237Y-37586802D01*
X25193205Y-37639942D01*
X25301409Y-37688010D01*
X25391549Y-37729199D01*
X25459323Y-37761699D01*
X25500430Y-37783703D01*
X25511226Y-37792564D01*
X25502819Y-37819640D01*
X25480272Y-37870303D01*
X25447613Y-37935817D01*
X25428520Y-37971841D01*
X25345800Y-38124832D01*
X25469075Y-38307088D01*
X25532228Y-38400125D01*
X25601727Y-38501985D01*
X25667165Y-38597438D01*
X25700117Y-38645250D01*
X25745273Y-38712495D01*
X25781057Y-38769436D01*
X25802938Y-38808646D01*
X25807563Y-38821381D01*
X25795085Y-38839917D01*
X25760252Y-38880941D01*
X25706678Y-38940475D01*
X25637983Y-39014542D01*
X25557781Y-39099165D01*
X25506286Y-39152685D01*
X25414286Y-39246319D01*
X25331999Y-39327241D01*
X25262945Y-39392177D01*
X25210644Y-39437858D01*
X25178616Y-39461011D01*
X25172116Y-39463232D01*
X25147394Y-39452924D01*
X25097405Y-39424439D01*
X25027212Y-39380937D01*
X24941875Y-39325577D01*
X24846456Y-39261520D01*
X24819854Y-39243303D01*
X24723167Y-39176927D01*
X24636117Y-39117378D01*
X24563595Y-39067984D01*
X24510493Y-39032075D01*
X24481703Y-39012981D01*
X24478726Y-39011136D01*
X24455782Y-39013895D01*
X24405336Y-39028538D01*
X24334041Y-39052513D01*
X24248547Y-39083266D01*
X24155507Y-39118244D01*
X24061574Y-39154893D01*
X23973399Y-39190661D01*
X23897634Y-39222994D01*
X23840931Y-39249338D01*
X23809943Y-39267142D01*
X23808457Y-39268407D01*
X23799601Y-39279294D01*
X23790843Y-39297682D01*
X23781277Y-39327606D01*
X23769996Y-39373103D01*
X23756093Y-39438209D01*
X23738663Y-39526961D01*
X23716798Y-39643393D01*
X23689591Y-39791542D01*
X23683741Y-39823618D01*
X23665374Y-39918686D01*
X23647405Y-40001565D01*
X23631569Y-40064930D01*
X23619600Y-40101458D01*
X23616810Y-40106356D01*
X23592072Y-40114427D01*
X23536790Y-40120987D01*
X23457389Y-40126033D01*
X23360296Y-40129559D01*
X23251938Y-40131561D01*
X23138740Y-40132036D01*
X23027128Y-40130977D01*
X22923529Y-40128382D01*
X22834368Y-40124246D01*
X22766072Y-40118563D01*
X22725066Y-40111331D01*
X22716674Y-40106971D01*
X22708208Y-40082698D01*
X22694435Y-40027426D01*
X22676550Y-39946662D01*
X22655748Y-39845912D01*
X22633223Y-39730683D01*
X22621418Y-39667902D01*
X22599151Y-39548787D01*
X22578979Y-39442565D01*
X22561915Y-39354427D01*
X22548969Y-39289566D01*
X22541155Y-39253174D01*
X22539422Y-39247184D01*
X22519890Y-39237061D01*
X22472843Y-39215662D01*
X22405003Y-39185839D01*
X22323091Y-39150445D01*
X22233828Y-39112332D01*
X22143935Y-39074353D01*
X22060135Y-39039360D01*
X21989147Y-39010206D01*
X21937694Y-38989743D01*
X21912497Y-38980823D01*
X21911396Y-38980657D01*
X21891519Y-38990769D01*
X21845777Y-39019117D01*
X21778717Y-39062723D01*
X21694884Y-39118606D01*
X21598826Y-39183787D01*
X21543650Y-39221679D01*
X21442481Y-39290725D01*
X21350630Y-39352050D01*
X21272744Y-39402663D01*
X21213469Y-39439571D01*
X21177451Y-39459782D01*
X21169377Y-39462701D01*
X21150584Y-39450153D01*
X21110457Y-39415463D01*
X21053493Y-39363063D01*
X20984185Y-39297384D01*
X20907031Y-39222856D01*
X20826525Y-39143913D01*
X20747163Y-39064983D01*
X20673440Y-38990500D01*
X20609852Y-38924894D01*
X20560894Y-38872596D01*
X20531061Y-38838039D01*
X20523942Y-38826478D01*
X20533953Y-38807654D01*
X20562078Y-38762631D01*
X20605454Y-38695787D01*
X20661218Y-38611499D01*
X20726506Y-38514144D01*
X20776246Y-38440707D01*
X21028551Y-38069667D01*
X20773555Y-37451095D01*
X20328931Y-37367275D01*
X19884307Y-37283454D01*
X19884307Y-36358006D01*
X20328931Y-36274186D01*
X20328931Y-36274186D01*
G37*
X20328931Y-36274186D02*
X20773555Y-36190365D01*
X20901053Y-35881080D01*
X21028551Y-35571794D01*
X20776246Y-35200754D01*
X20705996Y-35096843D01*
X20643272Y-35002913D01*
X20590938Y-34923348D01*
X20551857Y-34862530D01*
X20528893Y-34824843D01*
X20523942Y-34814579D01*
X20536676Y-34796090D01*
X20571882Y-34756580D01*
X20625062Y-34700478D01*
X20691718Y-34632213D01*
X20767354Y-34556214D01*
X20847472Y-34476908D01*
X20927574Y-34398725D01*
X21003164Y-34326093D01*
X21069745Y-34263441D01*
X21122818Y-34215197D01*
X21157887Y-34185790D01*
X21169623Y-34178759D01*
X21191260Y-34188877D01*
X21238662Y-34217241D01*
X21307193Y-34260871D01*
X21392215Y-34316782D01*
X21489093Y-34381994D01*
X21544350Y-34419781D01*
X21645248Y-34488657D01*
X21736299Y-34549860D01*
X21812970Y-34600422D01*
X21870728Y-34637372D01*
X21905043Y-34657742D01*
X21912254Y-34660803D01*
X21932748Y-34653864D01*
X21980513Y-34634949D01*
X22048832Y-34606913D01*
X22130989Y-34572609D01*
X22220270Y-34534891D01*
X22309958Y-34496613D01*
X22393338Y-34460630D01*
X22463694Y-34429794D01*
X22514310Y-34406961D01*
X22538471Y-34394983D01*
X22539422Y-34394276D01*
X22544036Y-34375469D01*
X22554328Y-34325382D01*
X22569287Y-34249207D01*
X22587901Y-34152135D01*
X22609159Y-34039357D01*
X22621418Y-33973558D01*
X22644362Y-33853050D01*
X22666195Y-33744203D01*
X22685722Y-33652524D01*
X22701748Y-33583519D01*
X22713079Y-33542696D01*
X22716674Y-33534489D01*
X22741006Y-33526452D01*
X22795959Y-33519967D01*
X22875108Y-33515030D01*
X22972026Y-33511636D01*
X23080287Y-33509782D01*
X23193465Y-33509462D01*
X23305135Y-33510673D01*
X23408868Y-33513410D01*
X23498241Y-33517669D01*
X23566826Y-33523445D01*
X23608197Y-33530733D01*
X23616810Y-33535105D01*
X23627133Y-33561236D01*
X23641892Y-33616607D01*
X23659352Y-33693893D01*
X23677780Y-33785770D01*
X23683741Y-33817842D01*
X23712066Y-33972476D01*
X23734876Y-34094625D01*
X23753080Y-34188327D01*
X23767583Y-34257616D01*
X23779292Y-34306529D01*
X23789115Y-34339103D01*
X23797956Y-34359372D01*
X23806724Y-34371374D01*
X23808457Y-34373053D01*
X23836371Y-34389816D01*
X23890695Y-34415386D01*
X23964777Y-34447212D01*
X24051965Y-34482740D01*
X24145608Y-34519417D01*
X24239052Y-34554689D01*
X24325647Y-34586004D01*
X24398740Y-34610807D01*
X24451678Y-34626546D01*
X24477811Y-34630668D01*
X24478726Y-34630324D01*
X24500086Y-34616359D01*
X24547084Y-34584678D01*
X24614827Y-34538609D01*
X24698423Y-34481482D01*
X24792982Y-34416627D01*
X24819854Y-34398157D01*
X24917275Y-34332301D01*
X25006163Y-34274350D01*
X25081412Y-34227462D01*
X25137920Y-34194793D01*
X25170581Y-34179500D01*
X25174593Y-34178759D01*
X25195684Y-34191608D01*
X25237464Y-34227112D01*
X25295445Y-34280707D01*
X25365135Y-34347829D01*
X25442045Y-34423913D01*
X25521683Y-34504396D01*
X25599561Y-34584713D01*
X25671186Y-34660301D01*
X25732070Y-34726595D01*
X25777721Y-34779031D01*
X25803650Y-34813045D01*
X25807883Y-34822455D01*
X25797912Y-34844357D01*
X25771020Y-34889200D01*
X25731736Y-34949679D01*
X25700117Y-34996211D01*
X25642098Y-35080525D01*
X25573784Y-35180374D01*
X25505579Y-35280527D01*
X25469075Y-35334373D01*
X25345800Y-35516629D01*
X25428520Y-35669619D01*
X25464759Y-35739318D01*
X25492926Y-35798586D01*
X25508991Y-35838689D01*
X25511226Y-35848897D01*
X25494722Y-35861171D01*
X25448082Y-35885387D01*
X25375609Y-35919737D01*
X25281606Y-35962412D01*
X25170374Y-36011606D01*
X25046215Y-36065510D01*
X24913432Y-36122316D01*
X24776327Y-36180218D01*
X24639202Y-36237407D01*
X24506358Y-36292076D01*
X24382098Y-36342416D01*
X24270725Y-36386620D01*
X24176539Y-36422881D01*
X24103844Y-36449391D01*
X24056941Y-36464342D01*
X24040833Y-36466746D01*
X24020286Y-36447689D01*
X23986933Y-36405964D01*
X23947702Y-36350294D01*
X23944599Y-36345622D01*
X23829423Y-36201736D01*
X23695053Y-36085717D01*
X23545784Y-35998570D01*
X23385913Y-35941301D01*
X23219737Y-35914914D01*
X23051552Y-35920415D01*
X22885655Y-35958810D01*
X22726342Y-36031105D01*
X22691487Y-36052374D01*
X22550737Y-36163004D01*
X22437714Y-36293698D01*
X22353003Y-36439936D01*
X22297194Y-36597192D01*
X22270874Y-36760943D01*
X22274630Y-36926667D01*
X22309050Y-37089838D01*
X22374723Y-37245935D01*
X22472235Y-37390433D01*
X22511813Y-37435131D01*
X22635703Y-37548888D01*
X22766124Y-37631782D01*
X22912315Y-37688644D01*
X23057088Y-37720313D01*
X23219860Y-37728131D01*
X23383440Y-37702062D01*
X23542298Y-37644755D01*
X23690906Y-37558856D01*
X23823735Y-37447014D01*
X23935256Y-37311877D01*
X23947011Y-37294117D01*
X23985508Y-37237850D01*
X24018863Y-37195077D01*
X24040160Y-37174628D01*
X24040833Y-37174331D01*
X24063871Y-37178721D01*
X24116157Y-37196124D01*
X24193390Y-37224732D01*
X24291268Y-37262735D01*
X24405491Y-37308326D01*
X24531758Y-37359697D01*
X24665767Y-37415038D01*
X24803218Y-37472542D01*
X24939808Y-37530399D01*
X25071237Y-37586802D01*
X25193205Y-37639942D01*
X25301409Y-37688010D01*
X25391549Y-37729199D01*
X25459323Y-37761699D01*
X25500430Y-37783703D01*
X25511226Y-37792564D01*
X25502819Y-37819640D01*
X25480272Y-37870303D01*
X25447613Y-37935817D01*
X25428520Y-37971841D01*
X25345800Y-38124832D01*
X25469075Y-38307088D01*
X25532228Y-38400125D01*
X25601727Y-38501985D01*
X25667165Y-38597438D01*
X25700117Y-38645250D01*
X25745273Y-38712495D01*
X25781057Y-38769436D01*
X25802938Y-38808646D01*
X25807563Y-38821381D01*
X25795085Y-38839917D01*
X25760252Y-38880941D01*
X25706678Y-38940475D01*
X25637983Y-39014542D01*
X25557781Y-39099165D01*
X25506286Y-39152685D01*
X25414286Y-39246319D01*
X25331999Y-39327241D01*
X25262945Y-39392177D01*
X25210644Y-39437858D01*
X25178616Y-39461011D01*
X25172116Y-39463232D01*
X25147394Y-39452924D01*
X25097405Y-39424439D01*
X25027212Y-39380937D01*
X24941875Y-39325577D01*
X24846456Y-39261520D01*
X24819854Y-39243303D01*
X24723167Y-39176927D01*
X24636117Y-39117378D01*
X24563595Y-39067984D01*
X24510493Y-39032075D01*
X24481703Y-39012981D01*
X24478726Y-39011136D01*
X24455782Y-39013895D01*
X24405336Y-39028538D01*
X24334041Y-39052513D01*
X24248547Y-39083266D01*
X24155507Y-39118244D01*
X24061574Y-39154893D01*
X23973399Y-39190661D01*
X23897634Y-39222994D01*
X23840931Y-39249338D01*
X23809943Y-39267142D01*
X23808457Y-39268407D01*
X23799601Y-39279294D01*
X23790843Y-39297682D01*
X23781277Y-39327606D01*
X23769996Y-39373103D01*
X23756093Y-39438209D01*
X23738663Y-39526961D01*
X23716798Y-39643393D01*
X23689591Y-39791542D01*
X23683741Y-39823618D01*
X23665374Y-39918686D01*
X23647405Y-40001565D01*
X23631569Y-40064930D01*
X23619600Y-40101458D01*
X23616810Y-40106356D01*
X23592072Y-40114427D01*
X23536790Y-40120987D01*
X23457389Y-40126033D01*
X23360296Y-40129559D01*
X23251938Y-40131561D01*
X23138740Y-40132036D01*
X23027128Y-40130977D01*
X22923529Y-40128382D01*
X22834368Y-40124246D01*
X22766072Y-40118563D01*
X22725066Y-40111331D01*
X22716674Y-40106971D01*
X22708208Y-40082698D01*
X22694435Y-40027426D01*
X22676550Y-39946662D01*
X22655748Y-39845912D01*
X22633223Y-39730683D01*
X22621418Y-39667902D01*
X22599151Y-39548787D01*
X22578979Y-39442565D01*
X22561915Y-39354427D01*
X22548969Y-39289566D01*
X22541155Y-39253174D01*
X22539422Y-39247184D01*
X22519890Y-39237061D01*
X22472843Y-39215662D01*
X22405003Y-39185839D01*
X22323091Y-39150445D01*
X22233828Y-39112332D01*
X22143935Y-39074353D01*
X22060135Y-39039360D01*
X21989147Y-39010206D01*
X21937694Y-38989743D01*
X21912497Y-38980823D01*
X21911396Y-38980657D01*
X21891519Y-38990769D01*
X21845777Y-39019117D01*
X21778717Y-39062723D01*
X21694884Y-39118606D01*
X21598826Y-39183787D01*
X21543650Y-39221679D01*
X21442481Y-39290725D01*
X21350630Y-39352050D01*
X21272744Y-39402663D01*
X21213469Y-39439571D01*
X21177451Y-39459782D01*
X21169377Y-39462701D01*
X21150584Y-39450153D01*
X21110457Y-39415463D01*
X21053493Y-39363063D01*
X20984185Y-39297384D01*
X20907031Y-39222856D01*
X20826525Y-39143913D01*
X20747163Y-39064983D01*
X20673440Y-38990500D01*
X20609852Y-38924894D01*
X20560894Y-38872596D01*
X20531061Y-38838039D01*
X20523942Y-38826478D01*
X20533953Y-38807654D01*
X20562078Y-38762631D01*
X20605454Y-38695787D01*
X20661218Y-38611499D01*
X20726506Y-38514144D01*
X20776246Y-38440707D01*
X21028551Y-38069667D01*
X20773555Y-37451095D01*
X20328931Y-37367275D01*
X19884307Y-37283454D01*
X19884307Y-36358006D01*
X20328931Y-36274186D01*
D14*
X48291905Y-42322381D02*
X48291905Y-43131905D01*
X48339524Y-43227143D01*
X48387143Y-43274762D01*
X48482381Y-43322381D01*
X48672858Y-43322381D01*
X48768096Y-43274762D01*
X48815715Y-43227143D01*
X48863334Y-43131905D01*
X48863334Y-42322381D01*
X49863334Y-43322381D02*
X49291905Y-43322381D01*
X49577619Y-43322381D02*
X49577619Y-42322381D01*
X49482381Y-42465238D01*
X49387143Y-42560476D01*
X49291905Y-42608095D01*
X50720477Y-42655714D02*
X50720477Y-43322381D01*
X50482381Y-42274762D02*
X50244286Y-42989048D01*
X50863334Y-42989048D01*
X38608095Y-35322381D02*
X38608095Y-36131905D01*
X38655714Y-36227143D01*
X38703333Y-36274762D01*
X38798571Y-36322381D01*
X38989048Y-36322381D01*
X39084286Y-36274762D01*
X39131905Y-36227143D01*
X39179524Y-36131905D01*
X39179524Y-35322381D01*
X39560476Y-35322381D02*
X40179524Y-35322381D01*
X39846190Y-35703333D01*
X39989048Y-35703333D01*
X40084286Y-35750952D01*
X40131905Y-35798571D01*
X40179524Y-35893810D01*
X40179524Y-36131905D01*
X40131905Y-36227143D01*
X40084286Y-36274762D01*
X39989048Y-36322381D01*
X39703333Y-36322381D01*
X39608095Y-36274762D01*
X39560476Y-36227143D01*
X48291905Y-72802381D02*
X48291905Y-73611905D01*
X48339524Y-73707143D01*
X48387143Y-73754762D01*
X48482381Y-73802381D01*
X48672858Y-73802381D01*
X48768096Y-73754762D01*
X48815715Y-73707143D01*
X48863334Y-73611905D01*
X48863334Y-72802381D01*
X49863334Y-73802381D02*
X49291905Y-73802381D01*
X49577619Y-73802381D02*
X49577619Y-72802381D01*
X49482381Y-72945238D01*
X49387143Y-73040476D01*
X49291905Y-73088095D01*
X50482381Y-72802381D02*
X50577620Y-72802381D01*
X50672858Y-72850000D01*
X50720477Y-72897619D01*
X50768096Y-72992857D01*
X50815715Y-73183333D01*
X50815715Y-73421429D01*
X50768096Y-73611905D01*
X50720477Y-73707143D01*
X50672858Y-73754762D01*
X50577620Y-73802381D01*
X50482381Y-73802381D01*
X50387143Y-73754762D01*
X50339524Y-73707143D01*
X50291905Y-73611905D01*
X50244286Y-73421429D01*
X50244286Y-73183333D01*
X50291905Y-72992857D01*
X50339524Y-72897619D01*
X50387143Y-72850000D01*
X50482381Y-72802381D01*
X78771905Y-27702381D02*
X78771905Y-28511905D01*
X78819524Y-28607143D01*
X78867143Y-28654762D01*
X78962381Y-28702381D01*
X79152858Y-28702381D01*
X79248096Y-28654762D01*
X79295715Y-28607143D01*
X79343334Y-28511905D01*
X79343334Y-27702381D01*
X79724286Y-27702381D02*
X80343334Y-27702381D01*
X80010000Y-28083333D01*
X80152858Y-28083333D01*
X80248096Y-28130952D01*
X80295715Y-28178571D01*
X80343334Y-28273810D01*
X80343334Y-28511905D01*
X80295715Y-28607143D01*
X80248096Y-28654762D01*
X80152858Y-28702381D01*
X79867143Y-28702381D01*
X79771905Y-28654762D01*
X79724286Y-28607143D01*
X81200477Y-28035714D02*
X81200477Y-28702381D01*
X80962381Y-27654762D02*
X80724286Y-28369048D01*
X81343334Y-28369048D01*
X38608095Y-27702381D02*
X38608095Y-28511905D01*
X38655714Y-28607143D01*
X38703333Y-28654762D01*
X38798571Y-28702381D01*
X38989048Y-28702381D01*
X39084286Y-28654762D01*
X39131905Y-28607143D01*
X39179524Y-28511905D01*
X39179524Y-27702381D01*
X39608095Y-27797619D02*
X39655714Y-27750000D01*
X39750952Y-27702381D01*
X39989048Y-27702381D01*
X40084286Y-27750000D01*
X40131905Y-27797619D01*
X40179524Y-27892857D01*
X40179524Y-27988095D01*
X40131905Y-28130952D01*
X39560476Y-28702381D01*
X40179524Y-28702381D01*
X109251905Y-80422381D02*
X109251905Y-81231905D01*
X109299524Y-81327143D01*
X109347143Y-81374762D01*
X109442381Y-81422381D01*
X109632858Y-81422381D01*
X109728096Y-81374762D01*
X109775715Y-81327143D01*
X109823334Y-81231905D01*
X109823334Y-80422381D01*
X110775715Y-80422381D02*
X110299524Y-80422381D01*
X110251905Y-80898571D01*
X110299524Y-80850952D01*
X110394762Y-80803333D01*
X110632858Y-80803333D01*
X110728096Y-80850952D01*
X110775715Y-80898571D01*
X110823334Y-80993810D01*
X110823334Y-81231905D01*
X110775715Y-81327143D01*
X110728096Y-81374762D01*
X110632858Y-81422381D01*
X110394762Y-81422381D01*
X110299524Y-81374762D01*
X110251905Y-81327143D01*
X111156667Y-80422381D02*
X111823334Y-80422381D01*
X111394762Y-81422381D01*
X25831667Y-29662381D02*
X25831667Y-30376667D01*
X25784047Y-30519524D01*
X25688809Y-30614762D01*
X25545952Y-30662381D01*
X25450714Y-30662381D01*
X26831667Y-30662381D02*
X26260238Y-30662381D01*
X26545952Y-30662381D02*
X26545952Y-29662381D01*
X26450714Y-29805238D01*
X26355476Y-29900476D01*
X26260238Y-29948095D01*
X38608095Y-20082381D02*
X38608095Y-20891905D01*
X38655714Y-20987143D01*
X38703333Y-21034762D01*
X38798571Y-21082381D01*
X38989048Y-21082381D01*
X39084286Y-21034762D01*
X39131905Y-20987143D01*
X39179524Y-20891905D01*
X39179524Y-20082381D01*
X40179524Y-21082381D02*
X39608095Y-21082381D01*
X39893809Y-21082381D02*
X39893809Y-20082381D01*
X39798571Y-20225238D01*
X39703333Y-20320476D01*
X39608095Y-20368095D01*
X38608095Y-42942381D02*
X38608095Y-43751905D01*
X38655714Y-43847143D01*
X38703333Y-43894762D01*
X38798571Y-43942381D01*
X38989048Y-43942381D01*
X39084286Y-43894762D01*
X39131905Y-43847143D01*
X39179524Y-43751905D01*
X39179524Y-42942381D01*
X40084286Y-43275714D02*
X40084286Y-43942381D01*
X39846190Y-42894762D02*
X39608095Y-43609048D01*
X40227143Y-43609048D01*
X38608095Y-50562381D02*
X38608095Y-51371905D01*
X38655714Y-51467143D01*
X38703333Y-51514762D01*
X38798571Y-51562381D01*
X38989048Y-51562381D01*
X39084286Y-51514762D01*
X39131905Y-51467143D01*
X39179524Y-51371905D01*
X39179524Y-50562381D01*
X40131905Y-50562381D02*
X39655714Y-50562381D01*
X39608095Y-51038571D01*
X39655714Y-50990952D01*
X39750952Y-50943333D01*
X39989048Y-50943333D01*
X40084286Y-50990952D01*
X40131905Y-51038571D01*
X40179524Y-51133810D01*
X40179524Y-51371905D01*
X40131905Y-51467143D01*
X40084286Y-51514762D01*
X39989048Y-51562381D01*
X39750952Y-51562381D01*
X39655714Y-51514762D01*
X39608095Y-51467143D01*
X38608095Y-58182381D02*
X38608095Y-58991905D01*
X38655714Y-59087143D01*
X38703333Y-59134762D01*
X38798571Y-59182381D01*
X38989048Y-59182381D01*
X39084286Y-59134762D01*
X39131905Y-59087143D01*
X39179524Y-58991905D01*
X39179524Y-58182381D01*
X40084286Y-58182381D02*
X39893809Y-58182381D01*
X39798571Y-58230000D01*
X39750952Y-58277619D01*
X39655714Y-58420476D01*
X39608095Y-58610952D01*
X39608095Y-58991905D01*
X39655714Y-59087143D01*
X39703333Y-59134762D01*
X39798571Y-59182381D01*
X39989048Y-59182381D01*
X40084286Y-59134762D01*
X40131905Y-59087143D01*
X40179524Y-58991905D01*
X40179524Y-58753810D01*
X40131905Y-58658571D01*
X40084286Y-58610952D01*
X39989048Y-58563333D01*
X39798571Y-58563333D01*
X39703333Y-58610952D01*
X39655714Y-58658571D01*
X39608095Y-58753810D01*
X38608095Y-65802381D02*
X38608095Y-66611905D01*
X38655714Y-66707143D01*
X38703333Y-66754762D01*
X38798571Y-66802381D01*
X38989048Y-66802381D01*
X39084286Y-66754762D01*
X39131905Y-66707143D01*
X39179524Y-66611905D01*
X39179524Y-65802381D01*
X39560476Y-65802381D02*
X40227143Y-65802381D01*
X39798571Y-66802381D01*
X38608095Y-73422381D02*
X38608095Y-74231905D01*
X38655714Y-74327143D01*
X38703333Y-74374762D01*
X38798571Y-74422381D01*
X38989048Y-74422381D01*
X39084286Y-74374762D01*
X39131905Y-74327143D01*
X39179524Y-74231905D01*
X39179524Y-73422381D01*
X39798571Y-73850952D02*
X39703333Y-73803333D01*
X39655714Y-73755714D01*
X39608095Y-73660476D01*
X39608095Y-73612857D01*
X39655714Y-73517619D01*
X39703333Y-73470000D01*
X39798571Y-73422381D01*
X39989048Y-73422381D01*
X40084286Y-73470000D01*
X40131905Y-73517619D01*
X40179524Y-73612857D01*
X40179524Y-73660476D01*
X40131905Y-73755714D01*
X40084286Y-73803333D01*
X39989048Y-73850952D01*
X39798571Y-73850952D01*
X39703333Y-73898571D01*
X39655714Y-73946190D01*
X39608095Y-74041429D01*
X39608095Y-74231905D01*
X39655714Y-74327143D01*
X39703333Y-74374762D01*
X39798571Y-74422381D01*
X39989048Y-74422381D01*
X40084286Y-74374762D01*
X40131905Y-74327143D01*
X40179524Y-74231905D01*
X40179524Y-74041429D01*
X40131905Y-73946190D01*
X40084286Y-73898571D01*
X39989048Y-73850952D01*
X48768095Y-80422381D02*
X48768095Y-81231905D01*
X48815714Y-81327143D01*
X48863333Y-81374762D01*
X48958571Y-81422381D01*
X49149048Y-81422381D01*
X49244286Y-81374762D01*
X49291905Y-81327143D01*
X49339524Y-81231905D01*
X49339524Y-80422381D01*
X49863333Y-81422381D02*
X50053809Y-81422381D01*
X50149048Y-81374762D01*
X50196667Y-81327143D01*
X50291905Y-81184286D01*
X50339524Y-80993810D01*
X50339524Y-80612857D01*
X50291905Y-80517619D01*
X50244286Y-80470000D01*
X50149048Y-80422381D01*
X49958571Y-80422381D01*
X49863333Y-80470000D01*
X49815714Y-80517619D01*
X49768095Y-80612857D01*
X49768095Y-80850952D01*
X49815714Y-80946190D01*
X49863333Y-80993810D01*
X49958571Y-81041429D01*
X50149048Y-81041429D01*
X50244286Y-80993810D01*
X50291905Y-80946190D01*
X50339524Y-80850952D01*
X48291905Y-65182381D02*
X48291905Y-65991905D01*
X48339524Y-66087143D01*
X48387143Y-66134762D01*
X48482381Y-66182381D01*
X48672858Y-66182381D01*
X48768096Y-66134762D01*
X48815715Y-66087143D01*
X48863334Y-65991905D01*
X48863334Y-65182381D01*
X49863334Y-66182381D02*
X49291905Y-66182381D01*
X49577619Y-66182381D02*
X49577619Y-65182381D01*
X49482381Y-65325238D01*
X49387143Y-65420476D01*
X49291905Y-65468095D01*
X50815715Y-66182381D02*
X50244286Y-66182381D01*
X50530000Y-66182381D02*
X50530000Y-65182381D01*
X50434762Y-65325238D01*
X50339524Y-65420476D01*
X50244286Y-65468095D01*
X48291905Y-57562381D02*
X48291905Y-58371905D01*
X48339524Y-58467143D01*
X48387143Y-58514762D01*
X48482381Y-58562381D01*
X48672858Y-58562381D01*
X48768096Y-58514762D01*
X48815715Y-58467143D01*
X48863334Y-58371905D01*
X48863334Y-57562381D01*
X49863334Y-58562381D02*
X49291905Y-58562381D01*
X49577619Y-58562381D02*
X49577619Y-57562381D01*
X49482381Y-57705238D01*
X49387143Y-57800476D01*
X49291905Y-57848095D01*
X50244286Y-57657619D02*
X50291905Y-57610000D01*
X50387143Y-57562381D01*
X50625239Y-57562381D01*
X50720477Y-57610000D01*
X50768096Y-57657619D01*
X50815715Y-57752857D01*
X50815715Y-57848095D01*
X50768096Y-57990952D01*
X50196667Y-58562381D01*
X50815715Y-58562381D01*
X48291905Y-49942381D02*
X48291905Y-50751905D01*
X48339524Y-50847143D01*
X48387143Y-50894762D01*
X48482381Y-50942381D01*
X48672858Y-50942381D01*
X48768096Y-50894762D01*
X48815715Y-50847143D01*
X48863334Y-50751905D01*
X48863334Y-49942381D01*
X49863334Y-50942381D02*
X49291905Y-50942381D01*
X49577619Y-50942381D02*
X49577619Y-49942381D01*
X49482381Y-50085238D01*
X49387143Y-50180476D01*
X49291905Y-50228095D01*
X50196667Y-49942381D02*
X50815715Y-49942381D01*
X50482381Y-50323333D01*
X50625239Y-50323333D01*
X50720477Y-50370952D01*
X50768096Y-50418571D01*
X50815715Y-50513810D01*
X50815715Y-50751905D01*
X50768096Y-50847143D01*
X50720477Y-50894762D01*
X50625239Y-50942381D01*
X50339524Y-50942381D01*
X50244286Y-50894762D01*
X50196667Y-50847143D01*
X48291905Y-34702381D02*
X48291905Y-35511905D01*
X48339524Y-35607143D01*
X48387143Y-35654762D01*
X48482381Y-35702381D01*
X48672858Y-35702381D01*
X48768096Y-35654762D01*
X48815715Y-35607143D01*
X48863334Y-35511905D01*
X48863334Y-34702381D01*
X49863334Y-35702381D02*
X49291905Y-35702381D01*
X49577619Y-35702381D02*
X49577619Y-34702381D01*
X49482381Y-34845238D01*
X49387143Y-34940476D01*
X49291905Y-34988095D01*
X50768096Y-34702381D02*
X50291905Y-34702381D01*
X50244286Y-35178571D01*
X50291905Y-35130952D01*
X50387143Y-35083333D01*
X50625239Y-35083333D01*
X50720477Y-35130952D01*
X50768096Y-35178571D01*
X50815715Y-35273810D01*
X50815715Y-35511905D01*
X50768096Y-35607143D01*
X50720477Y-35654762D01*
X50625239Y-35702381D01*
X50387143Y-35702381D01*
X50291905Y-35654762D01*
X50244286Y-35607143D01*
X48291905Y-27082381D02*
X48291905Y-27891905D01*
X48339524Y-27987143D01*
X48387143Y-28034762D01*
X48482381Y-28082381D01*
X48672858Y-28082381D01*
X48768096Y-28034762D01*
X48815715Y-27987143D01*
X48863334Y-27891905D01*
X48863334Y-27082381D01*
X49863334Y-28082381D02*
X49291905Y-28082381D01*
X49577619Y-28082381D02*
X49577619Y-27082381D01*
X49482381Y-27225238D01*
X49387143Y-27320476D01*
X49291905Y-27368095D01*
X50720477Y-27082381D02*
X50530000Y-27082381D01*
X50434762Y-27130000D01*
X50387143Y-27177619D01*
X50291905Y-27320476D01*
X50244286Y-27510952D01*
X50244286Y-27891905D01*
X50291905Y-27987143D01*
X50339524Y-28034762D01*
X50434762Y-28082381D01*
X50625239Y-28082381D01*
X50720477Y-28034762D01*
X50768096Y-27987143D01*
X50815715Y-27891905D01*
X50815715Y-27653810D01*
X50768096Y-27558571D01*
X50720477Y-27510952D01*
X50625239Y-27463333D01*
X50434762Y-27463333D01*
X50339524Y-27510952D01*
X50291905Y-27558571D01*
X50244286Y-27653810D01*
X58451905Y-20082381D02*
X58451905Y-20891905D01*
X58499524Y-20987143D01*
X58547143Y-21034762D01*
X58642381Y-21082381D01*
X58832858Y-21082381D01*
X58928096Y-21034762D01*
X58975715Y-20987143D01*
X59023334Y-20891905D01*
X59023334Y-20082381D01*
X60023334Y-21082381D02*
X59451905Y-21082381D01*
X59737619Y-21082381D02*
X59737619Y-20082381D01*
X59642381Y-20225238D01*
X59547143Y-20320476D01*
X59451905Y-20368095D01*
X60356667Y-20082381D02*
X61023334Y-20082381D01*
X60594762Y-21082381D01*
X58451905Y-27702381D02*
X58451905Y-28511905D01*
X58499524Y-28607143D01*
X58547143Y-28654762D01*
X58642381Y-28702381D01*
X58832858Y-28702381D01*
X58928096Y-28654762D01*
X58975715Y-28607143D01*
X59023334Y-28511905D01*
X59023334Y-27702381D01*
X60023334Y-28702381D02*
X59451905Y-28702381D01*
X59737619Y-28702381D02*
X59737619Y-27702381D01*
X59642381Y-27845238D01*
X59547143Y-27940476D01*
X59451905Y-27988095D01*
X60594762Y-28130952D02*
X60499524Y-28083333D01*
X60451905Y-28035714D01*
X60404286Y-27940476D01*
X60404286Y-27892857D01*
X60451905Y-27797619D01*
X60499524Y-27750000D01*
X60594762Y-27702381D01*
X60785239Y-27702381D01*
X60880477Y-27750000D01*
X60928096Y-27797619D01*
X60975715Y-27892857D01*
X60975715Y-27940476D01*
X60928096Y-28035714D01*
X60880477Y-28083333D01*
X60785239Y-28130952D01*
X60594762Y-28130952D01*
X60499524Y-28178571D01*
X60451905Y-28226190D01*
X60404286Y-28321429D01*
X60404286Y-28511905D01*
X60451905Y-28607143D01*
X60499524Y-28654762D01*
X60594762Y-28702381D01*
X60785239Y-28702381D01*
X60880477Y-28654762D01*
X60928096Y-28607143D01*
X60975715Y-28511905D01*
X60975715Y-28321429D01*
X60928096Y-28226190D01*
X60880477Y-28178571D01*
X60785239Y-28130952D01*
X58451905Y-35322381D02*
X58451905Y-36131905D01*
X58499524Y-36227143D01*
X58547143Y-36274762D01*
X58642381Y-36322381D01*
X58832858Y-36322381D01*
X58928096Y-36274762D01*
X58975715Y-36227143D01*
X59023334Y-36131905D01*
X59023334Y-35322381D01*
X60023334Y-36322381D02*
X59451905Y-36322381D01*
X59737619Y-36322381D02*
X59737619Y-35322381D01*
X59642381Y-35465238D01*
X59547143Y-35560476D01*
X59451905Y-35608095D01*
X60499524Y-36322381D02*
X60690000Y-36322381D01*
X60785239Y-36274762D01*
X60832858Y-36227143D01*
X60928096Y-36084286D01*
X60975715Y-35893810D01*
X60975715Y-35512857D01*
X60928096Y-35417619D01*
X60880477Y-35370000D01*
X60785239Y-35322381D01*
X60594762Y-35322381D01*
X60499524Y-35370000D01*
X60451905Y-35417619D01*
X60404286Y-35512857D01*
X60404286Y-35750952D01*
X60451905Y-35846190D01*
X60499524Y-35893810D01*
X60594762Y-35941429D01*
X60785239Y-35941429D01*
X60880477Y-35893810D01*
X60928096Y-35846190D01*
X60975715Y-35750952D01*
X58451905Y-42942381D02*
X58451905Y-43751905D01*
X58499524Y-43847143D01*
X58547143Y-43894762D01*
X58642381Y-43942381D01*
X58832858Y-43942381D01*
X58928096Y-43894762D01*
X58975715Y-43847143D01*
X59023334Y-43751905D01*
X59023334Y-42942381D01*
X59451905Y-43037619D02*
X59499524Y-42990000D01*
X59594762Y-42942381D01*
X59832858Y-42942381D01*
X59928096Y-42990000D01*
X59975715Y-43037619D01*
X60023334Y-43132857D01*
X60023334Y-43228095D01*
X59975715Y-43370952D01*
X59404286Y-43942381D01*
X60023334Y-43942381D01*
X60642381Y-42942381D02*
X60737620Y-42942381D01*
X60832858Y-42990000D01*
X60880477Y-43037619D01*
X60928096Y-43132857D01*
X60975715Y-43323333D01*
X60975715Y-43561429D01*
X60928096Y-43751905D01*
X60880477Y-43847143D01*
X60832858Y-43894762D01*
X60737620Y-43942381D01*
X60642381Y-43942381D01*
X60547143Y-43894762D01*
X60499524Y-43847143D01*
X60451905Y-43751905D01*
X60404286Y-43561429D01*
X60404286Y-43323333D01*
X60451905Y-43132857D01*
X60499524Y-43037619D01*
X60547143Y-42990000D01*
X60642381Y-42942381D01*
X58451905Y-50562381D02*
X58451905Y-51371905D01*
X58499524Y-51467143D01*
X58547143Y-51514762D01*
X58642381Y-51562381D01*
X58832858Y-51562381D01*
X58928096Y-51514762D01*
X58975715Y-51467143D01*
X59023334Y-51371905D01*
X59023334Y-50562381D01*
X59451905Y-50657619D02*
X59499524Y-50610000D01*
X59594762Y-50562381D01*
X59832858Y-50562381D01*
X59928096Y-50610000D01*
X59975715Y-50657619D01*
X60023334Y-50752857D01*
X60023334Y-50848095D01*
X59975715Y-50990952D01*
X59404286Y-51562381D01*
X60023334Y-51562381D01*
X60975715Y-51562381D02*
X60404286Y-51562381D01*
X60690000Y-51562381D02*
X60690000Y-50562381D01*
X60594762Y-50705238D01*
X60499524Y-50800476D01*
X60404286Y-50848095D01*
X58451905Y-58182381D02*
X58451905Y-58991905D01*
X58499524Y-59087143D01*
X58547143Y-59134762D01*
X58642381Y-59182381D01*
X58832858Y-59182381D01*
X58928096Y-59134762D01*
X58975715Y-59087143D01*
X59023334Y-58991905D01*
X59023334Y-58182381D01*
X59451905Y-58277619D02*
X59499524Y-58230000D01*
X59594762Y-58182381D01*
X59832858Y-58182381D01*
X59928096Y-58230000D01*
X59975715Y-58277619D01*
X60023334Y-58372857D01*
X60023334Y-58468095D01*
X59975715Y-58610952D01*
X59404286Y-59182381D01*
X60023334Y-59182381D01*
X60404286Y-58277619D02*
X60451905Y-58230000D01*
X60547143Y-58182381D01*
X60785239Y-58182381D01*
X60880477Y-58230000D01*
X60928096Y-58277619D01*
X60975715Y-58372857D01*
X60975715Y-58468095D01*
X60928096Y-58610952D01*
X60356667Y-59182381D01*
X60975715Y-59182381D01*
X58451905Y-65802381D02*
X58451905Y-66611905D01*
X58499524Y-66707143D01*
X58547143Y-66754762D01*
X58642381Y-66802381D01*
X58832858Y-66802381D01*
X58928096Y-66754762D01*
X58975715Y-66707143D01*
X59023334Y-66611905D01*
X59023334Y-65802381D01*
X59451905Y-65897619D02*
X59499524Y-65850000D01*
X59594762Y-65802381D01*
X59832858Y-65802381D01*
X59928096Y-65850000D01*
X59975715Y-65897619D01*
X60023334Y-65992857D01*
X60023334Y-66088095D01*
X59975715Y-66230952D01*
X59404286Y-66802381D01*
X60023334Y-66802381D01*
X60356667Y-65802381D02*
X60975715Y-65802381D01*
X60642381Y-66183333D01*
X60785239Y-66183333D01*
X60880477Y-66230952D01*
X60928096Y-66278571D01*
X60975715Y-66373810D01*
X60975715Y-66611905D01*
X60928096Y-66707143D01*
X60880477Y-66754762D01*
X60785239Y-66802381D01*
X60499524Y-66802381D01*
X60404286Y-66754762D01*
X60356667Y-66707143D01*
X58451905Y-73422381D02*
X58451905Y-74231905D01*
X58499524Y-74327143D01*
X58547143Y-74374762D01*
X58642381Y-74422381D01*
X58832858Y-74422381D01*
X58928096Y-74374762D01*
X58975715Y-74327143D01*
X59023334Y-74231905D01*
X59023334Y-73422381D01*
X59451905Y-73517619D02*
X59499524Y-73470000D01*
X59594762Y-73422381D01*
X59832858Y-73422381D01*
X59928096Y-73470000D01*
X59975715Y-73517619D01*
X60023334Y-73612857D01*
X60023334Y-73708095D01*
X59975715Y-73850952D01*
X59404286Y-74422381D01*
X60023334Y-74422381D01*
X60880477Y-73755714D02*
X60880477Y-74422381D01*
X60642381Y-73374762D02*
X60404286Y-74089048D01*
X61023334Y-74089048D01*
X68611905Y-80422381D02*
X68611905Y-81231905D01*
X68659524Y-81327143D01*
X68707143Y-81374762D01*
X68802381Y-81422381D01*
X68992858Y-81422381D01*
X69088096Y-81374762D01*
X69135715Y-81327143D01*
X69183334Y-81231905D01*
X69183334Y-80422381D01*
X69611905Y-80517619D02*
X69659524Y-80470000D01*
X69754762Y-80422381D01*
X69992858Y-80422381D01*
X70088096Y-80470000D01*
X70135715Y-80517619D01*
X70183334Y-80612857D01*
X70183334Y-80708095D01*
X70135715Y-80850952D01*
X69564286Y-81422381D01*
X70183334Y-81422381D01*
X71088096Y-80422381D02*
X70611905Y-80422381D01*
X70564286Y-80898571D01*
X70611905Y-80850952D01*
X70707143Y-80803333D01*
X70945239Y-80803333D01*
X71040477Y-80850952D01*
X71088096Y-80898571D01*
X71135715Y-80993810D01*
X71135715Y-81231905D01*
X71088096Y-81327143D01*
X71040477Y-81374762D01*
X70945239Y-81422381D01*
X70707143Y-81422381D01*
X70611905Y-81374762D01*
X70564286Y-81327143D01*
X68611905Y-72802381D02*
X68611905Y-73611905D01*
X68659524Y-73707143D01*
X68707143Y-73754762D01*
X68802381Y-73802381D01*
X68992858Y-73802381D01*
X69088096Y-73754762D01*
X69135715Y-73707143D01*
X69183334Y-73611905D01*
X69183334Y-72802381D01*
X69611905Y-72897619D02*
X69659524Y-72850000D01*
X69754762Y-72802381D01*
X69992858Y-72802381D01*
X70088096Y-72850000D01*
X70135715Y-72897619D01*
X70183334Y-72992857D01*
X70183334Y-73088095D01*
X70135715Y-73230952D01*
X69564286Y-73802381D01*
X70183334Y-73802381D01*
X71040477Y-72802381D02*
X70850000Y-72802381D01*
X70754762Y-72850000D01*
X70707143Y-72897619D01*
X70611905Y-73040476D01*
X70564286Y-73230952D01*
X70564286Y-73611905D01*
X70611905Y-73707143D01*
X70659524Y-73754762D01*
X70754762Y-73802381D01*
X70945239Y-73802381D01*
X71040477Y-73754762D01*
X71088096Y-73707143D01*
X71135715Y-73611905D01*
X71135715Y-73373810D01*
X71088096Y-73278571D01*
X71040477Y-73230952D01*
X70945239Y-73183333D01*
X70754762Y-73183333D01*
X70659524Y-73230952D01*
X70611905Y-73278571D01*
X70564286Y-73373810D01*
X68611905Y-65182381D02*
X68611905Y-65991905D01*
X68659524Y-66087143D01*
X68707143Y-66134762D01*
X68802381Y-66182381D01*
X68992858Y-66182381D01*
X69088096Y-66134762D01*
X69135715Y-66087143D01*
X69183334Y-65991905D01*
X69183334Y-65182381D01*
X69611905Y-65277619D02*
X69659524Y-65230000D01*
X69754762Y-65182381D01*
X69992858Y-65182381D01*
X70088096Y-65230000D01*
X70135715Y-65277619D01*
X70183334Y-65372857D01*
X70183334Y-65468095D01*
X70135715Y-65610952D01*
X69564286Y-66182381D01*
X70183334Y-66182381D01*
X70516667Y-65182381D02*
X71183334Y-65182381D01*
X70754762Y-66182381D01*
X68611905Y-57562381D02*
X68611905Y-58371905D01*
X68659524Y-58467143D01*
X68707143Y-58514762D01*
X68802381Y-58562381D01*
X68992858Y-58562381D01*
X69088096Y-58514762D01*
X69135715Y-58467143D01*
X69183334Y-58371905D01*
X69183334Y-57562381D01*
X69611905Y-57657619D02*
X69659524Y-57610000D01*
X69754762Y-57562381D01*
X69992858Y-57562381D01*
X70088096Y-57610000D01*
X70135715Y-57657619D01*
X70183334Y-57752857D01*
X70183334Y-57848095D01*
X70135715Y-57990952D01*
X69564286Y-58562381D01*
X70183334Y-58562381D01*
X70754762Y-57990952D02*
X70659524Y-57943333D01*
X70611905Y-57895714D01*
X70564286Y-57800476D01*
X70564286Y-57752857D01*
X70611905Y-57657619D01*
X70659524Y-57610000D01*
X70754762Y-57562381D01*
X70945239Y-57562381D01*
X71040477Y-57610000D01*
X71088096Y-57657619D01*
X71135715Y-57752857D01*
X71135715Y-57800476D01*
X71088096Y-57895714D01*
X71040477Y-57943333D01*
X70945239Y-57990952D01*
X70754762Y-57990952D01*
X70659524Y-58038571D01*
X70611905Y-58086190D01*
X70564286Y-58181429D01*
X70564286Y-58371905D01*
X70611905Y-58467143D01*
X70659524Y-58514762D01*
X70754762Y-58562381D01*
X70945239Y-58562381D01*
X71040477Y-58514762D01*
X71088096Y-58467143D01*
X71135715Y-58371905D01*
X71135715Y-58181429D01*
X71088096Y-58086190D01*
X71040477Y-58038571D01*
X70945239Y-57990952D01*
X68611905Y-49942381D02*
X68611905Y-50751905D01*
X68659524Y-50847143D01*
X68707143Y-50894762D01*
X68802381Y-50942381D01*
X68992858Y-50942381D01*
X69088096Y-50894762D01*
X69135715Y-50847143D01*
X69183334Y-50751905D01*
X69183334Y-49942381D01*
X69611905Y-50037619D02*
X69659524Y-49990000D01*
X69754762Y-49942381D01*
X69992858Y-49942381D01*
X70088096Y-49990000D01*
X70135715Y-50037619D01*
X70183334Y-50132857D01*
X70183334Y-50228095D01*
X70135715Y-50370952D01*
X69564286Y-50942381D01*
X70183334Y-50942381D01*
X70659524Y-50942381D02*
X70850000Y-50942381D01*
X70945239Y-50894762D01*
X70992858Y-50847143D01*
X71088096Y-50704286D01*
X71135715Y-50513810D01*
X71135715Y-50132857D01*
X71088096Y-50037619D01*
X71040477Y-49990000D01*
X70945239Y-49942381D01*
X70754762Y-49942381D01*
X70659524Y-49990000D01*
X70611905Y-50037619D01*
X70564286Y-50132857D01*
X70564286Y-50370952D01*
X70611905Y-50466190D01*
X70659524Y-50513810D01*
X70754762Y-50561429D01*
X70945239Y-50561429D01*
X71040477Y-50513810D01*
X71088096Y-50466190D01*
X71135715Y-50370952D01*
X68611905Y-42322381D02*
X68611905Y-43131905D01*
X68659524Y-43227143D01*
X68707143Y-43274762D01*
X68802381Y-43322381D01*
X68992858Y-43322381D01*
X69088096Y-43274762D01*
X69135715Y-43227143D01*
X69183334Y-43131905D01*
X69183334Y-42322381D01*
X69564286Y-42322381D02*
X70183334Y-42322381D01*
X69850000Y-42703333D01*
X69992858Y-42703333D01*
X70088096Y-42750952D01*
X70135715Y-42798571D01*
X70183334Y-42893810D01*
X70183334Y-43131905D01*
X70135715Y-43227143D01*
X70088096Y-43274762D01*
X69992858Y-43322381D01*
X69707143Y-43322381D01*
X69611905Y-43274762D01*
X69564286Y-43227143D01*
X70802381Y-42322381D02*
X70897620Y-42322381D01*
X70992858Y-42370000D01*
X71040477Y-42417619D01*
X71088096Y-42512857D01*
X71135715Y-42703333D01*
X71135715Y-42941429D01*
X71088096Y-43131905D01*
X71040477Y-43227143D01*
X70992858Y-43274762D01*
X70897620Y-43322381D01*
X70802381Y-43322381D01*
X70707143Y-43274762D01*
X70659524Y-43227143D01*
X70611905Y-43131905D01*
X70564286Y-42941429D01*
X70564286Y-42703333D01*
X70611905Y-42512857D01*
X70659524Y-42417619D01*
X70707143Y-42370000D01*
X70802381Y-42322381D01*
X68611905Y-34702381D02*
X68611905Y-35511905D01*
X68659524Y-35607143D01*
X68707143Y-35654762D01*
X68802381Y-35702381D01*
X68992858Y-35702381D01*
X69088096Y-35654762D01*
X69135715Y-35607143D01*
X69183334Y-35511905D01*
X69183334Y-34702381D01*
X69564286Y-34702381D02*
X70183334Y-34702381D01*
X69850000Y-35083333D01*
X69992858Y-35083333D01*
X70088096Y-35130952D01*
X70135715Y-35178571D01*
X70183334Y-35273810D01*
X70183334Y-35511905D01*
X70135715Y-35607143D01*
X70088096Y-35654762D01*
X69992858Y-35702381D01*
X69707143Y-35702381D01*
X69611905Y-35654762D01*
X69564286Y-35607143D01*
X71135715Y-35702381D02*
X70564286Y-35702381D01*
X70850000Y-35702381D02*
X70850000Y-34702381D01*
X70754762Y-34845238D01*
X70659524Y-34940476D01*
X70564286Y-34988095D01*
X68611905Y-27082381D02*
X68611905Y-27891905D01*
X68659524Y-27987143D01*
X68707143Y-28034762D01*
X68802381Y-28082381D01*
X68992858Y-28082381D01*
X69088096Y-28034762D01*
X69135715Y-27987143D01*
X69183334Y-27891905D01*
X69183334Y-27082381D01*
X69564286Y-27082381D02*
X70183334Y-27082381D01*
X69850000Y-27463333D01*
X69992858Y-27463333D01*
X70088096Y-27510952D01*
X70135715Y-27558571D01*
X70183334Y-27653810D01*
X70183334Y-27891905D01*
X70135715Y-27987143D01*
X70088096Y-28034762D01*
X69992858Y-28082381D01*
X69707143Y-28082381D01*
X69611905Y-28034762D01*
X69564286Y-27987143D01*
X70564286Y-27177619D02*
X70611905Y-27130000D01*
X70707143Y-27082381D01*
X70945239Y-27082381D01*
X71040477Y-27130000D01*
X71088096Y-27177619D01*
X71135715Y-27272857D01*
X71135715Y-27368095D01*
X71088096Y-27510952D01*
X70516667Y-28082381D01*
X71135715Y-28082381D01*
X78771905Y-20082381D02*
X78771905Y-20891905D01*
X78819524Y-20987143D01*
X78867143Y-21034762D01*
X78962381Y-21082381D01*
X79152858Y-21082381D01*
X79248096Y-21034762D01*
X79295715Y-20987143D01*
X79343334Y-20891905D01*
X79343334Y-20082381D01*
X79724286Y-20082381D02*
X80343334Y-20082381D01*
X80010000Y-20463333D01*
X80152858Y-20463333D01*
X80248096Y-20510952D01*
X80295715Y-20558571D01*
X80343334Y-20653810D01*
X80343334Y-20891905D01*
X80295715Y-20987143D01*
X80248096Y-21034762D01*
X80152858Y-21082381D01*
X79867143Y-21082381D01*
X79771905Y-21034762D01*
X79724286Y-20987143D01*
X80676667Y-20082381D02*
X81295715Y-20082381D01*
X80962381Y-20463333D01*
X81105239Y-20463333D01*
X81200477Y-20510952D01*
X81248096Y-20558571D01*
X81295715Y-20653810D01*
X81295715Y-20891905D01*
X81248096Y-20987143D01*
X81200477Y-21034762D01*
X81105239Y-21082381D01*
X80819524Y-21082381D01*
X80724286Y-21034762D01*
X80676667Y-20987143D01*
X78771905Y-35322381D02*
X78771905Y-36131905D01*
X78819524Y-36227143D01*
X78867143Y-36274762D01*
X78962381Y-36322381D01*
X79152858Y-36322381D01*
X79248096Y-36274762D01*
X79295715Y-36227143D01*
X79343334Y-36131905D01*
X79343334Y-35322381D01*
X79724286Y-35322381D02*
X80343334Y-35322381D01*
X80010000Y-35703333D01*
X80152858Y-35703333D01*
X80248096Y-35750952D01*
X80295715Y-35798571D01*
X80343334Y-35893810D01*
X80343334Y-36131905D01*
X80295715Y-36227143D01*
X80248096Y-36274762D01*
X80152858Y-36322381D01*
X79867143Y-36322381D01*
X79771905Y-36274762D01*
X79724286Y-36227143D01*
X81248096Y-35322381D02*
X80771905Y-35322381D01*
X80724286Y-35798571D01*
X80771905Y-35750952D01*
X80867143Y-35703333D01*
X81105239Y-35703333D01*
X81200477Y-35750952D01*
X81248096Y-35798571D01*
X81295715Y-35893810D01*
X81295715Y-36131905D01*
X81248096Y-36227143D01*
X81200477Y-36274762D01*
X81105239Y-36322381D01*
X80867143Y-36322381D01*
X80771905Y-36274762D01*
X80724286Y-36227143D01*
X78771905Y-42942381D02*
X78771905Y-43751905D01*
X78819524Y-43847143D01*
X78867143Y-43894762D01*
X78962381Y-43942381D01*
X79152858Y-43942381D01*
X79248096Y-43894762D01*
X79295715Y-43847143D01*
X79343334Y-43751905D01*
X79343334Y-42942381D01*
X79724286Y-42942381D02*
X80343334Y-42942381D01*
X80010000Y-43323333D01*
X80152858Y-43323333D01*
X80248096Y-43370952D01*
X80295715Y-43418571D01*
X80343334Y-43513810D01*
X80343334Y-43751905D01*
X80295715Y-43847143D01*
X80248096Y-43894762D01*
X80152858Y-43942381D01*
X79867143Y-43942381D01*
X79771905Y-43894762D01*
X79724286Y-43847143D01*
X81200477Y-42942381D02*
X81010000Y-42942381D01*
X80914762Y-42990000D01*
X80867143Y-43037619D01*
X80771905Y-43180476D01*
X80724286Y-43370952D01*
X80724286Y-43751905D01*
X80771905Y-43847143D01*
X80819524Y-43894762D01*
X80914762Y-43942381D01*
X81105239Y-43942381D01*
X81200477Y-43894762D01*
X81248096Y-43847143D01*
X81295715Y-43751905D01*
X81295715Y-43513810D01*
X81248096Y-43418571D01*
X81200477Y-43370952D01*
X81105239Y-43323333D01*
X80914762Y-43323333D01*
X80819524Y-43370952D01*
X80771905Y-43418571D01*
X80724286Y-43513810D01*
X78771905Y-50562381D02*
X78771905Y-51371905D01*
X78819524Y-51467143D01*
X78867143Y-51514762D01*
X78962381Y-51562381D01*
X79152858Y-51562381D01*
X79248096Y-51514762D01*
X79295715Y-51467143D01*
X79343334Y-51371905D01*
X79343334Y-50562381D01*
X79724286Y-50562381D02*
X80343334Y-50562381D01*
X80010000Y-50943333D01*
X80152858Y-50943333D01*
X80248096Y-50990952D01*
X80295715Y-51038571D01*
X80343334Y-51133810D01*
X80343334Y-51371905D01*
X80295715Y-51467143D01*
X80248096Y-51514762D01*
X80152858Y-51562381D01*
X79867143Y-51562381D01*
X79771905Y-51514762D01*
X79724286Y-51467143D01*
X80676667Y-50562381D02*
X81343334Y-50562381D01*
X80914762Y-51562381D01*
X78771905Y-58182381D02*
X78771905Y-58991905D01*
X78819524Y-59087143D01*
X78867143Y-59134762D01*
X78962381Y-59182381D01*
X79152858Y-59182381D01*
X79248096Y-59134762D01*
X79295715Y-59087143D01*
X79343334Y-58991905D01*
X79343334Y-58182381D01*
X79724286Y-58182381D02*
X80343334Y-58182381D01*
X80010000Y-58563333D01*
X80152858Y-58563333D01*
X80248096Y-58610952D01*
X80295715Y-58658571D01*
X80343334Y-58753810D01*
X80343334Y-58991905D01*
X80295715Y-59087143D01*
X80248096Y-59134762D01*
X80152858Y-59182381D01*
X79867143Y-59182381D01*
X79771905Y-59134762D01*
X79724286Y-59087143D01*
X80914762Y-58610952D02*
X80819524Y-58563333D01*
X80771905Y-58515714D01*
X80724286Y-58420476D01*
X80724286Y-58372857D01*
X80771905Y-58277619D01*
X80819524Y-58230000D01*
X80914762Y-58182381D01*
X81105239Y-58182381D01*
X81200477Y-58230000D01*
X81248096Y-58277619D01*
X81295715Y-58372857D01*
X81295715Y-58420476D01*
X81248096Y-58515714D01*
X81200477Y-58563333D01*
X81105239Y-58610952D01*
X80914762Y-58610952D01*
X80819524Y-58658571D01*
X80771905Y-58706190D01*
X80724286Y-58801429D01*
X80724286Y-58991905D01*
X80771905Y-59087143D01*
X80819524Y-59134762D01*
X80914762Y-59182381D01*
X81105239Y-59182381D01*
X81200477Y-59134762D01*
X81248096Y-59087143D01*
X81295715Y-58991905D01*
X81295715Y-58801429D01*
X81248096Y-58706190D01*
X81200477Y-58658571D01*
X81105239Y-58610952D01*
X78771905Y-65802381D02*
X78771905Y-66611905D01*
X78819524Y-66707143D01*
X78867143Y-66754762D01*
X78962381Y-66802381D01*
X79152858Y-66802381D01*
X79248096Y-66754762D01*
X79295715Y-66707143D01*
X79343334Y-66611905D01*
X79343334Y-65802381D01*
X79724286Y-65802381D02*
X80343334Y-65802381D01*
X80010000Y-66183333D01*
X80152858Y-66183333D01*
X80248096Y-66230952D01*
X80295715Y-66278571D01*
X80343334Y-66373810D01*
X80343334Y-66611905D01*
X80295715Y-66707143D01*
X80248096Y-66754762D01*
X80152858Y-66802381D01*
X79867143Y-66802381D01*
X79771905Y-66754762D01*
X79724286Y-66707143D01*
X80819524Y-66802381D02*
X81010000Y-66802381D01*
X81105239Y-66754762D01*
X81152858Y-66707143D01*
X81248096Y-66564286D01*
X81295715Y-66373810D01*
X81295715Y-65992857D01*
X81248096Y-65897619D01*
X81200477Y-65850000D01*
X81105239Y-65802381D01*
X80914762Y-65802381D01*
X80819524Y-65850000D01*
X80771905Y-65897619D01*
X80724286Y-65992857D01*
X80724286Y-66230952D01*
X80771905Y-66326190D01*
X80819524Y-66373810D01*
X80914762Y-66421429D01*
X81105239Y-66421429D01*
X81200477Y-66373810D01*
X81248096Y-66326190D01*
X81295715Y-66230952D01*
X78771905Y-73422381D02*
X78771905Y-74231905D01*
X78819524Y-74327143D01*
X78867143Y-74374762D01*
X78962381Y-74422381D01*
X79152858Y-74422381D01*
X79248096Y-74374762D01*
X79295715Y-74327143D01*
X79343334Y-74231905D01*
X79343334Y-73422381D01*
X80248096Y-73755714D02*
X80248096Y-74422381D01*
X80010000Y-73374762D02*
X79771905Y-74089048D01*
X80390953Y-74089048D01*
X80962381Y-73422381D02*
X81057620Y-73422381D01*
X81152858Y-73470000D01*
X81200477Y-73517619D01*
X81248096Y-73612857D01*
X81295715Y-73803333D01*
X81295715Y-74041429D01*
X81248096Y-74231905D01*
X81200477Y-74327143D01*
X81152858Y-74374762D01*
X81057620Y-74422381D01*
X80962381Y-74422381D01*
X80867143Y-74374762D01*
X80819524Y-74327143D01*
X80771905Y-74231905D01*
X80724286Y-74041429D01*
X80724286Y-73803333D01*
X80771905Y-73612857D01*
X80819524Y-73517619D01*
X80867143Y-73470000D01*
X80962381Y-73422381D01*
X88931905Y-80422381D02*
X88931905Y-81231905D01*
X88979524Y-81327143D01*
X89027143Y-81374762D01*
X89122381Y-81422381D01*
X89312858Y-81422381D01*
X89408096Y-81374762D01*
X89455715Y-81327143D01*
X89503334Y-81231905D01*
X89503334Y-80422381D01*
X90408096Y-80755714D02*
X90408096Y-81422381D01*
X90170000Y-80374762D02*
X89931905Y-81089048D01*
X90550953Y-81089048D01*
X91455715Y-81422381D02*
X90884286Y-81422381D01*
X91170000Y-81422381D02*
X91170000Y-80422381D01*
X91074762Y-80565238D01*
X90979524Y-80660476D01*
X90884286Y-80708095D01*
X88931905Y-72802381D02*
X88931905Y-73611905D01*
X88979524Y-73707143D01*
X89027143Y-73754762D01*
X89122381Y-73802381D01*
X89312858Y-73802381D01*
X89408096Y-73754762D01*
X89455715Y-73707143D01*
X89503334Y-73611905D01*
X89503334Y-72802381D01*
X90408096Y-73135714D02*
X90408096Y-73802381D01*
X90170000Y-72754762D02*
X89931905Y-73469048D01*
X90550953Y-73469048D01*
X90884286Y-72897619D02*
X90931905Y-72850000D01*
X91027143Y-72802381D01*
X91265239Y-72802381D01*
X91360477Y-72850000D01*
X91408096Y-72897619D01*
X91455715Y-72992857D01*
X91455715Y-73088095D01*
X91408096Y-73230952D01*
X90836667Y-73802381D01*
X91455715Y-73802381D01*
X88931905Y-65182381D02*
X88931905Y-65991905D01*
X88979524Y-66087143D01*
X89027143Y-66134762D01*
X89122381Y-66182381D01*
X89312858Y-66182381D01*
X89408096Y-66134762D01*
X89455715Y-66087143D01*
X89503334Y-65991905D01*
X89503334Y-65182381D01*
X90408096Y-65515714D02*
X90408096Y-66182381D01*
X90170000Y-65134762D02*
X89931905Y-65849048D01*
X90550953Y-65849048D01*
X90836667Y-65182381D02*
X91455715Y-65182381D01*
X91122381Y-65563333D01*
X91265239Y-65563333D01*
X91360477Y-65610952D01*
X91408096Y-65658571D01*
X91455715Y-65753810D01*
X91455715Y-65991905D01*
X91408096Y-66087143D01*
X91360477Y-66134762D01*
X91265239Y-66182381D01*
X90979524Y-66182381D01*
X90884286Y-66134762D01*
X90836667Y-66087143D01*
X88931905Y-57562381D02*
X88931905Y-58371905D01*
X88979524Y-58467143D01*
X89027143Y-58514762D01*
X89122381Y-58562381D01*
X89312858Y-58562381D01*
X89408096Y-58514762D01*
X89455715Y-58467143D01*
X89503334Y-58371905D01*
X89503334Y-57562381D01*
X90408096Y-57895714D02*
X90408096Y-58562381D01*
X90170000Y-57514762D02*
X89931905Y-58229048D01*
X90550953Y-58229048D01*
X91360477Y-57895714D02*
X91360477Y-58562381D01*
X91122381Y-57514762D02*
X90884286Y-58229048D01*
X91503334Y-58229048D01*
X88931905Y-49942381D02*
X88931905Y-50751905D01*
X88979524Y-50847143D01*
X89027143Y-50894762D01*
X89122381Y-50942381D01*
X89312858Y-50942381D01*
X89408096Y-50894762D01*
X89455715Y-50847143D01*
X89503334Y-50751905D01*
X89503334Y-49942381D01*
X90408096Y-50275714D02*
X90408096Y-50942381D01*
X90170000Y-49894762D02*
X89931905Y-50609048D01*
X90550953Y-50609048D01*
X91408096Y-49942381D02*
X90931905Y-49942381D01*
X90884286Y-50418571D01*
X90931905Y-50370952D01*
X91027143Y-50323333D01*
X91265239Y-50323333D01*
X91360477Y-50370952D01*
X91408096Y-50418571D01*
X91455715Y-50513810D01*
X91455715Y-50751905D01*
X91408096Y-50847143D01*
X91360477Y-50894762D01*
X91265239Y-50942381D01*
X91027143Y-50942381D01*
X90931905Y-50894762D01*
X90884286Y-50847143D01*
X88931905Y-42322381D02*
X88931905Y-43131905D01*
X88979524Y-43227143D01*
X89027143Y-43274762D01*
X89122381Y-43322381D01*
X89312858Y-43322381D01*
X89408096Y-43274762D01*
X89455715Y-43227143D01*
X89503334Y-43131905D01*
X89503334Y-42322381D01*
X90408096Y-42655714D02*
X90408096Y-43322381D01*
X90170000Y-42274762D02*
X89931905Y-42989048D01*
X90550953Y-42989048D01*
X91360477Y-42322381D02*
X91170000Y-42322381D01*
X91074762Y-42370000D01*
X91027143Y-42417619D01*
X90931905Y-42560476D01*
X90884286Y-42750952D01*
X90884286Y-43131905D01*
X90931905Y-43227143D01*
X90979524Y-43274762D01*
X91074762Y-43322381D01*
X91265239Y-43322381D01*
X91360477Y-43274762D01*
X91408096Y-43227143D01*
X91455715Y-43131905D01*
X91455715Y-42893810D01*
X91408096Y-42798571D01*
X91360477Y-42750952D01*
X91265239Y-42703333D01*
X91074762Y-42703333D01*
X90979524Y-42750952D01*
X90931905Y-42798571D01*
X90884286Y-42893810D01*
X88931905Y-34702381D02*
X88931905Y-35511905D01*
X88979524Y-35607143D01*
X89027143Y-35654762D01*
X89122381Y-35702381D01*
X89312858Y-35702381D01*
X89408096Y-35654762D01*
X89455715Y-35607143D01*
X89503334Y-35511905D01*
X89503334Y-34702381D01*
X90408096Y-35035714D02*
X90408096Y-35702381D01*
X90170000Y-34654762D02*
X89931905Y-35369048D01*
X90550953Y-35369048D01*
X90836667Y-34702381D02*
X91503334Y-34702381D01*
X91074762Y-35702381D01*
X88931905Y-27082381D02*
X88931905Y-27891905D01*
X88979524Y-27987143D01*
X89027143Y-28034762D01*
X89122381Y-28082381D01*
X89312858Y-28082381D01*
X89408096Y-28034762D01*
X89455715Y-27987143D01*
X89503334Y-27891905D01*
X89503334Y-27082381D01*
X90408096Y-27415714D02*
X90408096Y-28082381D01*
X90170000Y-27034762D02*
X89931905Y-27749048D01*
X90550953Y-27749048D01*
X91074762Y-27510952D02*
X90979524Y-27463333D01*
X90931905Y-27415714D01*
X90884286Y-27320476D01*
X90884286Y-27272857D01*
X90931905Y-27177619D01*
X90979524Y-27130000D01*
X91074762Y-27082381D01*
X91265239Y-27082381D01*
X91360477Y-27130000D01*
X91408096Y-27177619D01*
X91455715Y-27272857D01*
X91455715Y-27320476D01*
X91408096Y-27415714D01*
X91360477Y-27463333D01*
X91265239Y-27510952D01*
X91074762Y-27510952D01*
X90979524Y-27558571D01*
X90931905Y-27606190D01*
X90884286Y-27701429D01*
X90884286Y-27891905D01*
X90931905Y-27987143D01*
X90979524Y-28034762D01*
X91074762Y-28082381D01*
X91265239Y-28082381D01*
X91360477Y-28034762D01*
X91408096Y-27987143D01*
X91455715Y-27891905D01*
X91455715Y-27701429D01*
X91408096Y-27606190D01*
X91360477Y-27558571D01*
X91265239Y-27510952D01*
X99091905Y-20082381D02*
X99091905Y-20891905D01*
X99139524Y-20987143D01*
X99187143Y-21034762D01*
X99282381Y-21082381D01*
X99472858Y-21082381D01*
X99568096Y-21034762D01*
X99615715Y-20987143D01*
X99663334Y-20891905D01*
X99663334Y-20082381D01*
X100568096Y-20415714D02*
X100568096Y-21082381D01*
X100330000Y-20034762D02*
X100091905Y-20749048D01*
X100710953Y-20749048D01*
X101139524Y-21082381D02*
X101330000Y-21082381D01*
X101425239Y-21034762D01*
X101472858Y-20987143D01*
X101568096Y-20844286D01*
X101615715Y-20653810D01*
X101615715Y-20272857D01*
X101568096Y-20177619D01*
X101520477Y-20130000D01*
X101425239Y-20082381D01*
X101234762Y-20082381D01*
X101139524Y-20130000D01*
X101091905Y-20177619D01*
X101044286Y-20272857D01*
X101044286Y-20510952D01*
X101091905Y-20606190D01*
X101139524Y-20653810D01*
X101234762Y-20701429D01*
X101425239Y-20701429D01*
X101520477Y-20653810D01*
X101568096Y-20606190D01*
X101615715Y-20510952D01*
X99091905Y-27702381D02*
X99091905Y-28511905D01*
X99139524Y-28607143D01*
X99187143Y-28654762D01*
X99282381Y-28702381D01*
X99472858Y-28702381D01*
X99568096Y-28654762D01*
X99615715Y-28607143D01*
X99663334Y-28511905D01*
X99663334Y-27702381D01*
X100615715Y-27702381D02*
X100139524Y-27702381D01*
X100091905Y-28178571D01*
X100139524Y-28130952D01*
X100234762Y-28083333D01*
X100472858Y-28083333D01*
X100568096Y-28130952D01*
X100615715Y-28178571D01*
X100663334Y-28273810D01*
X100663334Y-28511905D01*
X100615715Y-28607143D01*
X100568096Y-28654762D01*
X100472858Y-28702381D01*
X100234762Y-28702381D01*
X100139524Y-28654762D01*
X100091905Y-28607143D01*
X101282381Y-27702381D02*
X101377620Y-27702381D01*
X101472858Y-27750000D01*
X101520477Y-27797619D01*
X101568096Y-27892857D01*
X101615715Y-28083333D01*
X101615715Y-28321429D01*
X101568096Y-28511905D01*
X101520477Y-28607143D01*
X101472858Y-28654762D01*
X101377620Y-28702381D01*
X101282381Y-28702381D01*
X101187143Y-28654762D01*
X101139524Y-28607143D01*
X101091905Y-28511905D01*
X101044286Y-28321429D01*
X101044286Y-28083333D01*
X101091905Y-27892857D01*
X101139524Y-27797619D01*
X101187143Y-27750000D01*
X101282381Y-27702381D01*
X99091905Y-35322381D02*
X99091905Y-36131905D01*
X99139524Y-36227143D01*
X99187143Y-36274762D01*
X99282381Y-36322381D01*
X99472858Y-36322381D01*
X99568096Y-36274762D01*
X99615715Y-36227143D01*
X99663334Y-36131905D01*
X99663334Y-35322381D01*
X100615715Y-35322381D02*
X100139524Y-35322381D01*
X100091905Y-35798571D01*
X100139524Y-35750952D01*
X100234762Y-35703333D01*
X100472858Y-35703333D01*
X100568096Y-35750952D01*
X100615715Y-35798571D01*
X100663334Y-35893810D01*
X100663334Y-36131905D01*
X100615715Y-36227143D01*
X100568096Y-36274762D01*
X100472858Y-36322381D01*
X100234762Y-36322381D01*
X100139524Y-36274762D01*
X100091905Y-36227143D01*
X101615715Y-36322381D02*
X101044286Y-36322381D01*
X101330000Y-36322381D02*
X101330000Y-35322381D01*
X101234762Y-35465238D01*
X101139524Y-35560476D01*
X101044286Y-35608095D01*
X99091905Y-42942381D02*
X99091905Y-43751905D01*
X99139524Y-43847143D01*
X99187143Y-43894762D01*
X99282381Y-43942381D01*
X99472858Y-43942381D01*
X99568096Y-43894762D01*
X99615715Y-43847143D01*
X99663334Y-43751905D01*
X99663334Y-42942381D01*
X100615715Y-42942381D02*
X100139524Y-42942381D01*
X100091905Y-43418571D01*
X100139524Y-43370952D01*
X100234762Y-43323333D01*
X100472858Y-43323333D01*
X100568096Y-43370952D01*
X100615715Y-43418571D01*
X100663334Y-43513810D01*
X100663334Y-43751905D01*
X100615715Y-43847143D01*
X100568096Y-43894762D01*
X100472858Y-43942381D01*
X100234762Y-43942381D01*
X100139524Y-43894762D01*
X100091905Y-43847143D01*
X101044286Y-43037619D02*
X101091905Y-42990000D01*
X101187143Y-42942381D01*
X101425239Y-42942381D01*
X101520477Y-42990000D01*
X101568096Y-43037619D01*
X101615715Y-43132857D01*
X101615715Y-43228095D01*
X101568096Y-43370952D01*
X100996667Y-43942381D01*
X101615715Y-43942381D01*
X99091905Y-50562381D02*
X99091905Y-51371905D01*
X99139524Y-51467143D01*
X99187143Y-51514762D01*
X99282381Y-51562381D01*
X99472858Y-51562381D01*
X99568096Y-51514762D01*
X99615715Y-51467143D01*
X99663334Y-51371905D01*
X99663334Y-50562381D01*
X100615715Y-50562381D02*
X100139524Y-50562381D01*
X100091905Y-51038571D01*
X100139524Y-50990952D01*
X100234762Y-50943333D01*
X100472858Y-50943333D01*
X100568096Y-50990952D01*
X100615715Y-51038571D01*
X100663334Y-51133810D01*
X100663334Y-51371905D01*
X100615715Y-51467143D01*
X100568096Y-51514762D01*
X100472858Y-51562381D01*
X100234762Y-51562381D01*
X100139524Y-51514762D01*
X100091905Y-51467143D01*
X100996667Y-50562381D02*
X101615715Y-50562381D01*
X101282381Y-50943333D01*
X101425239Y-50943333D01*
X101520477Y-50990952D01*
X101568096Y-51038571D01*
X101615715Y-51133810D01*
X101615715Y-51371905D01*
X101568096Y-51467143D01*
X101520477Y-51514762D01*
X101425239Y-51562381D01*
X101139524Y-51562381D01*
X101044286Y-51514762D01*
X100996667Y-51467143D01*
X99091905Y-58182381D02*
X99091905Y-58991905D01*
X99139524Y-59087143D01*
X99187143Y-59134762D01*
X99282381Y-59182381D01*
X99472858Y-59182381D01*
X99568096Y-59134762D01*
X99615715Y-59087143D01*
X99663334Y-58991905D01*
X99663334Y-58182381D01*
X100615715Y-58182381D02*
X100139524Y-58182381D01*
X100091905Y-58658571D01*
X100139524Y-58610952D01*
X100234762Y-58563333D01*
X100472858Y-58563333D01*
X100568096Y-58610952D01*
X100615715Y-58658571D01*
X100663334Y-58753810D01*
X100663334Y-58991905D01*
X100615715Y-59087143D01*
X100568096Y-59134762D01*
X100472858Y-59182381D01*
X100234762Y-59182381D01*
X100139524Y-59134762D01*
X100091905Y-59087143D01*
X101520477Y-58515714D02*
X101520477Y-59182381D01*
X101282381Y-58134762D02*
X101044286Y-58849048D01*
X101663334Y-58849048D01*
X99091905Y-65802381D02*
X99091905Y-66611905D01*
X99139524Y-66707143D01*
X99187143Y-66754762D01*
X99282381Y-66802381D01*
X99472858Y-66802381D01*
X99568096Y-66754762D01*
X99615715Y-66707143D01*
X99663334Y-66611905D01*
X99663334Y-65802381D01*
X100615715Y-65802381D02*
X100139524Y-65802381D01*
X100091905Y-66278571D01*
X100139524Y-66230952D01*
X100234762Y-66183333D01*
X100472858Y-66183333D01*
X100568096Y-66230952D01*
X100615715Y-66278571D01*
X100663334Y-66373810D01*
X100663334Y-66611905D01*
X100615715Y-66707143D01*
X100568096Y-66754762D01*
X100472858Y-66802381D01*
X100234762Y-66802381D01*
X100139524Y-66754762D01*
X100091905Y-66707143D01*
X101568096Y-65802381D02*
X101091905Y-65802381D01*
X101044286Y-66278571D01*
X101091905Y-66230952D01*
X101187143Y-66183333D01*
X101425239Y-66183333D01*
X101520477Y-66230952D01*
X101568096Y-66278571D01*
X101615715Y-66373810D01*
X101615715Y-66611905D01*
X101568096Y-66707143D01*
X101520477Y-66754762D01*
X101425239Y-66802381D01*
X101187143Y-66802381D01*
X101091905Y-66754762D01*
X101044286Y-66707143D01*
X99091905Y-73422381D02*
X99091905Y-74231905D01*
X99139524Y-74327143D01*
X99187143Y-74374762D01*
X99282381Y-74422381D01*
X99472858Y-74422381D01*
X99568096Y-74374762D01*
X99615715Y-74327143D01*
X99663334Y-74231905D01*
X99663334Y-73422381D01*
X100615715Y-73422381D02*
X100139524Y-73422381D01*
X100091905Y-73898571D01*
X100139524Y-73850952D01*
X100234762Y-73803333D01*
X100472858Y-73803333D01*
X100568096Y-73850952D01*
X100615715Y-73898571D01*
X100663334Y-73993810D01*
X100663334Y-74231905D01*
X100615715Y-74327143D01*
X100568096Y-74374762D01*
X100472858Y-74422381D01*
X100234762Y-74422381D01*
X100139524Y-74374762D01*
X100091905Y-74327143D01*
X101520477Y-73422381D02*
X101330000Y-73422381D01*
X101234762Y-73470000D01*
X101187143Y-73517619D01*
X101091905Y-73660476D01*
X101044286Y-73850952D01*
X101044286Y-74231905D01*
X101091905Y-74327143D01*
X101139524Y-74374762D01*
X101234762Y-74422381D01*
X101425239Y-74422381D01*
X101520477Y-74374762D01*
X101568096Y-74327143D01*
X101615715Y-74231905D01*
X101615715Y-73993810D01*
X101568096Y-73898571D01*
X101520477Y-73850952D01*
X101425239Y-73803333D01*
X101234762Y-73803333D01*
X101139524Y-73850952D01*
X101091905Y-73898571D01*
X101044286Y-73993810D01*
X109251905Y-72802381D02*
X109251905Y-73611905D01*
X109299524Y-73707143D01*
X109347143Y-73754762D01*
X109442381Y-73802381D01*
X109632858Y-73802381D01*
X109728096Y-73754762D01*
X109775715Y-73707143D01*
X109823334Y-73611905D01*
X109823334Y-72802381D01*
X110775715Y-72802381D02*
X110299524Y-72802381D01*
X110251905Y-73278571D01*
X110299524Y-73230952D01*
X110394762Y-73183333D01*
X110632858Y-73183333D01*
X110728096Y-73230952D01*
X110775715Y-73278571D01*
X110823334Y-73373810D01*
X110823334Y-73611905D01*
X110775715Y-73707143D01*
X110728096Y-73754762D01*
X110632858Y-73802381D01*
X110394762Y-73802381D01*
X110299524Y-73754762D01*
X110251905Y-73707143D01*
X111394762Y-73230952D02*
X111299524Y-73183333D01*
X111251905Y-73135714D01*
X111204286Y-73040476D01*
X111204286Y-72992857D01*
X111251905Y-72897619D01*
X111299524Y-72850000D01*
X111394762Y-72802381D01*
X111585239Y-72802381D01*
X111680477Y-72850000D01*
X111728096Y-72897619D01*
X111775715Y-72992857D01*
X111775715Y-73040476D01*
X111728096Y-73135714D01*
X111680477Y-73183333D01*
X111585239Y-73230952D01*
X111394762Y-73230952D01*
X111299524Y-73278571D01*
X111251905Y-73326190D01*
X111204286Y-73421429D01*
X111204286Y-73611905D01*
X111251905Y-73707143D01*
X111299524Y-73754762D01*
X111394762Y-73802381D01*
X111585239Y-73802381D01*
X111680477Y-73754762D01*
X111728096Y-73707143D01*
X111775715Y-73611905D01*
X111775715Y-73421429D01*
X111728096Y-73326190D01*
X111680477Y-73278571D01*
X111585239Y-73230952D01*
X109251905Y-65182381D02*
X109251905Y-65991905D01*
X109299524Y-66087143D01*
X109347143Y-66134762D01*
X109442381Y-66182381D01*
X109632858Y-66182381D01*
X109728096Y-66134762D01*
X109775715Y-66087143D01*
X109823334Y-65991905D01*
X109823334Y-65182381D01*
X110775715Y-65182381D02*
X110299524Y-65182381D01*
X110251905Y-65658571D01*
X110299524Y-65610952D01*
X110394762Y-65563333D01*
X110632858Y-65563333D01*
X110728096Y-65610952D01*
X110775715Y-65658571D01*
X110823334Y-65753810D01*
X110823334Y-65991905D01*
X110775715Y-66087143D01*
X110728096Y-66134762D01*
X110632858Y-66182381D01*
X110394762Y-66182381D01*
X110299524Y-66134762D01*
X110251905Y-66087143D01*
X111299524Y-66182381D02*
X111490000Y-66182381D01*
X111585239Y-66134762D01*
X111632858Y-66087143D01*
X111728096Y-65944286D01*
X111775715Y-65753810D01*
X111775715Y-65372857D01*
X111728096Y-65277619D01*
X111680477Y-65230000D01*
X111585239Y-65182381D01*
X111394762Y-65182381D01*
X111299524Y-65230000D01*
X111251905Y-65277619D01*
X111204286Y-65372857D01*
X111204286Y-65610952D01*
X111251905Y-65706190D01*
X111299524Y-65753810D01*
X111394762Y-65801429D01*
X111585239Y-65801429D01*
X111680477Y-65753810D01*
X111728096Y-65706190D01*
X111775715Y-65610952D01*
X109251905Y-57562381D02*
X109251905Y-58371905D01*
X109299524Y-58467143D01*
X109347143Y-58514762D01*
X109442381Y-58562381D01*
X109632858Y-58562381D01*
X109728096Y-58514762D01*
X109775715Y-58467143D01*
X109823334Y-58371905D01*
X109823334Y-57562381D01*
X110728096Y-57562381D02*
X110537619Y-57562381D01*
X110442381Y-57610000D01*
X110394762Y-57657619D01*
X110299524Y-57800476D01*
X110251905Y-57990952D01*
X110251905Y-58371905D01*
X110299524Y-58467143D01*
X110347143Y-58514762D01*
X110442381Y-58562381D01*
X110632858Y-58562381D01*
X110728096Y-58514762D01*
X110775715Y-58467143D01*
X110823334Y-58371905D01*
X110823334Y-58133810D01*
X110775715Y-58038571D01*
X110728096Y-57990952D01*
X110632858Y-57943333D01*
X110442381Y-57943333D01*
X110347143Y-57990952D01*
X110299524Y-58038571D01*
X110251905Y-58133810D01*
X111442381Y-57562381D02*
X111537620Y-57562381D01*
X111632858Y-57610000D01*
X111680477Y-57657619D01*
X111728096Y-57752857D01*
X111775715Y-57943333D01*
X111775715Y-58181429D01*
X111728096Y-58371905D01*
X111680477Y-58467143D01*
X111632858Y-58514762D01*
X111537620Y-58562381D01*
X111442381Y-58562381D01*
X111347143Y-58514762D01*
X111299524Y-58467143D01*
X111251905Y-58371905D01*
X111204286Y-58181429D01*
X111204286Y-57943333D01*
X111251905Y-57752857D01*
X111299524Y-57657619D01*
X111347143Y-57610000D01*
X111442381Y-57562381D01*
X109251905Y-49942381D02*
X109251905Y-50751905D01*
X109299524Y-50847143D01*
X109347143Y-50894762D01*
X109442381Y-50942381D01*
X109632858Y-50942381D01*
X109728096Y-50894762D01*
X109775715Y-50847143D01*
X109823334Y-50751905D01*
X109823334Y-49942381D01*
X110728096Y-49942381D02*
X110537619Y-49942381D01*
X110442381Y-49990000D01*
X110394762Y-50037619D01*
X110299524Y-50180476D01*
X110251905Y-50370952D01*
X110251905Y-50751905D01*
X110299524Y-50847143D01*
X110347143Y-50894762D01*
X110442381Y-50942381D01*
X110632858Y-50942381D01*
X110728096Y-50894762D01*
X110775715Y-50847143D01*
X110823334Y-50751905D01*
X110823334Y-50513810D01*
X110775715Y-50418571D01*
X110728096Y-50370952D01*
X110632858Y-50323333D01*
X110442381Y-50323333D01*
X110347143Y-50370952D01*
X110299524Y-50418571D01*
X110251905Y-50513810D01*
X111775715Y-50942381D02*
X111204286Y-50942381D01*
X111490000Y-50942381D02*
X111490000Y-49942381D01*
X111394762Y-50085238D01*
X111299524Y-50180476D01*
X111204286Y-50228095D01*
X109251905Y-42322381D02*
X109251905Y-43131905D01*
X109299524Y-43227143D01*
X109347143Y-43274762D01*
X109442381Y-43322381D01*
X109632858Y-43322381D01*
X109728096Y-43274762D01*
X109775715Y-43227143D01*
X109823334Y-43131905D01*
X109823334Y-42322381D01*
X110728096Y-42322381D02*
X110537619Y-42322381D01*
X110442381Y-42370000D01*
X110394762Y-42417619D01*
X110299524Y-42560476D01*
X110251905Y-42750952D01*
X110251905Y-43131905D01*
X110299524Y-43227143D01*
X110347143Y-43274762D01*
X110442381Y-43322381D01*
X110632858Y-43322381D01*
X110728096Y-43274762D01*
X110775715Y-43227143D01*
X110823334Y-43131905D01*
X110823334Y-42893810D01*
X110775715Y-42798571D01*
X110728096Y-42750952D01*
X110632858Y-42703333D01*
X110442381Y-42703333D01*
X110347143Y-42750952D01*
X110299524Y-42798571D01*
X110251905Y-42893810D01*
X111204286Y-42417619D02*
X111251905Y-42370000D01*
X111347143Y-42322381D01*
X111585239Y-42322381D01*
X111680477Y-42370000D01*
X111728096Y-42417619D01*
X111775715Y-42512857D01*
X111775715Y-42608095D01*
X111728096Y-42750952D01*
X111156667Y-43322381D01*
X111775715Y-43322381D01*
X109251905Y-34702381D02*
X109251905Y-35511905D01*
X109299524Y-35607143D01*
X109347143Y-35654762D01*
X109442381Y-35702381D01*
X109632858Y-35702381D01*
X109728096Y-35654762D01*
X109775715Y-35607143D01*
X109823334Y-35511905D01*
X109823334Y-34702381D01*
X110728096Y-34702381D02*
X110537619Y-34702381D01*
X110442381Y-34750000D01*
X110394762Y-34797619D01*
X110299524Y-34940476D01*
X110251905Y-35130952D01*
X110251905Y-35511905D01*
X110299524Y-35607143D01*
X110347143Y-35654762D01*
X110442381Y-35702381D01*
X110632858Y-35702381D01*
X110728096Y-35654762D01*
X110775715Y-35607143D01*
X110823334Y-35511905D01*
X110823334Y-35273810D01*
X110775715Y-35178571D01*
X110728096Y-35130952D01*
X110632858Y-35083333D01*
X110442381Y-35083333D01*
X110347143Y-35130952D01*
X110299524Y-35178571D01*
X110251905Y-35273810D01*
X111156667Y-34702381D02*
X111775715Y-34702381D01*
X111442381Y-35083333D01*
X111585239Y-35083333D01*
X111680477Y-35130952D01*
X111728096Y-35178571D01*
X111775715Y-35273810D01*
X111775715Y-35511905D01*
X111728096Y-35607143D01*
X111680477Y-35654762D01*
X111585239Y-35702381D01*
X111299524Y-35702381D01*
X111204286Y-35654762D01*
X111156667Y-35607143D01*
X109251905Y-27082381D02*
X109251905Y-27891905D01*
X109299524Y-27987143D01*
X109347143Y-28034762D01*
X109442381Y-28082381D01*
X109632858Y-28082381D01*
X109728096Y-28034762D01*
X109775715Y-27987143D01*
X109823334Y-27891905D01*
X109823334Y-27082381D01*
X110728096Y-27082381D02*
X110537619Y-27082381D01*
X110442381Y-27130000D01*
X110394762Y-27177619D01*
X110299524Y-27320476D01*
X110251905Y-27510952D01*
X110251905Y-27891905D01*
X110299524Y-27987143D01*
X110347143Y-28034762D01*
X110442381Y-28082381D01*
X110632858Y-28082381D01*
X110728096Y-28034762D01*
X110775715Y-27987143D01*
X110823334Y-27891905D01*
X110823334Y-27653810D01*
X110775715Y-27558571D01*
X110728096Y-27510952D01*
X110632858Y-27463333D01*
X110442381Y-27463333D01*
X110347143Y-27510952D01*
X110299524Y-27558571D01*
X110251905Y-27653810D01*
X111680477Y-27415714D02*
X111680477Y-28082381D01*
X111442381Y-27034762D02*
X111204286Y-27749048D01*
X111823334Y-27749048D01*
X43307143Y-24296666D02*
X43354762Y-24344285D01*
X43402381Y-24487142D01*
X43402381Y-24582380D01*
X43354762Y-24725238D01*
X43259524Y-24820476D01*
X43164286Y-24868095D01*
X42973810Y-24915714D01*
X42830952Y-24915714D01*
X42640476Y-24868095D01*
X42545238Y-24820476D01*
X42450000Y-24725238D01*
X42402381Y-24582380D01*
X42402381Y-24487142D01*
X42450000Y-24344285D01*
X42497619Y-24296666D01*
X43402381Y-23344285D02*
X43402381Y-23915714D01*
X43402381Y-23630000D02*
X42402381Y-23630000D01*
X42545238Y-23725238D01*
X42640476Y-23820476D01*
X42688095Y-23915714D01*
X43307143Y-31916666D02*
X43354762Y-31964285D01*
X43402381Y-32107142D01*
X43402381Y-32202380D01*
X43354762Y-32345238D01*
X43259524Y-32440476D01*
X43164286Y-32488095D01*
X42973810Y-32535714D01*
X42830952Y-32535714D01*
X42640476Y-32488095D01*
X42545238Y-32440476D01*
X42450000Y-32345238D01*
X42402381Y-32202380D01*
X42402381Y-32107142D01*
X42450000Y-31964285D01*
X42497619Y-31916666D01*
X42497619Y-31535714D02*
X42450000Y-31488095D01*
X42402381Y-31392857D01*
X42402381Y-31154761D01*
X42450000Y-31059523D01*
X42497619Y-31011904D01*
X42592857Y-30964285D01*
X42688095Y-30964285D01*
X42830952Y-31011904D01*
X43402381Y-31583333D01*
X43402381Y-30964285D01*
X43307143Y-39536666D02*
X43354762Y-39584285D01*
X43402381Y-39727142D01*
X43402381Y-39822380D01*
X43354762Y-39965238D01*
X43259524Y-40060476D01*
X43164286Y-40108095D01*
X42973810Y-40155714D01*
X42830952Y-40155714D01*
X42640476Y-40108095D01*
X42545238Y-40060476D01*
X42450000Y-39965238D01*
X42402381Y-39822380D01*
X42402381Y-39727142D01*
X42450000Y-39584285D01*
X42497619Y-39536666D01*
X42402381Y-39203333D02*
X42402381Y-38584285D01*
X42783333Y-38917619D01*
X42783333Y-38774761D01*
X42830952Y-38679523D01*
X42878571Y-38631904D01*
X42973810Y-38584285D01*
X43211905Y-38584285D01*
X43307143Y-38631904D01*
X43354762Y-38679523D01*
X43402381Y-38774761D01*
X43402381Y-39060476D01*
X43354762Y-39155714D01*
X43307143Y-39203333D01*
X43307143Y-47156666D02*
X43354762Y-47204285D01*
X43402381Y-47347142D01*
X43402381Y-47442380D01*
X43354762Y-47585238D01*
X43259524Y-47680476D01*
X43164286Y-47728095D01*
X42973810Y-47775714D01*
X42830952Y-47775714D01*
X42640476Y-47728095D01*
X42545238Y-47680476D01*
X42450000Y-47585238D01*
X42402381Y-47442380D01*
X42402381Y-47347142D01*
X42450000Y-47204285D01*
X42497619Y-47156666D01*
X42735714Y-46299523D02*
X43402381Y-46299523D01*
X42354762Y-46537619D02*
X43069048Y-46775714D01*
X43069048Y-46156666D01*
X43307143Y-54776666D02*
X43354762Y-54824285D01*
X43402381Y-54967142D01*
X43402381Y-55062380D01*
X43354762Y-55205238D01*
X43259524Y-55300476D01*
X43164286Y-55348095D01*
X42973810Y-55395714D01*
X42830952Y-55395714D01*
X42640476Y-55348095D01*
X42545238Y-55300476D01*
X42450000Y-55205238D01*
X42402381Y-55062380D01*
X42402381Y-54967142D01*
X42450000Y-54824285D01*
X42497619Y-54776666D01*
X42402381Y-53871904D02*
X42402381Y-54348095D01*
X42878571Y-54395714D01*
X42830952Y-54348095D01*
X42783333Y-54252857D01*
X42783333Y-54014761D01*
X42830952Y-53919523D01*
X42878571Y-53871904D01*
X42973810Y-53824285D01*
X43211905Y-53824285D01*
X43307143Y-53871904D01*
X43354762Y-53919523D01*
X43402381Y-54014761D01*
X43402381Y-54252857D01*
X43354762Y-54348095D01*
X43307143Y-54395714D01*
X43307143Y-62396666D02*
X43354762Y-62444285D01*
X43402381Y-62587142D01*
X43402381Y-62682380D01*
X43354762Y-62825238D01*
X43259524Y-62920476D01*
X43164286Y-62968095D01*
X42973810Y-63015714D01*
X42830952Y-63015714D01*
X42640476Y-62968095D01*
X42545238Y-62920476D01*
X42450000Y-62825238D01*
X42402381Y-62682380D01*
X42402381Y-62587142D01*
X42450000Y-62444285D01*
X42497619Y-62396666D01*
X42402381Y-61539523D02*
X42402381Y-61730000D01*
X42450000Y-61825238D01*
X42497619Y-61872857D01*
X42640476Y-61968095D01*
X42830952Y-62015714D01*
X43211905Y-62015714D01*
X43307143Y-61968095D01*
X43354762Y-61920476D01*
X43402381Y-61825238D01*
X43402381Y-61634761D01*
X43354762Y-61539523D01*
X43307143Y-61491904D01*
X43211905Y-61444285D01*
X42973810Y-61444285D01*
X42878571Y-61491904D01*
X42830952Y-61539523D01*
X42783333Y-61634761D01*
X42783333Y-61825238D01*
X42830952Y-61920476D01*
X42878571Y-61968095D01*
X42973810Y-62015714D01*
X43307143Y-70016666D02*
X43354762Y-70064285D01*
X43402381Y-70207142D01*
X43402381Y-70302380D01*
X43354762Y-70445238D01*
X43259524Y-70540476D01*
X43164286Y-70588095D01*
X42973810Y-70635714D01*
X42830952Y-70635714D01*
X42640476Y-70588095D01*
X42545238Y-70540476D01*
X42450000Y-70445238D01*
X42402381Y-70302380D01*
X42402381Y-70207142D01*
X42450000Y-70064285D01*
X42497619Y-70016666D01*
X42402381Y-69683333D02*
X42402381Y-69016666D01*
X43402381Y-69445238D01*
X43307143Y-77636666D02*
X43354762Y-77684285D01*
X43402381Y-77827142D01*
X43402381Y-77922380D01*
X43354762Y-78065238D01*
X43259524Y-78160476D01*
X43164286Y-78208095D01*
X42973810Y-78255714D01*
X42830952Y-78255714D01*
X42640476Y-78208095D01*
X42545238Y-78160476D01*
X42450000Y-78065238D01*
X42402381Y-77922380D01*
X42402381Y-77827142D01*
X42450000Y-77684285D01*
X42497619Y-77636666D01*
X42830952Y-77065238D02*
X42783333Y-77160476D01*
X42735714Y-77208095D01*
X42640476Y-77255714D01*
X42592857Y-77255714D01*
X42497619Y-77208095D01*
X42450000Y-77160476D01*
X42402381Y-77065238D01*
X42402381Y-76874761D01*
X42450000Y-76779523D01*
X42497619Y-76731904D01*
X42592857Y-76684285D01*
X42640476Y-76684285D01*
X42735714Y-76731904D01*
X42783333Y-76779523D01*
X42830952Y-76874761D01*
X42830952Y-77065238D01*
X42878571Y-77160476D01*
X42926190Y-77208095D01*
X43021429Y-77255714D01*
X43211905Y-77255714D01*
X43307143Y-77208095D01*
X43354762Y-77160476D01*
X43402381Y-77065238D01*
X43402381Y-76874761D01*
X43354762Y-76779523D01*
X43307143Y-76731904D01*
X43211905Y-76684285D01*
X43021429Y-76684285D01*
X42926190Y-76731904D01*
X42878571Y-76779523D01*
X42830952Y-76874761D01*
X56467143Y-77636666D02*
X56514762Y-77684285D01*
X56562381Y-77827142D01*
X56562381Y-77922380D01*
X56514762Y-78065238D01*
X56419524Y-78160476D01*
X56324286Y-78208095D01*
X56133810Y-78255714D01*
X55990952Y-78255714D01*
X55800476Y-78208095D01*
X55705238Y-78160476D01*
X55610000Y-78065238D01*
X55562381Y-77922380D01*
X55562381Y-77827142D01*
X55610000Y-77684285D01*
X55657619Y-77636666D01*
X56562381Y-77160476D02*
X56562381Y-76970000D01*
X56514762Y-76874761D01*
X56467143Y-76827142D01*
X56324286Y-76731904D01*
X56133810Y-76684285D01*
X55752857Y-76684285D01*
X55657619Y-76731904D01*
X55610000Y-76779523D01*
X55562381Y-76874761D01*
X55562381Y-77065238D01*
X55610000Y-77160476D01*
X55657619Y-77208095D01*
X55752857Y-77255714D01*
X55990952Y-77255714D01*
X56086190Y-77208095D01*
X56133810Y-77160476D01*
X56181429Y-77065238D01*
X56181429Y-76874761D01*
X56133810Y-76779523D01*
X56086190Y-76731904D01*
X55990952Y-76684285D01*
X56467143Y-70492857D02*
X56514762Y-70540476D01*
X56562381Y-70683333D01*
X56562381Y-70778571D01*
X56514762Y-70921429D01*
X56419524Y-71016667D01*
X56324286Y-71064286D01*
X56133810Y-71111905D01*
X55990952Y-71111905D01*
X55800476Y-71064286D01*
X55705238Y-71016667D01*
X55610000Y-70921429D01*
X55562381Y-70778571D01*
X55562381Y-70683333D01*
X55610000Y-70540476D01*
X55657619Y-70492857D01*
X56562381Y-69540476D02*
X56562381Y-70111905D01*
X56562381Y-69826191D02*
X55562381Y-69826191D01*
X55705238Y-69921429D01*
X55800476Y-70016667D01*
X55848095Y-70111905D01*
X55562381Y-68921429D02*
X55562381Y-68826190D01*
X55610000Y-68730952D01*
X55657619Y-68683333D01*
X55752857Y-68635714D01*
X55943333Y-68588095D01*
X56181429Y-68588095D01*
X56371905Y-68635714D01*
X56467143Y-68683333D01*
X56514762Y-68730952D01*
X56562381Y-68826190D01*
X56562381Y-68921429D01*
X56514762Y-69016667D01*
X56467143Y-69064286D01*
X56371905Y-69111905D01*
X56181429Y-69159524D01*
X55943333Y-69159524D01*
X55752857Y-69111905D01*
X55657619Y-69064286D01*
X55610000Y-69016667D01*
X55562381Y-68921429D01*
X56467143Y-62872857D02*
X56514762Y-62920476D01*
X56562381Y-63063333D01*
X56562381Y-63158571D01*
X56514762Y-63301429D01*
X56419524Y-63396667D01*
X56324286Y-63444286D01*
X56133810Y-63491905D01*
X55990952Y-63491905D01*
X55800476Y-63444286D01*
X55705238Y-63396667D01*
X55610000Y-63301429D01*
X55562381Y-63158571D01*
X55562381Y-63063333D01*
X55610000Y-62920476D01*
X55657619Y-62872857D01*
X56562381Y-61920476D02*
X56562381Y-62491905D01*
X56562381Y-62206191D02*
X55562381Y-62206191D01*
X55705238Y-62301429D01*
X55800476Y-62396667D01*
X55848095Y-62491905D01*
X56562381Y-60968095D02*
X56562381Y-61539524D01*
X56562381Y-61253810D02*
X55562381Y-61253810D01*
X55705238Y-61349048D01*
X55800476Y-61444286D01*
X55848095Y-61539524D01*
X56467143Y-55252857D02*
X56514762Y-55300476D01*
X56562381Y-55443333D01*
X56562381Y-55538571D01*
X56514762Y-55681429D01*
X56419524Y-55776667D01*
X56324286Y-55824286D01*
X56133810Y-55871905D01*
X55990952Y-55871905D01*
X55800476Y-55824286D01*
X55705238Y-55776667D01*
X55610000Y-55681429D01*
X55562381Y-55538571D01*
X55562381Y-55443333D01*
X55610000Y-55300476D01*
X55657619Y-55252857D01*
X56562381Y-54300476D02*
X56562381Y-54871905D01*
X56562381Y-54586191D02*
X55562381Y-54586191D01*
X55705238Y-54681429D01*
X55800476Y-54776667D01*
X55848095Y-54871905D01*
X55657619Y-53919524D02*
X55610000Y-53871905D01*
X55562381Y-53776667D01*
X55562381Y-53538571D01*
X55610000Y-53443333D01*
X55657619Y-53395714D01*
X55752857Y-53348095D01*
X55848095Y-53348095D01*
X55990952Y-53395714D01*
X56562381Y-53967143D01*
X56562381Y-53348095D01*
X56467143Y-47632857D02*
X56514762Y-47680476D01*
X56562381Y-47823333D01*
X56562381Y-47918571D01*
X56514762Y-48061429D01*
X56419524Y-48156667D01*
X56324286Y-48204286D01*
X56133810Y-48251905D01*
X55990952Y-48251905D01*
X55800476Y-48204286D01*
X55705238Y-48156667D01*
X55610000Y-48061429D01*
X55562381Y-47918571D01*
X55562381Y-47823333D01*
X55610000Y-47680476D01*
X55657619Y-47632857D01*
X56562381Y-46680476D02*
X56562381Y-47251905D01*
X56562381Y-46966191D02*
X55562381Y-46966191D01*
X55705238Y-47061429D01*
X55800476Y-47156667D01*
X55848095Y-47251905D01*
X55562381Y-46347143D02*
X55562381Y-45728095D01*
X55943333Y-46061429D01*
X55943333Y-45918571D01*
X55990952Y-45823333D01*
X56038571Y-45775714D01*
X56133810Y-45728095D01*
X56371905Y-45728095D01*
X56467143Y-45775714D01*
X56514762Y-45823333D01*
X56562381Y-45918571D01*
X56562381Y-46204286D01*
X56514762Y-46299524D01*
X56467143Y-46347143D01*
X56467143Y-40012857D02*
X56514762Y-40060476D01*
X56562381Y-40203333D01*
X56562381Y-40298571D01*
X56514762Y-40441429D01*
X56419524Y-40536667D01*
X56324286Y-40584286D01*
X56133810Y-40631905D01*
X55990952Y-40631905D01*
X55800476Y-40584286D01*
X55705238Y-40536667D01*
X55610000Y-40441429D01*
X55562381Y-40298571D01*
X55562381Y-40203333D01*
X55610000Y-40060476D01*
X55657619Y-40012857D01*
X56562381Y-39060476D02*
X56562381Y-39631905D01*
X56562381Y-39346191D02*
X55562381Y-39346191D01*
X55705238Y-39441429D01*
X55800476Y-39536667D01*
X55848095Y-39631905D01*
X55895714Y-38203333D02*
X56562381Y-38203333D01*
X55514762Y-38441429D02*
X56229048Y-38679524D01*
X56229048Y-38060476D01*
X56467143Y-32392857D02*
X56514762Y-32440476D01*
X56562381Y-32583333D01*
X56562381Y-32678571D01*
X56514762Y-32821429D01*
X56419524Y-32916667D01*
X56324286Y-32964286D01*
X56133810Y-33011905D01*
X55990952Y-33011905D01*
X55800476Y-32964286D01*
X55705238Y-32916667D01*
X55610000Y-32821429D01*
X55562381Y-32678571D01*
X55562381Y-32583333D01*
X55610000Y-32440476D01*
X55657619Y-32392857D01*
X56562381Y-31440476D02*
X56562381Y-32011905D01*
X56562381Y-31726191D02*
X55562381Y-31726191D01*
X55705238Y-31821429D01*
X55800476Y-31916667D01*
X55848095Y-32011905D01*
X55562381Y-30535714D02*
X55562381Y-31011905D01*
X56038571Y-31059524D01*
X55990952Y-31011905D01*
X55943333Y-30916667D01*
X55943333Y-30678571D01*
X55990952Y-30583333D01*
X56038571Y-30535714D01*
X56133810Y-30488095D01*
X56371905Y-30488095D01*
X56467143Y-30535714D01*
X56514762Y-30583333D01*
X56562381Y-30678571D01*
X56562381Y-30916667D01*
X56514762Y-31011905D01*
X56467143Y-31059524D01*
X56467143Y-24772857D02*
X56514762Y-24820476D01*
X56562381Y-24963333D01*
X56562381Y-25058571D01*
X56514762Y-25201429D01*
X56419524Y-25296667D01*
X56324286Y-25344286D01*
X56133810Y-25391905D01*
X55990952Y-25391905D01*
X55800476Y-25344286D01*
X55705238Y-25296667D01*
X55610000Y-25201429D01*
X55562381Y-25058571D01*
X55562381Y-24963333D01*
X55610000Y-24820476D01*
X55657619Y-24772857D01*
X56562381Y-23820476D02*
X56562381Y-24391905D01*
X56562381Y-24106191D02*
X55562381Y-24106191D01*
X55705238Y-24201429D01*
X55800476Y-24296667D01*
X55848095Y-24391905D01*
X55562381Y-22963333D02*
X55562381Y-23153810D01*
X55610000Y-23249048D01*
X55657619Y-23296667D01*
X55800476Y-23391905D01*
X55990952Y-23439524D01*
X56371905Y-23439524D01*
X56467143Y-23391905D01*
X56514762Y-23344286D01*
X56562381Y-23249048D01*
X56562381Y-23058571D01*
X56514762Y-22963333D01*
X56467143Y-22915714D01*
X56371905Y-22868095D01*
X56133810Y-22868095D01*
X56038571Y-22915714D01*
X55990952Y-22963333D01*
X55943333Y-23058571D01*
X55943333Y-23249048D01*
X55990952Y-23344286D01*
X56038571Y-23391905D01*
X56133810Y-23439524D01*
X63627143Y-24772857D02*
X63674762Y-24820476D01*
X63722381Y-24963333D01*
X63722381Y-25058571D01*
X63674762Y-25201429D01*
X63579524Y-25296667D01*
X63484286Y-25344286D01*
X63293810Y-25391905D01*
X63150952Y-25391905D01*
X62960476Y-25344286D01*
X62865238Y-25296667D01*
X62770000Y-25201429D01*
X62722381Y-25058571D01*
X62722381Y-24963333D01*
X62770000Y-24820476D01*
X62817619Y-24772857D01*
X63722381Y-23820476D02*
X63722381Y-24391905D01*
X63722381Y-24106191D02*
X62722381Y-24106191D01*
X62865238Y-24201429D01*
X62960476Y-24296667D01*
X63008095Y-24391905D01*
X62722381Y-23487143D02*
X62722381Y-22820476D01*
X63722381Y-23249048D01*
X63627143Y-32392857D02*
X63674762Y-32440476D01*
X63722381Y-32583333D01*
X63722381Y-32678571D01*
X63674762Y-32821429D01*
X63579524Y-32916667D01*
X63484286Y-32964286D01*
X63293810Y-33011905D01*
X63150952Y-33011905D01*
X62960476Y-32964286D01*
X62865238Y-32916667D01*
X62770000Y-32821429D01*
X62722381Y-32678571D01*
X62722381Y-32583333D01*
X62770000Y-32440476D01*
X62817619Y-32392857D01*
X63722381Y-31440476D02*
X63722381Y-32011905D01*
X63722381Y-31726191D02*
X62722381Y-31726191D01*
X62865238Y-31821429D01*
X62960476Y-31916667D01*
X63008095Y-32011905D01*
X63150952Y-30869048D02*
X63103333Y-30964286D01*
X63055714Y-31011905D01*
X62960476Y-31059524D01*
X62912857Y-31059524D01*
X62817619Y-31011905D01*
X62770000Y-30964286D01*
X62722381Y-30869048D01*
X62722381Y-30678571D01*
X62770000Y-30583333D01*
X62817619Y-30535714D01*
X62912857Y-30488095D01*
X62960476Y-30488095D01*
X63055714Y-30535714D01*
X63103333Y-30583333D01*
X63150952Y-30678571D01*
X63150952Y-30869048D01*
X63198571Y-30964286D01*
X63246190Y-31011905D01*
X63341429Y-31059524D01*
X63531905Y-31059524D01*
X63627143Y-31011905D01*
X63674762Y-30964286D01*
X63722381Y-30869048D01*
X63722381Y-30678571D01*
X63674762Y-30583333D01*
X63627143Y-30535714D01*
X63531905Y-30488095D01*
X63341429Y-30488095D01*
X63246190Y-30535714D01*
X63198571Y-30583333D01*
X63150952Y-30678571D01*
X63627143Y-40012857D02*
X63674762Y-40060476D01*
X63722381Y-40203333D01*
X63722381Y-40298571D01*
X63674762Y-40441429D01*
X63579524Y-40536667D01*
X63484286Y-40584286D01*
X63293810Y-40631905D01*
X63150952Y-40631905D01*
X62960476Y-40584286D01*
X62865238Y-40536667D01*
X62770000Y-40441429D01*
X62722381Y-40298571D01*
X62722381Y-40203333D01*
X62770000Y-40060476D01*
X62817619Y-40012857D01*
X63722381Y-39060476D02*
X63722381Y-39631905D01*
X63722381Y-39346191D02*
X62722381Y-39346191D01*
X62865238Y-39441429D01*
X62960476Y-39536667D01*
X63008095Y-39631905D01*
X63722381Y-38584286D02*
X63722381Y-38393810D01*
X63674762Y-38298571D01*
X63627143Y-38250952D01*
X63484286Y-38155714D01*
X63293810Y-38108095D01*
X62912857Y-38108095D01*
X62817619Y-38155714D01*
X62770000Y-38203333D01*
X62722381Y-38298571D01*
X62722381Y-38489048D01*
X62770000Y-38584286D01*
X62817619Y-38631905D01*
X62912857Y-38679524D01*
X63150952Y-38679524D01*
X63246190Y-38631905D01*
X63293810Y-38584286D01*
X63341429Y-38489048D01*
X63341429Y-38298571D01*
X63293810Y-38203333D01*
X63246190Y-38155714D01*
X63150952Y-38108095D01*
X63627143Y-47632857D02*
X63674762Y-47680476D01*
X63722381Y-47823333D01*
X63722381Y-47918571D01*
X63674762Y-48061429D01*
X63579524Y-48156667D01*
X63484286Y-48204286D01*
X63293810Y-48251905D01*
X63150952Y-48251905D01*
X62960476Y-48204286D01*
X62865238Y-48156667D01*
X62770000Y-48061429D01*
X62722381Y-47918571D01*
X62722381Y-47823333D01*
X62770000Y-47680476D01*
X62817619Y-47632857D01*
X62817619Y-47251905D02*
X62770000Y-47204286D01*
X62722381Y-47109048D01*
X62722381Y-46870952D01*
X62770000Y-46775714D01*
X62817619Y-46728095D01*
X62912857Y-46680476D01*
X63008095Y-46680476D01*
X63150952Y-46728095D01*
X63722381Y-47299524D01*
X63722381Y-46680476D01*
X62722381Y-46061429D02*
X62722381Y-45966190D01*
X62770000Y-45870952D01*
X62817619Y-45823333D01*
X62912857Y-45775714D01*
X63103333Y-45728095D01*
X63341429Y-45728095D01*
X63531905Y-45775714D01*
X63627143Y-45823333D01*
X63674762Y-45870952D01*
X63722381Y-45966190D01*
X63722381Y-46061429D01*
X63674762Y-46156667D01*
X63627143Y-46204286D01*
X63531905Y-46251905D01*
X63341429Y-46299524D01*
X63103333Y-46299524D01*
X62912857Y-46251905D01*
X62817619Y-46204286D01*
X62770000Y-46156667D01*
X62722381Y-46061429D01*
X63627143Y-55252857D02*
X63674762Y-55300476D01*
X63722381Y-55443333D01*
X63722381Y-55538571D01*
X63674762Y-55681429D01*
X63579524Y-55776667D01*
X63484286Y-55824286D01*
X63293810Y-55871905D01*
X63150952Y-55871905D01*
X62960476Y-55824286D01*
X62865238Y-55776667D01*
X62770000Y-55681429D01*
X62722381Y-55538571D01*
X62722381Y-55443333D01*
X62770000Y-55300476D01*
X62817619Y-55252857D01*
X62817619Y-54871905D02*
X62770000Y-54824286D01*
X62722381Y-54729048D01*
X62722381Y-54490952D01*
X62770000Y-54395714D01*
X62817619Y-54348095D01*
X62912857Y-54300476D01*
X63008095Y-54300476D01*
X63150952Y-54348095D01*
X63722381Y-54919524D01*
X63722381Y-54300476D01*
X63722381Y-53348095D02*
X63722381Y-53919524D01*
X63722381Y-53633810D02*
X62722381Y-53633810D01*
X62865238Y-53729048D01*
X62960476Y-53824286D01*
X63008095Y-53919524D01*
X63627143Y-62872857D02*
X63674762Y-62920476D01*
X63722381Y-63063333D01*
X63722381Y-63158571D01*
X63674762Y-63301429D01*
X63579524Y-63396667D01*
X63484286Y-63444286D01*
X63293810Y-63491905D01*
X63150952Y-63491905D01*
X62960476Y-63444286D01*
X62865238Y-63396667D01*
X62770000Y-63301429D01*
X62722381Y-63158571D01*
X62722381Y-63063333D01*
X62770000Y-62920476D01*
X62817619Y-62872857D01*
X62817619Y-62491905D02*
X62770000Y-62444286D01*
X62722381Y-62349048D01*
X62722381Y-62110952D01*
X62770000Y-62015714D01*
X62817619Y-61968095D01*
X62912857Y-61920476D01*
X63008095Y-61920476D01*
X63150952Y-61968095D01*
X63722381Y-62539524D01*
X63722381Y-61920476D01*
X62817619Y-61539524D02*
X62770000Y-61491905D01*
X62722381Y-61396667D01*
X62722381Y-61158571D01*
X62770000Y-61063333D01*
X62817619Y-61015714D01*
X62912857Y-60968095D01*
X63008095Y-60968095D01*
X63150952Y-61015714D01*
X63722381Y-61587143D01*
X63722381Y-60968095D01*
X63627143Y-70492857D02*
X63674762Y-70540476D01*
X63722381Y-70683333D01*
X63722381Y-70778571D01*
X63674762Y-70921429D01*
X63579524Y-71016667D01*
X63484286Y-71064286D01*
X63293810Y-71111905D01*
X63150952Y-71111905D01*
X62960476Y-71064286D01*
X62865238Y-71016667D01*
X62770000Y-70921429D01*
X62722381Y-70778571D01*
X62722381Y-70683333D01*
X62770000Y-70540476D01*
X62817619Y-70492857D01*
X62817619Y-70111905D02*
X62770000Y-70064286D01*
X62722381Y-69969048D01*
X62722381Y-69730952D01*
X62770000Y-69635714D01*
X62817619Y-69588095D01*
X62912857Y-69540476D01*
X63008095Y-69540476D01*
X63150952Y-69588095D01*
X63722381Y-70159524D01*
X63722381Y-69540476D01*
X62722381Y-69207143D02*
X62722381Y-68588095D01*
X63103333Y-68921429D01*
X63103333Y-68778571D01*
X63150952Y-68683333D01*
X63198571Y-68635714D01*
X63293810Y-68588095D01*
X63531905Y-68588095D01*
X63627143Y-68635714D01*
X63674762Y-68683333D01*
X63722381Y-68778571D01*
X63722381Y-69064286D01*
X63674762Y-69159524D01*
X63627143Y-69207143D01*
X63627143Y-78112857D02*
X63674762Y-78160476D01*
X63722381Y-78303333D01*
X63722381Y-78398571D01*
X63674762Y-78541429D01*
X63579524Y-78636667D01*
X63484286Y-78684286D01*
X63293810Y-78731905D01*
X63150952Y-78731905D01*
X62960476Y-78684286D01*
X62865238Y-78636667D01*
X62770000Y-78541429D01*
X62722381Y-78398571D01*
X62722381Y-78303333D01*
X62770000Y-78160476D01*
X62817619Y-78112857D01*
X62817619Y-77731905D02*
X62770000Y-77684286D01*
X62722381Y-77589048D01*
X62722381Y-77350952D01*
X62770000Y-77255714D01*
X62817619Y-77208095D01*
X62912857Y-77160476D01*
X63008095Y-77160476D01*
X63150952Y-77208095D01*
X63722381Y-77779524D01*
X63722381Y-77160476D01*
X63055714Y-76303333D02*
X63722381Y-76303333D01*
X62674762Y-76541429D02*
X63389048Y-76779524D01*
X63389048Y-76160476D01*
X76787143Y-78112857D02*
X76834762Y-78160476D01*
X76882381Y-78303333D01*
X76882381Y-78398571D01*
X76834762Y-78541429D01*
X76739524Y-78636667D01*
X76644286Y-78684286D01*
X76453810Y-78731905D01*
X76310952Y-78731905D01*
X76120476Y-78684286D01*
X76025238Y-78636667D01*
X75930000Y-78541429D01*
X75882381Y-78398571D01*
X75882381Y-78303333D01*
X75930000Y-78160476D01*
X75977619Y-78112857D01*
X75977619Y-77731905D02*
X75930000Y-77684286D01*
X75882381Y-77589048D01*
X75882381Y-77350952D01*
X75930000Y-77255714D01*
X75977619Y-77208095D01*
X76072857Y-77160476D01*
X76168095Y-77160476D01*
X76310952Y-77208095D01*
X76882381Y-77779524D01*
X76882381Y-77160476D01*
X75882381Y-76255714D02*
X75882381Y-76731905D01*
X76358571Y-76779524D01*
X76310952Y-76731905D01*
X76263333Y-76636667D01*
X76263333Y-76398571D01*
X76310952Y-76303333D01*
X76358571Y-76255714D01*
X76453810Y-76208095D01*
X76691905Y-76208095D01*
X76787143Y-76255714D01*
X76834762Y-76303333D01*
X76882381Y-76398571D01*
X76882381Y-76636667D01*
X76834762Y-76731905D01*
X76787143Y-76779524D01*
X76787143Y-70492857D02*
X76834762Y-70540476D01*
X76882381Y-70683333D01*
X76882381Y-70778571D01*
X76834762Y-70921429D01*
X76739524Y-71016667D01*
X76644286Y-71064286D01*
X76453810Y-71111905D01*
X76310952Y-71111905D01*
X76120476Y-71064286D01*
X76025238Y-71016667D01*
X75930000Y-70921429D01*
X75882381Y-70778571D01*
X75882381Y-70683333D01*
X75930000Y-70540476D01*
X75977619Y-70492857D01*
X75977619Y-70111905D02*
X75930000Y-70064286D01*
X75882381Y-69969048D01*
X75882381Y-69730952D01*
X75930000Y-69635714D01*
X75977619Y-69588095D01*
X76072857Y-69540476D01*
X76168095Y-69540476D01*
X76310952Y-69588095D01*
X76882381Y-70159524D01*
X76882381Y-69540476D01*
X75882381Y-68683333D02*
X75882381Y-68873810D01*
X75930000Y-68969048D01*
X75977619Y-69016667D01*
X76120476Y-69111905D01*
X76310952Y-69159524D01*
X76691905Y-69159524D01*
X76787143Y-69111905D01*
X76834762Y-69064286D01*
X76882381Y-68969048D01*
X76882381Y-68778571D01*
X76834762Y-68683333D01*
X76787143Y-68635714D01*
X76691905Y-68588095D01*
X76453810Y-68588095D01*
X76358571Y-68635714D01*
X76310952Y-68683333D01*
X76263333Y-68778571D01*
X76263333Y-68969048D01*
X76310952Y-69064286D01*
X76358571Y-69111905D01*
X76453810Y-69159524D01*
X76787143Y-62872857D02*
X76834762Y-62920476D01*
X76882381Y-63063333D01*
X76882381Y-63158571D01*
X76834762Y-63301429D01*
X76739524Y-63396667D01*
X76644286Y-63444286D01*
X76453810Y-63491905D01*
X76310952Y-63491905D01*
X76120476Y-63444286D01*
X76025238Y-63396667D01*
X75930000Y-63301429D01*
X75882381Y-63158571D01*
X75882381Y-63063333D01*
X75930000Y-62920476D01*
X75977619Y-62872857D01*
X75977619Y-62491905D02*
X75930000Y-62444286D01*
X75882381Y-62349048D01*
X75882381Y-62110952D01*
X75930000Y-62015714D01*
X75977619Y-61968095D01*
X76072857Y-61920476D01*
X76168095Y-61920476D01*
X76310952Y-61968095D01*
X76882381Y-62539524D01*
X76882381Y-61920476D01*
X75882381Y-61587143D02*
X75882381Y-60920476D01*
X76882381Y-61349048D01*
X76787143Y-55252857D02*
X76834762Y-55300476D01*
X76882381Y-55443333D01*
X76882381Y-55538571D01*
X76834762Y-55681429D01*
X76739524Y-55776667D01*
X76644286Y-55824286D01*
X76453810Y-55871905D01*
X76310952Y-55871905D01*
X76120476Y-55824286D01*
X76025238Y-55776667D01*
X75930000Y-55681429D01*
X75882381Y-55538571D01*
X75882381Y-55443333D01*
X75930000Y-55300476D01*
X75977619Y-55252857D01*
X75977619Y-54871905D02*
X75930000Y-54824286D01*
X75882381Y-54729048D01*
X75882381Y-54490952D01*
X75930000Y-54395714D01*
X75977619Y-54348095D01*
X76072857Y-54300476D01*
X76168095Y-54300476D01*
X76310952Y-54348095D01*
X76882381Y-54919524D01*
X76882381Y-54300476D01*
X76310952Y-53729048D02*
X76263333Y-53824286D01*
X76215714Y-53871905D01*
X76120476Y-53919524D01*
X76072857Y-53919524D01*
X75977619Y-53871905D01*
X75930000Y-53824286D01*
X75882381Y-53729048D01*
X75882381Y-53538571D01*
X75930000Y-53443333D01*
X75977619Y-53395714D01*
X76072857Y-53348095D01*
X76120476Y-53348095D01*
X76215714Y-53395714D01*
X76263333Y-53443333D01*
X76310952Y-53538571D01*
X76310952Y-53729048D01*
X76358571Y-53824286D01*
X76406190Y-53871905D01*
X76501429Y-53919524D01*
X76691905Y-53919524D01*
X76787143Y-53871905D01*
X76834762Y-53824286D01*
X76882381Y-53729048D01*
X76882381Y-53538571D01*
X76834762Y-53443333D01*
X76787143Y-53395714D01*
X76691905Y-53348095D01*
X76501429Y-53348095D01*
X76406190Y-53395714D01*
X76358571Y-53443333D01*
X76310952Y-53538571D01*
X76787143Y-47632857D02*
X76834762Y-47680476D01*
X76882381Y-47823333D01*
X76882381Y-47918571D01*
X76834762Y-48061429D01*
X76739524Y-48156667D01*
X76644286Y-48204286D01*
X76453810Y-48251905D01*
X76310952Y-48251905D01*
X76120476Y-48204286D01*
X76025238Y-48156667D01*
X75930000Y-48061429D01*
X75882381Y-47918571D01*
X75882381Y-47823333D01*
X75930000Y-47680476D01*
X75977619Y-47632857D01*
X75977619Y-47251905D02*
X75930000Y-47204286D01*
X75882381Y-47109048D01*
X75882381Y-46870952D01*
X75930000Y-46775714D01*
X75977619Y-46728095D01*
X76072857Y-46680476D01*
X76168095Y-46680476D01*
X76310952Y-46728095D01*
X76882381Y-47299524D01*
X76882381Y-46680476D01*
X76882381Y-46204286D02*
X76882381Y-46013810D01*
X76834762Y-45918571D01*
X76787143Y-45870952D01*
X76644286Y-45775714D01*
X76453810Y-45728095D01*
X76072857Y-45728095D01*
X75977619Y-45775714D01*
X75930000Y-45823333D01*
X75882381Y-45918571D01*
X75882381Y-46109048D01*
X75930000Y-46204286D01*
X75977619Y-46251905D01*
X76072857Y-46299524D01*
X76310952Y-46299524D01*
X76406190Y-46251905D01*
X76453810Y-46204286D01*
X76501429Y-46109048D01*
X76501429Y-45918571D01*
X76453810Y-45823333D01*
X76406190Y-45775714D01*
X76310952Y-45728095D01*
X76787143Y-40012857D02*
X76834762Y-40060476D01*
X76882381Y-40203333D01*
X76882381Y-40298571D01*
X76834762Y-40441429D01*
X76739524Y-40536667D01*
X76644286Y-40584286D01*
X76453810Y-40631905D01*
X76310952Y-40631905D01*
X76120476Y-40584286D01*
X76025238Y-40536667D01*
X75930000Y-40441429D01*
X75882381Y-40298571D01*
X75882381Y-40203333D01*
X75930000Y-40060476D01*
X75977619Y-40012857D01*
X75882381Y-39679524D02*
X75882381Y-39060476D01*
X76263333Y-39393810D01*
X76263333Y-39250952D01*
X76310952Y-39155714D01*
X76358571Y-39108095D01*
X76453810Y-39060476D01*
X76691905Y-39060476D01*
X76787143Y-39108095D01*
X76834762Y-39155714D01*
X76882381Y-39250952D01*
X76882381Y-39536667D01*
X76834762Y-39631905D01*
X76787143Y-39679524D01*
X75882381Y-38441429D02*
X75882381Y-38346190D01*
X75930000Y-38250952D01*
X75977619Y-38203333D01*
X76072857Y-38155714D01*
X76263333Y-38108095D01*
X76501429Y-38108095D01*
X76691905Y-38155714D01*
X76787143Y-38203333D01*
X76834762Y-38250952D01*
X76882381Y-38346190D01*
X76882381Y-38441429D01*
X76834762Y-38536667D01*
X76787143Y-38584286D01*
X76691905Y-38631905D01*
X76501429Y-38679524D01*
X76263333Y-38679524D01*
X76072857Y-38631905D01*
X75977619Y-38584286D01*
X75930000Y-38536667D01*
X75882381Y-38441429D01*
X76787143Y-32392857D02*
X76834762Y-32440476D01*
X76882381Y-32583333D01*
X76882381Y-32678571D01*
X76834762Y-32821429D01*
X76739524Y-32916667D01*
X76644286Y-32964286D01*
X76453810Y-33011905D01*
X76310952Y-33011905D01*
X76120476Y-32964286D01*
X76025238Y-32916667D01*
X75930000Y-32821429D01*
X75882381Y-32678571D01*
X75882381Y-32583333D01*
X75930000Y-32440476D01*
X75977619Y-32392857D01*
X75882381Y-32059524D02*
X75882381Y-31440476D01*
X76263333Y-31773810D01*
X76263333Y-31630952D01*
X76310952Y-31535714D01*
X76358571Y-31488095D01*
X76453810Y-31440476D01*
X76691905Y-31440476D01*
X76787143Y-31488095D01*
X76834762Y-31535714D01*
X76882381Y-31630952D01*
X76882381Y-31916667D01*
X76834762Y-32011905D01*
X76787143Y-32059524D01*
X76882381Y-30488095D02*
X76882381Y-31059524D01*
X76882381Y-30773810D02*
X75882381Y-30773810D01*
X76025238Y-30869048D01*
X76120476Y-30964286D01*
X76168095Y-31059524D01*
X76787143Y-24772857D02*
X76834762Y-24820476D01*
X76882381Y-24963333D01*
X76882381Y-25058571D01*
X76834762Y-25201429D01*
X76739524Y-25296667D01*
X76644286Y-25344286D01*
X76453810Y-25391905D01*
X76310952Y-25391905D01*
X76120476Y-25344286D01*
X76025238Y-25296667D01*
X75930000Y-25201429D01*
X75882381Y-25058571D01*
X75882381Y-24963333D01*
X75930000Y-24820476D01*
X75977619Y-24772857D01*
X75882381Y-24439524D02*
X75882381Y-23820476D01*
X76263333Y-24153810D01*
X76263333Y-24010952D01*
X76310952Y-23915714D01*
X76358571Y-23868095D01*
X76453810Y-23820476D01*
X76691905Y-23820476D01*
X76787143Y-23868095D01*
X76834762Y-23915714D01*
X76882381Y-24010952D01*
X76882381Y-24296667D01*
X76834762Y-24391905D01*
X76787143Y-24439524D01*
X75977619Y-23439524D02*
X75930000Y-23391905D01*
X75882381Y-23296667D01*
X75882381Y-23058571D01*
X75930000Y-22963333D01*
X75977619Y-22915714D01*
X76072857Y-22868095D01*
X76168095Y-22868095D01*
X76310952Y-22915714D01*
X76882381Y-23487143D01*
X76882381Y-22868095D01*
X83947143Y-24772857D02*
X83994762Y-24820476D01*
X84042381Y-24963333D01*
X84042381Y-25058571D01*
X83994762Y-25201429D01*
X83899524Y-25296667D01*
X83804286Y-25344286D01*
X83613810Y-25391905D01*
X83470952Y-25391905D01*
X83280476Y-25344286D01*
X83185238Y-25296667D01*
X83090000Y-25201429D01*
X83042381Y-25058571D01*
X83042381Y-24963333D01*
X83090000Y-24820476D01*
X83137619Y-24772857D01*
X83042381Y-24439524D02*
X83042381Y-23820476D01*
X83423333Y-24153810D01*
X83423333Y-24010952D01*
X83470952Y-23915714D01*
X83518571Y-23868095D01*
X83613810Y-23820476D01*
X83851905Y-23820476D01*
X83947143Y-23868095D01*
X83994762Y-23915714D01*
X84042381Y-24010952D01*
X84042381Y-24296667D01*
X83994762Y-24391905D01*
X83947143Y-24439524D01*
X83042381Y-23487143D02*
X83042381Y-22868095D01*
X83423333Y-23201429D01*
X83423333Y-23058571D01*
X83470952Y-22963333D01*
X83518571Y-22915714D01*
X83613810Y-22868095D01*
X83851905Y-22868095D01*
X83947143Y-22915714D01*
X83994762Y-22963333D01*
X84042381Y-23058571D01*
X84042381Y-23344286D01*
X83994762Y-23439524D01*
X83947143Y-23487143D01*
X83947143Y-32392857D02*
X83994762Y-32440476D01*
X84042381Y-32583333D01*
X84042381Y-32678571D01*
X83994762Y-32821429D01*
X83899524Y-32916667D01*
X83804286Y-32964286D01*
X83613810Y-33011905D01*
X83470952Y-33011905D01*
X83280476Y-32964286D01*
X83185238Y-32916667D01*
X83090000Y-32821429D01*
X83042381Y-32678571D01*
X83042381Y-32583333D01*
X83090000Y-32440476D01*
X83137619Y-32392857D01*
X83042381Y-32059524D02*
X83042381Y-31440476D01*
X83423333Y-31773810D01*
X83423333Y-31630952D01*
X83470952Y-31535714D01*
X83518571Y-31488095D01*
X83613810Y-31440476D01*
X83851905Y-31440476D01*
X83947143Y-31488095D01*
X83994762Y-31535714D01*
X84042381Y-31630952D01*
X84042381Y-31916667D01*
X83994762Y-32011905D01*
X83947143Y-32059524D01*
X83375714Y-30583333D02*
X84042381Y-30583333D01*
X82994762Y-30821429D02*
X83709048Y-31059524D01*
X83709048Y-30440476D01*
X83947143Y-40012857D02*
X83994762Y-40060476D01*
X84042381Y-40203333D01*
X84042381Y-40298571D01*
X83994762Y-40441429D01*
X83899524Y-40536667D01*
X83804286Y-40584286D01*
X83613810Y-40631905D01*
X83470952Y-40631905D01*
X83280476Y-40584286D01*
X83185238Y-40536667D01*
X83090000Y-40441429D01*
X83042381Y-40298571D01*
X83042381Y-40203333D01*
X83090000Y-40060476D01*
X83137619Y-40012857D01*
X83042381Y-39679524D02*
X83042381Y-39060476D01*
X83423333Y-39393810D01*
X83423333Y-39250952D01*
X83470952Y-39155714D01*
X83518571Y-39108095D01*
X83613810Y-39060476D01*
X83851905Y-39060476D01*
X83947143Y-39108095D01*
X83994762Y-39155714D01*
X84042381Y-39250952D01*
X84042381Y-39536667D01*
X83994762Y-39631905D01*
X83947143Y-39679524D01*
X83042381Y-38155714D02*
X83042381Y-38631905D01*
X83518571Y-38679524D01*
X83470952Y-38631905D01*
X83423333Y-38536667D01*
X83423333Y-38298571D01*
X83470952Y-38203333D01*
X83518571Y-38155714D01*
X83613810Y-38108095D01*
X83851905Y-38108095D01*
X83947143Y-38155714D01*
X83994762Y-38203333D01*
X84042381Y-38298571D01*
X84042381Y-38536667D01*
X83994762Y-38631905D01*
X83947143Y-38679524D01*
X83947143Y-47632857D02*
X83994762Y-47680476D01*
X84042381Y-47823333D01*
X84042381Y-47918571D01*
X83994762Y-48061429D01*
X83899524Y-48156667D01*
X83804286Y-48204286D01*
X83613810Y-48251905D01*
X83470952Y-48251905D01*
X83280476Y-48204286D01*
X83185238Y-48156667D01*
X83090000Y-48061429D01*
X83042381Y-47918571D01*
X83042381Y-47823333D01*
X83090000Y-47680476D01*
X83137619Y-47632857D01*
X83042381Y-47299524D02*
X83042381Y-46680476D01*
X83423333Y-47013810D01*
X83423333Y-46870952D01*
X83470952Y-46775714D01*
X83518571Y-46728095D01*
X83613810Y-46680476D01*
X83851905Y-46680476D01*
X83947143Y-46728095D01*
X83994762Y-46775714D01*
X84042381Y-46870952D01*
X84042381Y-47156667D01*
X83994762Y-47251905D01*
X83947143Y-47299524D01*
X83042381Y-45823333D02*
X83042381Y-46013810D01*
X83090000Y-46109048D01*
X83137619Y-46156667D01*
X83280476Y-46251905D01*
X83470952Y-46299524D01*
X83851905Y-46299524D01*
X83947143Y-46251905D01*
X83994762Y-46204286D01*
X84042381Y-46109048D01*
X84042381Y-45918571D01*
X83994762Y-45823333D01*
X83947143Y-45775714D01*
X83851905Y-45728095D01*
X83613810Y-45728095D01*
X83518571Y-45775714D01*
X83470952Y-45823333D01*
X83423333Y-45918571D01*
X83423333Y-46109048D01*
X83470952Y-46204286D01*
X83518571Y-46251905D01*
X83613810Y-46299524D01*
X83947143Y-55252857D02*
X83994762Y-55300476D01*
X84042381Y-55443333D01*
X84042381Y-55538571D01*
X83994762Y-55681429D01*
X83899524Y-55776667D01*
X83804286Y-55824286D01*
X83613810Y-55871905D01*
X83470952Y-55871905D01*
X83280476Y-55824286D01*
X83185238Y-55776667D01*
X83090000Y-55681429D01*
X83042381Y-55538571D01*
X83042381Y-55443333D01*
X83090000Y-55300476D01*
X83137619Y-55252857D01*
X83042381Y-54919524D02*
X83042381Y-54300476D01*
X83423333Y-54633810D01*
X83423333Y-54490952D01*
X83470952Y-54395714D01*
X83518571Y-54348095D01*
X83613810Y-54300476D01*
X83851905Y-54300476D01*
X83947143Y-54348095D01*
X83994762Y-54395714D01*
X84042381Y-54490952D01*
X84042381Y-54776667D01*
X83994762Y-54871905D01*
X83947143Y-54919524D01*
X83042381Y-53967143D02*
X83042381Y-53300476D01*
X84042381Y-53729048D01*
X83947143Y-62872857D02*
X83994762Y-62920476D01*
X84042381Y-63063333D01*
X84042381Y-63158571D01*
X83994762Y-63301429D01*
X83899524Y-63396667D01*
X83804286Y-63444286D01*
X83613810Y-63491905D01*
X83470952Y-63491905D01*
X83280476Y-63444286D01*
X83185238Y-63396667D01*
X83090000Y-63301429D01*
X83042381Y-63158571D01*
X83042381Y-63063333D01*
X83090000Y-62920476D01*
X83137619Y-62872857D01*
X83042381Y-62539524D02*
X83042381Y-61920476D01*
X83423333Y-62253810D01*
X83423333Y-62110952D01*
X83470952Y-62015714D01*
X83518571Y-61968095D01*
X83613810Y-61920476D01*
X83851905Y-61920476D01*
X83947143Y-61968095D01*
X83994762Y-62015714D01*
X84042381Y-62110952D01*
X84042381Y-62396667D01*
X83994762Y-62491905D01*
X83947143Y-62539524D01*
X83470952Y-61349048D02*
X83423333Y-61444286D01*
X83375714Y-61491905D01*
X83280476Y-61539524D01*
X83232857Y-61539524D01*
X83137619Y-61491905D01*
X83090000Y-61444286D01*
X83042381Y-61349048D01*
X83042381Y-61158571D01*
X83090000Y-61063333D01*
X83137619Y-61015714D01*
X83232857Y-60968095D01*
X83280476Y-60968095D01*
X83375714Y-61015714D01*
X83423333Y-61063333D01*
X83470952Y-61158571D01*
X83470952Y-61349048D01*
X83518571Y-61444286D01*
X83566190Y-61491905D01*
X83661429Y-61539524D01*
X83851905Y-61539524D01*
X83947143Y-61491905D01*
X83994762Y-61444286D01*
X84042381Y-61349048D01*
X84042381Y-61158571D01*
X83994762Y-61063333D01*
X83947143Y-61015714D01*
X83851905Y-60968095D01*
X83661429Y-60968095D01*
X83566190Y-61015714D01*
X83518571Y-61063333D01*
X83470952Y-61158571D01*
X83947143Y-70492857D02*
X83994762Y-70540476D01*
X84042381Y-70683333D01*
X84042381Y-70778571D01*
X83994762Y-70921429D01*
X83899524Y-71016667D01*
X83804286Y-71064286D01*
X83613810Y-71111905D01*
X83470952Y-71111905D01*
X83280476Y-71064286D01*
X83185238Y-71016667D01*
X83090000Y-70921429D01*
X83042381Y-70778571D01*
X83042381Y-70683333D01*
X83090000Y-70540476D01*
X83137619Y-70492857D01*
X83042381Y-70159524D02*
X83042381Y-69540476D01*
X83423333Y-69873810D01*
X83423333Y-69730952D01*
X83470952Y-69635714D01*
X83518571Y-69588095D01*
X83613810Y-69540476D01*
X83851905Y-69540476D01*
X83947143Y-69588095D01*
X83994762Y-69635714D01*
X84042381Y-69730952D01*
X84042381Y-70016667D01*
X83994762Y-70111905D01*
X83947143Y-70159524D01*
X84042381Y-69064286D02*
X84042381Y-68873810D01*
X83994762Y-68778571D01*
X83947143Y-68730952D01*
X83804286Y-68635714D01*
X83613810Y-68588095D01*
X83232857Y-68588095D01*
X83137619Y-68635714D01*
X83090000Y-68683333D01*
X83042381Y-68778571D01*
X83042381Y-68969048D01*
X83090000Y-69064286D01*
X83137619Y-69111905D01*
X83232857Y-69159524D01*
X83470952Y-69159524D01*
X83566190Y-69111905D01*
X83613810Y-69064286D01*
X83661429Y-68969048D01*
X83661429Y-68778571D01*
X83613810Y-68683333D01*
X83566190Y-68635714D01*
X83470952Y-68588095D01*
X83947143Y-78112857D02*
X83994762Y-78160476D01*
X84042381Y-78303333D01*
X84042381Y-78398571D01*
X83994762Y-78541429D01*
X83899524Y-78636667D01*
X83804286Y-78684286D01*
X83613810Y-78731905D01*
X83470952Y-78731905D01*
X83280476Y-78684286D01*
X83185238Y-78636667D01*
X83090000Y-78541429D01*
X83042381Y-78398571D01*
X83042381Y-78303333D01*
X83090000Y-78160476D01*
X83137619Y-78112857D01*
X83375714Y-77255714D02*
X84042381Y-77255714D01*
X82994762Y-77493810D02*
X83709048Y-77731905D01*
X83709048Y-77112857D01*
X83042381Y-76541429D02*
X83042381Y-76446190D01*
X83090000Y-76350952D01*
X83137619Y-76303333D01*
X83232857Y-76255714D01*
X83423333Y-76208095D01*
X83661429Y-76208095D01*
X83851905Y-76255714D01*
X83947143Y-76303333D01*
X83994762Y-76350952D01*
X84042381Y-76446190D01*
X84042381Y-76541429D01*
X83994762Y-76636667D01*
X83947143Y-76684286D01*
X83851905Y-76731905D01*
X83661429Y-76779524D01*
X83423333Y-76779524D01*
X83232857Y-76731905D01*
X83137619Y-76684286D01*
X83090000Y-76636667D01*
X83042381Y-76541429D01*
X97107143Y-78112857D02*
X97154762Y-78160476D01*
X97202381Y-78303333D01*
X97202381Y-78398571D01*
X97154762Y-78541429D01*
X97059524Y-78636667D01*
X96964286Y-78684286D01*
X96773810Y-78731905D01*
X96630952Y-78731905D01*
X96440476Y-78684286D01*
X96345238Y-78636667D01*
X96250000Y-78541429D01*
X96202381Y-78398571D01*
X96202381Y-78303333D01*
X96250000Y-78160476D01*
X96297619Y-78112857D01*
X96535714Y-77255714D02*
X97202381Y-77255714D01*
X96154762Y-77493810D02*
X96869048Y-77731905D01*
X96869048Y-77112857D01*
X97202381Y-76208095D02*
X97202381Y-76779524D01*
X97202381Y-76493810D02*
X96202381Y-76493810D01*
X96345238Y-76589048D01*
X96440476Y-76684286D01*
X96488095Y-76779524D01*
X97107143Y-70492857D02*
X97154762Y-70540476D01*
X97202381Y-70683333D01*
X97202381Y-70778571D01*
X97154762Y-70921429D01*
X97059524Y-71016667D01*
X96964286Y-71064286D01*
X96773810Y-71111905D01*
X96630952Y-71111905D01*
X96440476Y-71064286D01*
X96345238Y-71016667D01*
X96250000Y-70921429D01*
X96202381Y-70778571D01*
X96202381Y-70683333D01*
X96250000Y-70540476D01*
X96297619Y-70492857D01*
X96535714Y-69635714D02*
X97202381Y-69635714D01*
X96154762Y-69873810D02*
X96869048Y-70111905D01*
X96869048Y-69492857D01*
X96297619Y-69159524D02*
X96250000Y-69111905D01*
X96202381Y-69016667D01*
X96202381Y-68778571D01*
X96250000Y-68683333D01*
X96297619Y-68635714D01*
X96392857Y-68588095D01*
X96488095Y-68588095D01*
X96630952Y-68635714D01*
X97202381Y-69207143D01*
X97202381Y-68588095D01*
X97107143Y-62872857D02*
X97154762Y-62920476D01*
X97202381Y-63063333D01*
X97202381Y-63158571D01*
X97154762Y-63301429D01*
X97059524Y-63396667D01*
X96964286Y-63444286D01*
X96773810Y-63491905D01*
X96630952Y-63491905D01*
X96440476Y-63444286D01*
X96345238Y-63396667D01*
X96250000Y-63301429D01*
X96202381Y-63158571D01*
X96202381Y-63063333D01*
X96250000Y-62920476D01*
X96297619Y-62872857D01*
X96535714Y-62015714D02*
X97202381Y-62015714D01*
X96154762Y-62253810D02*
X96869048Y-62491905D01*
X96869048Y-61872857D01*
X96202381Y-61587143D02*
X96202381Y-60968095D01*
X96583333Y-61301429D01*
X96583333Y-61158571D01*
X96630952Y-61063333D01*
X96678571Y-61015714D01*
X96773810Y-60968095D01*
X97011905Y-60968095D01*
X97107143Y-61015714D01*
X97154762Y-61063333D01*
X97202381Y-61158571D01*
X97202381Y-61444286D01*
X97154762Y-61539524D01*
X97107143Y-61587143D01*
X97107143Y-55252857D02*
X97154762Y-55300476D01*
X97202381Y-55443333D01*
X97202381Y-55538571D01*
X97154762Y-55681429D01*
X97059524Y-55776667D01*
X96964286Y-55824286D01*
X96773810Y-55871905D01*
X96630952Y-55871905D01*
X96440476Y-55824286D01*
X96345238Y-55776667D01*
X96250000Y-55681429D01*
X96202381Y-55538571D01*
X96202381Y-55443333D01*
X96250000Y-55300476D01*
X96297619Y-55252857D01*
X96535714Y-54395714D02*
X97202381Y-54395714D01*
X96154762Y-54633810D02*
X96869048Y-54871905D01*
X96869048Y-54252857D01*
X96535714Y-53443333D02*
X97202381Y-53443333D01*
X96154762Y-53681429D02*
X96869048Y-53919524D01*
X96869048Y-53300476D01*
X97107143Y-47632857D02*
X97154762Y-47680476D01*
X97202381Y-47823333D01*
X97202381Y-47918571D01*
X97154762Y-48061429D01*
X97059524Y-48156667D01*
X96964286Y-48204286D01*
X96773810Y-48251905D01*
X96630952Y-48251905D01*
X96440476Y-48204286D01*
X96345238Y-48156667D01*
X96250000Y-48061429D01*
X96202381Y-47918571D01*
X96202381Y-47823333D01*
X96250000Y-47680476D01*
X96297619Y-47632857D01*
X96535714Y-46775714D02*
X97202381Y-46775714D01*
X96154762Y-47013810D02*
X96869048Y-47251905D01*
X96869048Y-46632857D01*
X96202381Y-45775714D02*
X96202381Y-46251905D01*
X96678571Y-46299524D01*
X96630952Y-46251905D01*
X96583333Y-46156667D01*
X96583333Y-45918571D01*
X96630952Y-45823333D01*
X96678571Y-45775714D01*
X96773810Y-45728095D01*
X97011905Y-45728095D01*
X97107143Y-45775714D01*
X97154762Y-45823333D01*
X97202381Y-45918571D01*
X97202381Y-46156667D01*
X97154762Y-46251905D01*
X97107143Y-46299524D01*
X97107143Y-40012857D02*
X97154762Y-40060476D01*
X97202381Y-40203333D01*
X97202381Y-40298571D01*
X97154762Y-40441429D01*
X97059524Y-40536667D01*
X96964286Y-40584286D01*
X96773810Y-40631905D01*
X96630952Y-40631905D01*
X96440476Y-40584286D01*
X96345238Y-40536667D01*
X96250000Y-40441429D01*
X96202381Y-40298571D01*
X96202381Y-40203333D01*
X96250000Y-40060476D01*
X96297619Y-40012857D01*
X96535714Y-39155714D02*
X97202381Y-39155714D01*
X96154762Y-39393810D02*
X96869048Y-39631905D01*
X96869048Y-39012857D01*
X96202381Y-38203333D02*
X96202381Y-38393810D01*
X96250000Y-38489048D01*
X96297619Y-38536667D01*
X96440476Y-38631905D01*
X96630952Y-38679524D01*
X97011905Y-38679524D01*
X97107143Y-38631905D01*
X97154762Y-38584286D01*
X97202381Y-38489048D01*
X97202381Y-38298571D01*
X97154762Y-38203333D01*
X97107143Y-38155714D01*
X97011905Y-38108095D01*
X96773810Y-38108095D01*
X96678571Y-38155714D01*
X96630952Y-38203333D01*
X96583333Y-38298571D01*
X96583333Y-38489048D01*
X96630952Y-38584286D01*
X96678571Y-38631905D01*
X96773810Y-38679524D01*
X97107143Y-32392857D02*
X97154762Y-32440476D01*
X97202381Y-32583333D01*
X97202381Y-32678571D01*
X97154762Y-32821429D01*
X97059524Y-32916667D01*
X96964286Y-32964286D01*
X96773810Y-33011905D01*
X96630952Y-33011905D01*
X96440476Y-32964286D01*
X96345238Y-32916667D01*
X96250000Y-32821429D01*
X96202381Y-32678571D01*
X96202381Y-32583333D01*
X96250000Y-32440476D01*
X96297619Y-32392857D01*
X96535714Y-31535714D02*
X97202381Y-31535714D01*
X96154762Y-31773810D02*
X96869048Y-32011905D01*
X96869048Y-31392857D01*
X96202381Y-31107143D02*
X96202381Y-30440476D01*
X97202381Y-30869048D01*
X97107143Y-24772857D02*
X97154762Y-24820476D01*
X97202381Y-24963333D01*
X97202381Y-25058571D01*
X97154762Y-25201429D01*
X97059524Y-25296667D01*
X96964286Y-25344286D01*
X96773810Y-25391905D01*
X96630952Y-25391905D01*
X96440476Y-25344286D01*
X96345238Y-25296667D01*
X96250000Y-25201429D01*
X96202381Y-25058571D01*
X96202381Y-24963333D01*
X96250000Y-24820476D01*
X96297619Y-24772857D01*
X96535714Y-23915714D02*
X97202381Y-23915714D01*
X96154762Y-24153810D02*
X96869048Y-24391905D01*
X96869048Y-23772857D01*
X96630952Y-23249048D02*
X96583333Y-23344286D01*
X96535714Y-23391905D01*
X96440476Y-23439524D01*
X96392857Y-23439524D01*
X96297619Y-23391905D01*
X96250000Y-23344286D01*
X96202381Y-23249048D01*
X96202381Y-23058571D01*
X96250000Y-22963333D01*
X96297619Y-22915714D01*
X96392857Y-22868095D01*
X96440476Y-22868095D01*
X96535714Y-22915714D01*
X96583333Y-22963333D01*
X96630952Y-23058571D01*
X96630952Y-23249048D01*
X96678571Y-23344286D01*
X96726190Y-23391905D01*
X96821429Y-23439524D01*
X97011905Y-23439524D01*
X97107143Y-23391905D01*
X97154762Y-23344286D01*
X97202381Y-23249048D01*
X97202381Y-23058571D01*
X97154762Y-22963333D01*
X97107143Y-22915714D01*
X97011905Y-22868095D01*
X96821429Y-22868095D01*
X96726190Y-22915714D01*
X96678571Y-22963333D01*
X96630952Y-23058571D01*
X104267143Y-24772857D02*
X104314762Y-24820476D01*
X104362381Y-24963333D01*
X104362381Y-25058571D01*
X104314762Y-25201429D01*
X104219524Y-25296667D01*
X104124286Y-25344286D01*
X103933810Y-25391905D01*
X103790952Y-25391905D01*
X103600476Y-25344286D01*
X103505238Y-25296667D01*
X103410000Y-25201429D01*
X103362381Y-25058571D01*
X103362381Y-24963333D01*
X103410000Y-24820476D01*
X103457619Y-24772857D01*
X103695714Y-23915714D02*
X104362381Y-23915714D01*
X103314762Y-24153810D02*
X104029048Y-24391905D01*
X104029048Y-23772857D01*
X104362381Y-23344286D02*
X104362381Y-23153810D01*
X104314762Y-23058571D01*
X104267143Y-23010952D01*
X104124286Y-22915714D01*
X103933810Y-22868095D01*
X103552857Y-22868095D01*
X103457619Y-22915714D01*
X103410000Y-22963333D01*
X103362381Y-23058571D01*
X103362381Y-23249048D01*
X103410000Y-23344286D01*
X103457619Y-23391905D01*
X103552857Y-23439524D01*
X103790952Y-23439524D01*
X103886190Y-23391905D01*
X103933810Y-23344286D01*
X103981429Y-23249048D01*
X103981429Y-23058571D01*
X103933810Y-22963333D01*
X103886190Y-22915714D01*
X103790952Y-22868095D01*
X104267143Y-32392857D02*
X104314762Y-32440476D01*
X104362381Y-32583333D01*
X104362381Y-32678571D01*
X104314762Y-32821429D01*
X104219524Y-32916667D01*
X104124286Y-32964286D01*
X103933810Y-33011905D01*
X103790952Y-33011905D01*
X103600476Y-32964286D01*
X103505238Y-32916667D01*
X103410000Y-32821429D01*
X103362381Y-32678571D01*
X103362381Y-32583333D01*
X103410000Y-32440476D01*
X103457619Y-32392857D01*
X103362381Y-31488095D02*
X103362381Y-31964286D01*
X103838571Y-32011905D01*
X103790952Y-31964286D01*
X103743333Y-31869048D01*
X103743333Y-31630952D01*
X103790952Y-31535714D01*
X103838571Y-31488095D01*
X103933810Y-31440476D01*
X104171905Y-31440476D01*
X104267143Y-31488095D01*
X104314762Y-31535714D01*
X104362381Y-31630952D01*
X104362381Y-31869048D01*
X104314762Y-31964286D01*
X104267143Y-32011905D01*
X103362381Y-30821429D02*
X103362381Y-30726190D01*
X103410000Y-30630952D01*
X103457619Y-30583333D01*
X103552857Y-30535714D01*
X103743333Y-30488095D01*
X103981429Y-30488095D01*
X104171905Y-30535714D01*
X104267143Y-30583333D01*
X104314762Y-30630952D01*
X104362381Y-30726190D01*
X104362381Y-30821429D01*
X104314762Y-30916667D01*
X104267143Y-30964286D01*
X104171905Y-31011905D01*
X103981429Y-31059524D01*
X103743333Y-31059524D01*
X103552857Y-31011905D01*
X103457619Y-30964286D01*
X103410000Y-30916667D01*
X103362381Y-30821429D01*
X104267143Y-40012857D02*
X104314762Y-40060476D01*
X104362381Y-40203333D01*
X104362381Y-40298571D01*
X104314762Y-40441429D01*
X104219524Y-40536667D01*
X104124286Y-40584286D01*
X103933810Y-40631905D01*
X103790952Y-40631905D01*
X103600476Y-40584286D01*
X103505238Y-40536667D01*
X103410000Y-40441429D01*
X103362381Y-40298571D01*
X103362381Y-40203333D01*
X103410000Y-40060476D01*
X103457619Y-40012857D01*
X103362381Y-39108095D02*
X103362381Y-39584286D01*
X103838571Y-39631905D01*
X103790952Y-39584286D01*
X103743333Y-39489048D01*
X103743333Y-39250952D01*
X103790952Y-39155714D01*
X103838571Y-39108095D01*
X103933810Y-39060476D01*
X104171905Y-39060476D01*
X104267143Y-39108095D01*
X104314762Y-39155714D01*
X104362381Y-39250952D01*
X104362381Y-39489048D01*
X104314762Y-39584286D01*
X104267143Y-39631905D01*
X104362381Y-38108095D02*
X104362381Y-38679524D01*
X104362381Y-38393810D02*
X103362381Y-38393810D01*
X103505238Y-38489048D01*
X103600476Y-38584286D01*
X103648095Y-38679524D01*
X104267143Y-47632857D02*
X104314762Y-47680476D01*
X104362381Y-47823333D01*
X104362381Y-47918571D01*
X104314762Y-48061429D01*
X104219524Y-48156667D01*
X104124286Y-48204286D01*
X103933810Y-48251905D01*
X103790952Y-48251905D01*
X103600476Y-48204286D01*
X103505238Y-48156667D01*
X103410000Y-48061429D01*
X103362381Y-47918571D01*
X103362381Y-47823333D01*
X103410000Y-47680476D01*
X103457619Y-47632857D01*
X103362381Y-46728095D02*
X103362381Y-47204286D01*
X103838571Y-47251905D01*
X103790952Y-47204286D01*
X103743333Y-47109048D01*
X103743333Y-46870952D01*
X103790952Y-46775714D01*
X103838571Y-46728095D01*
X103933810Y-46680476D01*
X104171905Y-46680476D01*
X104267143Y-46728095D01*
X104314762Y-46775714D01*
X104362381Y-46870952D01*
X104362381Y-47109048D01*
X104314762Y-47204286D01*
X104267143Y-47251905D01*
X103457619Y-46299524D02*
X103410000Y-46251905D01*
X103362381Y-46156667D01*
X103362381Y-45918571D01*
X103410000Y-45823333D01*
X103457619Y-45775714D01*
X103552857Y-45728095D01*
X103648095Y-45728095D01*
X103790952Y-45775714D01*
X104362381Y-46347143D01*
X104362381Y-45728095D01*
X104267143Y-55252857D02*
X104314762Y-55300476D01*
X104362381Y-55443333D01*
X104362381Y-55538571D01*
X104314762Y-55681429D01*
X104219524Y-55776667D01*
X104124286Y-55824286D01*
X103933810Y-55871905D01*
X103790952Y-55871905D01*
X103600476Y-55824286D01*
X103505238Y-55776667D01*
X103410000Y-55681429D01*
X103362381Y-55538571D01*
X103362381Y-55443333D01*
X103410000Y-55300476D01*
X103457619Y-55252857D01*
X103362381Y-54348095D02*
X103362381Y-54824286D01*
X103838571Y-54871905D01*
X103790952Y-54824286D01*
X103743333Y-54729048D01*
X103743333Y-54490952D01*
X103790952Y-54395714D01*
X103838571Y-54348095D01*
X103933810Y-54300476D01*
X104171905Y-54300476D01*
X104267143Y-54348095D01*
X104314762Y-54395714D01*
X104362381Y-54490952D01*
X104362381Y-54729048D01*
X104314762Y-54824286D01*
X104267143Y-54871905D01*
X103362381Y-53967143D02*
X103362381Y-53348095D01*
X103743333Y-53681429D01*
X103743333Y-53538571D01*
X103790952Y-53443333D01*
X103838571Y-53395714D01*
X103933810Y-53348095D01*
X104171905Y-53348095D01*
X104267143Y-53395714D01*
X104314762Y-53443333D01*
X104362381Y-53538571D01*
X104362381Y-53824286D01*
X104314762Y-53919524D01*
X104267143Y-53967143D01*
X104267143Y-62872857D02*
X104314762Y-62920476D01*
X104362381Y-63063333D01*
X104362381Y-63158571D01*
X104314762Y-63301429D01*
X104219524Y-63396667D01*
X104124286Y-63444286D01*
X103933810Y-63491905D01*
X103790952Y-63491905D01*
X103600476Y-63444286D01*
X103505238Y-63396667D01*
X103410000Y-63301429D01*
X103362381Y-63158571D01*
X103362381Y-63063333D01*
X103410000Y-62920476D01*
X103457619Y-62872857D01*
X103362381Y-61968095D02*
X103362381Y-62444286D01*
X103838571Y-62491905D01*
X103790952Y-62444286D01*
X103743333Y-62349048D01*
X103743333Y-62110952D01*
X103790952Y-62015714D01*
X103838571Y-61968095D01*
X103933810Y-61920476D01*
X104171905Y-61920476D01*
X104267143Y-61968095D01*
X104314762Y-62015714D01*
X104362381Y-62110952D01*
X104362381Y-62349048D01*
X104314762Y-62444286D01*
X104267143Y-62491905D01*
X103695714Y-61063333D02*
X104362381Y-61063333D01*
X103314762Y-61301429D02*
X104029048Y-61539524D01*
X104029048Y-60920476D01*
X104267143Y-70492857D02*
X104314762Y-70540476D01*
X104362381Y-70683333D01*
X104362381Y-70778571D01*
X104314762Y-70921429D01*
X104219524Y-71016667D01*
X104124286Y-71064286D01*
X103933810Y-71111905D01*
X103790952Y-71111905D01*
X103600476Y-71064286D01*
X103505238Y-71016667D01*
X103410000Y-70921429D01*
X103362381Y-70778571D01*
X103362381Y-70683333D01*
X103410000Y-70540476D01*
X103457619Y-70492857D01*
X103362381Y-69588095D02*
X103362381Y-70064286D01*
X103838571Y-70111905D01*
X103790952Y-70064286D01*
X103743333Y-69969048D01*
X103743333Y-69730952D01*
X103790952Y-69635714D01*
X103838571Y-69588095D01*
X103933810Y-69540476D01*
X104171905Y-69540476D01*
X104267143Y-69588095D01*
X104314762Y-69635714D01*
X104362381Y-69730952D01*
X104362381Y-69969048D01*
X104314762Y-70064286D01*
X104267143Y-70111905D01*
X103362381Y-68635714D02*
X103362381Y-69111905D01*
X103838571Y-69159524D01*
X103790952Y-69111905D01*
X103743333Y-69016667D01*
X103743333Y-68778571D01*
X103790952Y-68683333D01*
X103838571Y-68635714D01*
X103933810Y-68588095D01*
X104171905Y-68588095D01*
X104267143Y-68635714D01*
X104314762Y-68683333D01*
X104362381Y-68778571D01*
X104362381Y-69016667D01*
X104314762Y-69111905D01*
X104267143Y-69159524D01*
X104267143Y-78112857D02*
X104314762Y-78160476D01*
X104362381Y-78303333D01*
X104362381Y-78398571D01*
X104314762Y-78541429D01*
X104219524Y-78636667D01*
X104124286Y-78684286D01*
X103933810Y-78731905D01*
X103790952Y-78731905D01*
X103600476Y-78684286D01*
X103505238Y-78636667D01*
X103410000Y-78541429D01*
X103362381Y-78398571D01*
X103362381Y-78303333D01*
X103410000Y-78160476D01*
X103457619Y-78112857D01*
X103362381Y-77208095D02*
X103362381Y-77684286D01*
X103838571Y-77731905D01*
X103790952Y-77684286D01*
X103743333Y-77589048D01*
X103743333Y-77350952D01*
X103790952Y-77255714D01*
X103838571Y-77208095D01*
X103933810Y-77160476D01*
X104171905Y-77160476D01*
X104267143Y-77208095D01*
X104314762Y-77255714D01*
X104362381Y-77350952D01*
X104362381Y-77589048D01*
X104314762Y-77684286D01*
X104267143Y-77731905D01*
X103362381Y-76303333D02*
X103362381Y-76493810D01*
X103410000Y-76589048D01*
X103457619Y-76636667D01*
X103600476Y-76731905D01*
X103790952Y-76779524D01*
X104171905Y-76779524D01*
X104267143Y-76731905D01*
X104314762Y-76684286D01*
X104362381Y-76589048D01*
X104362381Y-76398571D01*
X104314762Y-76303333D01*
X104267143Y-76255714D01*
X104171905Y-76208095D01*
X103933810Y-76208095D01*
X103838571Y-76255714D01*
X103790952Y-76303333D01*
X103743333Y-76398571D01*
X103743333Y-76589048D01*
X103790952Y-76684286D01*
X103838571Y-76731905D01*
X103933810Y-76779524D01*
X117427143Y-78112857D02*
X117474762Y-78160476D01*
X117522381Y-78303333D01*
X117522381Y-78398571D01*
X117474762Y-78541429D01*
X117379524Y-78636667D01*
X117284286Y-78684286D01*
X117093810Y-78731905D01*
X116950952Y-78731905D01*
X116760476Y-78684286D01*
X116665238Y-78636667D01*
X116570000Y-78541429D01*
X116522381Y-78398571D01*
X116522381Y-78303333D01*
X116570000Y-78160476D01*
X116617619Y-78112857D01*
X116522381Y-77208095D02*
X116522381Y-77684286D01*
X116998571Y-77731905D01*
X116950952Y-77684286D01*
X116903333Y-77589048D01*
X116903333Y-77350952D01*
X116950952Y-77255714D01*
X116998571Y-77208095D01*
X117093810Y-77160476D01*
X117331905Y-77160476D01*
X117427143Y-77208095D01*
X117474762Y-77255714D01*
X117522381Y-77350952D01*
X117522381Y-77589048D01*
X117474762Y-77684286D01*
X117427143Y-77731905D01*
X116522381Y-76827143D02*
X116522381Y-76160476D01*
X117522381Y-76589048D01*
X117427143Y-70492857D02*
X117474762Y-70540476D01*
X117522381Y-70683333D01*
X117522381Y-70778571D01*
X117474762Y-70921429D01*
X117379524Y-71016667D01*
X117284286Y-71064286D01*
X117093810Y-71111905D01*
X116950952Y-71111905D01*
X116760476Y-71064286D01*
X116665238Y-71016667D01*
X116570000Y-70921429D01*
X116522381Y-70778571D01*
X116522381Y-70683333D01*
X116570000Y-70540476D01*
X116617619Y-70492857D01*
X116522381Y-69588095D02*
X116522381Y-70064286D01*
X116998571Y-70111905D01*
X116950952Y-70064286D01*
X116903333Y-69969048D01*
X116903333Y-69730952D01*
X116950952Y-69635714D01*
X116998571Y-69588095D01*
X117093810Y-69540476D01*
X117331905Y-69540476D01*
X117427143Y-69588095D01*
X117474762Y-69635714D01*
X117522381Y-69730952D01*
X117522381Y-69969048D01*
X117474762Y-70064286D01*
X117427143Y-70111905D01*
X116950952Y-68969048D02*
X116903333Y-69064286D01*
X116855714Y-69111905D01*
X116760476Y-69159524D01*
X116712857Y-69159524D01*
X116617619Y-69111905D01*
X116570000Y-69064286D01*
X116522381Y-68969048D01*
X116522381Y-68778571D01*
X116570000Y-68683333D01*
X116617619Y-68635714D01*
X116712857Y-68588095D01*
X116760476Y-68588095D01*
X116855714Y-68635714D01*
X116903333Y-68683333D01*
X116950952Y-68778571D01*
X116950952Y-68969048D01*
X116998571Y-69064286D01*
X117046190Y-69111905D01*
X117141429Y-69159524D01*
X117331905Y-69159524D01*
X117427143Y-69111905D01*
X117474762Y-69064286D01*
X117522381Y-68969048D01*
X117522381Y-68778571D01*
X117474762Y-68683333D01*
X117427143Y-68635714D01*
X117331905Y-68588095D01*
X117141429Y-68588095D01*
X117046190Y-68635714D01*
X116998571Y-68683333D01*
X116950952Y-68778571D01*
X117427143Y-62872857D02*
X117474762Y-62920476D01*
X117522381Y-63063333D01*
X117522381Y-63158571D01*
X117474762Y-63301429D01*
X117379524Y-63396667D01*
X117284286Y-63444286D01*
X117093810Y-63491905D01*
X116950952Y-63491905D01*
X116760476Y-63444286D01*
X116665238Y-63396667D01*
X116570000Y-63301429D01*
X116522381Y-63158571D01*
X116522381Y-63063333D01*
X116570000Y-62920476D01*
X116617619Y-62872857D01*
X116522381Y-61968095D02*
X116522381Y-62444286D01*
X116998571Y-62491905D01*
X116950952Y-62444286D01*
X116903333Y-62349048D01*
X116903333Y-62110952D01*
X116950952Y-62015714D01*
X116998571Y-61968095D01*
X117093810Y-61920476D01*
X117331905Y-61920476D01*
X117427143Y-61968095D01*
X117474762Y-62015714D01*
X117522381Y-62110952D01*
X117522381Y-62349048D01*
X117474762Y-62444286D01*
X117427143Y-62491905D01*
X117522381Y-61444286D02*
X117522381Y-61253810D01*
X117474762Y-61158571D01*
X117427143Y-61110952D01*
X117284286Y-61015714D01*
X117093810Y-60968095D01*
X116712857Y-60968095D01*
X116617619Y-61015714D01*
X116570000Y-61063333D01*
X116522381Y-61158571D01*
X116522381Y-61349048D01*
X116570000Y-61444286D01*
X116617619Y-61491905D01*
X116712857Y-61539524D01*
X116950952Y-61539524D01*
X117046190Y-61491905D01*
X117093810Y-61444286D01*
X117141429Y-61349048D01*
X117141429Y-61158571D01*
X117093810Y-61063333D01*
X117046190Y-61015714D01*
X116950952Y-60968095D01*
X117427143Y-55252857D02*
X117474762Y-55300476D01*
X117522381Y-55443333D01*
X117522381Y-55538571D01*
X117474762Y-55681429D01*
X117379524Y-55776667D01*
X117284286Y-55824286D01*
X117093810Y-55871905D01*
X116950952Y-55871905D01*
X116760476Y-55824286D01*
X116665238Y-55776667D01*
X116570000Y-55681429D01*
X116522381Y-55538571D01*
X116522381Y-55443333D01*
X116570000Y-55300476D01*
X116617619Y-55252857D01*
X116522381Y-54395714D02*
X116522381Y-54586191D01*
X116570000Y-54681429D01*
X116617619Y-54729048D01*
X116760476Y-54824286D01*
X116950952Y-54871905D01*
X117331905Y-54871905D01*
X117427143Y-54824286D01*
X117474762Y-54776667D01*
X117522381Y-54681429D01*
X117522381Y-54490952D01*
X117474762Y-54395714D01*
X117427143Y-54348095D01*
X117331905Y-54300476D01*
X117093810Y-54300476D01*
X116998571Y-54348095D01*
X116950952Y-54395714D01*
X116903333Y-54490952D01*
X116903333Y-54681429D01*
X116950952Y-54776667D01*
X116998571Y-54824286D01*
X117093810Y-54871905D01*
X116522381Y-53681429D02*
X116522381Y-53586190D01*
X116570000Y-53490952D01*
X116617619Y-53443333D01*
X116712857Y-53395714D01*
X116903333Y-53348095D01*
X117141429Y-53348095D01*
X117331905Y-53395714D01*
X117427143Y-53443333D01*
X117474762Y-53490952D01*
X117522381Y-53586190D01*
X117522381Y-53681429D01*
X117474762Y-53776667D01*
X117427143Y-53824286D01*
X117331905Y-53871905D01*
X117141429Y-53919524D01*
X116903333Y-53919524D01*
X116712857Y-53871905D01*
X116617619Y-53824286D01*
X116570000Y-53776667D01*
X116522381Y-53681429D01*
X117427143Y-47632857D02*
X117474762Y-47680476D01*
X117522381Y-47823333D01*
X117522381Y-47918571D01*
X117474762Y-48061429D01*
X117379524Y-48156667D01*
X117284286Y-48204286D01*
X117093810Y-48251905D01*
X116950952Y-48251905D01*
X116760476Y-48204286D01*
X116665238Y-48156667D01*
X116570000Y-48061429D01*
X116522381Y-47918571D01*
X116522381Y-47823333D01*
X116570000Y-47680476D01*
X116617619Y-47632857D01*
X116522381Y-46775714D02*
X116522381Y-46966191D01*
X116570000Y-47061429D01*
X116617619Y-47109048D01*
X116760476Y-47204286D01*
X116950952Y-47251905D01*
X117331905Y-47251905D01*
X117427143Y-47204286D01*
X117474762Y-47156667D01*
X117522381Y-47061429D01*
X117522381Y-46870952D01*
X117474762Y-46775714D01*
X117427143Y-46728095D01*
X117331905Y-46680476D01*
X117093810Y-46680476D01*
X116998571Y-46728095D01*
X116950952Y-46775714D01*
X116903333Y-46870952D01*
X116903333Y-47061429D01*
X116950952Y-47156667D01*
X116998571Y-47204286D01*
X117093810Y-47251905D01*
X117522381Y-45728095D02*
X117522381Y-46299524D01*
X117522381Y-46013810D02*
X116522381Y-46013810D01*
X116665238Y-46109048D01*
X116760476Y-46204286D01*
X116808095Y-46299524D01*
X117427143Y-40012857D02*
X117474762Y-40060476D01*
X117522381Y-40203333D01*
X117522381Y-40298571D01*
X117474762Y-40441429D01*
X117379524Y-40536667D01*
X117284286Y-40584286D01*
X117093810Y-40631905D01*
X116950952Y-40631905D01*
X116760476Y-40584286D01*
X116665238Y-40536667D01*
X116570000Y-40441429D01*
X116522381Y-40298571D01*
X116522381Y-40203333D01*
X116570000Y-40060476D01*
X116617619Y-40012857D01*
X116522381Y-39155714D02*
X116522381Y-39346191D01*
X116570000Y-39441429D01*
X116617619Y-39489048D01*
X116760476Y-39584286D01*
X116950952Y-39631905D01*
X117331905Y-39631905D01*
X117427143Y-39584286D01*
X117474762Y-39536667D01*
X117522381Y-39441429D01*
X117522381Y-39250952D01*
X117474762Y-39155714D01*
X117427143Y-39108095D01*
X117331905Y-39060476D01*
X117093810Y-39060476D01*
X116998571Y-39108095D01*
X116950952Y-39155714D01*
X116903333Y-39250952D01*
X116903333Y-39441429D01*
X116950952Y-39536667D01*
X116998571Y-39584286D01*
X117093810Y-39631905D01*
X116617619Y-38679524D02*
X116570000Y-38631905D01*
X116522381Y-38536667D01*
X116522381Y-38298571D01*
X116570000Y-38203333D01*
X116617619Y-38155714D01*
X116712857Y-38108095D01*
X116808095Y-38108095D01*
X116950952Y-38155714D01*
X117522381Y-38727143D01*
X117522381Y-38108095D01*
X117427143Y-32392857D02*
X117474762Y-32440476D01*
X117522381Y-32583333D01*
X117522381Y-32678571D01*
X117474762Y-32821429D01*
X117379524Y-32916667D01*
X117284286Y-32964286D01*
X117093810Y-33011905D01*
X116950952Y-33011905D01*
X116760476Y-32964286D01*
X116665238Y-32916667D01*
X116570000Y-32821429D01*
X116522381Y-32678571D01*
X116522381Y-32583333D01*
X116570000Y-32440476D01*
X116617619Y-32392857D01*
X116522381Y-31535714D02*
X116522381Y-31726191D01*
X116570000Y-31821429D01*
X116617619Y-31869048D01*
X116760476Y-31964286D01*
X116950952Y-32011905D01*
X117331905Y-32011905D01*
X117427143Y-31964286D01*
X117474762Y-31916667D01*
X117522381Y-31821429D01*
X117522381Y-31630952D01*
X117474762Y-31535714D01*
X117427143Y-31488095D01*
X117331905Y-31440476D01*
X117093810Y-31440476D01*
X116998571Y-31488095D01*
X116950952Y-31535714D01*
X116903333Y-31630952D01*
X116903333Y-31821429D01*
X116950952Y-31916667D01*
X116998571Y-31964286D01*
X117093810Y-32011905D01*
X116522381Y-31107143D02*
X116522381Y-30488095D01*
X116903333Y-30821429D01*
X116903333Y-30678571D01*
X116950952Y-30583333D01*
X116998571Y-30535714D01*
X117093810Y-30488095D01*
X117331905Y-30488095D01*
X117427143Y-30535714D01*
X117474762Y-30583333D01*
X117522381Y-30678571D01*
X117522381Y-30964286D01*
X117474762Y-31059524D01*
X117427143Y-31107143D01*
X117427143Y-24772857D02*
X117474762Y-24820476D01*
X117522381Y-24963333D01*
X117522381Y-25058571D01*
X117474762Y-25201429D01*
X117379524Y-25296667D01*
X117284286Y-25344286D01*
X117093810Y-25391905D01*
X116950952Y-25391905D01*
X116760476Y-25344286D01*
X116665238Y-25296667D01*
X116570000Y-25201429D01*
X116522381Y-25058571D01*
X116522381Y-24963333D01*
X116570000Y-24820476D01*
X116617619Y-24772857D01*
X116522381Y-23915714D02*
X116522381Y-24106191D01*
X116570000Y-24201429D01*
X116617619Y-24249048D01*
X116760476Y-24344286D01*
X116950952Y-24391905D01*
X117331905Y-24391905D01*
X117427143Y-24344286D01*
X117474762Y-24296667D01*
X117522381Y-24201429D01*
X117522381Y-24010952D01*
X117474762Y-23915714D01*
X117427143Y-23868095D01*
X117331905Y-23820476D01*
X117093810Y-23820476D01*
X116998571Y-23868095D01*
X116950952Y-23915714D01*
X116903333Y-24010952D01*
X116903333Y-24201429D01*
X116950952Y-24296667D01*
X116998571Y-24344286D01*
X117093810Y-24391905D01*
X116855714Y-22963333D02*
X117522381Y-22963333D01*
X116474762Y-23201429D02*
X117189048Y-23439524D01*
X117189048Y-22820476D01*
M02*
