%FSLAX45Y45*%
G04 Gerber Fmt 4.5, Leading zero omitted, Abs format (unit mm)*
G04 Created by KiCad (PCBNEW 4.0.6) date 06/13/17 23:52:12*
%MOMM*%
%LPD*%
G01*
G04 APERTURE LIST*
%ADD10C,0.127000*%
%ADD11C,0.150000*%
%ADD12C,0.200000*%
%ADD13C,0.300000*%
G04 APERTURE END LIST*
D10*
D11*
X1270000Y-9017000D02*
X1270000Y-1270000D01*
X12573000Y-9017000D02*
X1270000Y-9017000D01*
X12573000Y-1270000D02*
X12573000Y-9017000D01*
X1270000Y-1270000D02*
X12573000Y-1270000D01*
D12*
X1550500Y-1753000D02*
X1600500Y-1803000D01*
X1600500Y-1753000D02*
X1550500Y-1803000D01*
X1550500Y-8484000D02*
X1600500Y-8534000D01*
X1600500Y-8484000D02*
X1550500Y-8534000D01*
X1609811Y-1609811D02*
X1659811Y-1659811D01*
X1659811Y-1609811D02*
X1609811Y-1659811D01*
X1609811Y-1896189D02*
X1659811Y-1946189D01*
X1659811Y-1896189D02*
X1609811Y-1946189D01*
X1609811Y-8340811D02*
X1659811Y-8390811D01*
X1659811Y-8340811D02*
X1609811Y-8390811D01*
X1609811Y-8627189D02*
X1659811Y-8677189D01*
X1659811Y-8627189D02*
X1609811Y-8677189D01*
X1753000Y-1550500D02*
X1803000Y-1600500D01*
X1803000Y-1550500D02*
X1753000Y-1600500D01*
X1753000Y-1955500D02*
X1803000Y-2005500D01*
X1803000Y-1955500D02*
X1753000Y-2005500D01*
X1753000Y-8281500D02*
X1803000Y-8331500D01*
X1803000Y-8281500D02*
X1753000Y-8331500D01*
X1753000Y-8686500D02*
X1803000Y-8736500D01*
X1803000Y-8686500D02*
X1753000Y-8736500D01*
X1896189Y-1609811D02*
X1946189Y-1659811D01*
X1946189Y-1609811D02*
X1896189Y-1659811D01*
X1896189Y-1896189D02*
X1946189Y-1946189D01*
X1946189Y-1896189D02*
X1896189Y-1946189D01*
X1896189Y-8340811D02*
X1946189Y-8390811D01*
X1946189Y-8340811D02*
X1896189Y-8390811D01*
X1896189Y-8627189D02*
X1946189Y-8677189D01*
X1946189Y-8627189D02*
X1896189Y-8677189D01*
X1955500Y-1753000D02*
X2005500Y-1803000D01*
X2005500Y-1753000D02*
X1955500Y-1803000D01*
X1955500Y-8484000D02*
X2005500Y-8534000D01*
X2005500Y-8484000D02*
X1955500Y-8534000D01*
X11837500Y-1753000D02*
X11887500Y-1803000D01*
X11887500Y-1753000D02*
X11837500Y-1803000D01*
X11837500Y-8484000D02*
X11887500Y-8534000D01*
X11887500Y-8484000D02*
X11837500Y-8534000D01*
X11896811Y-1609811D02*
X11946811Y-1659811D01*
X11946811Y-1609811D02*
X11896811Y-1659811D01*
X11896811Y-1896189D02*
X11946811Y-1946189D01*
X11946811Y-1896189D02*
X11896811Y-1946189D01*
X11896811Y-8340811D02*
X11946811Y-8390811D01*
X11946811Y-8340811D02*
X11896811Y-8390811D01*
X11896811Y-8627189D02*
X11946811Y-8677189D01*
X11946811Y-8627189D02*
X11896811Y-8677189D01*
X12040000Y-1550500D02*
X12090000Y-1600500D01*
X12090000Y-1550500D02*
X12040000Y-1600500D01*
X12040000Y-1955500D02*
X12090000Y-2005500D01*
X12090000Y-1955500D02*
X12040000Y-2005500D01*
X12040000Y-8281500D02*
X12090000Y-8331500D01*
X12090000Y-8281500D02*
X12040000Y-8331500D01*
X12040000Y-8686500D02*
X12090000Y-8736500D01*
X12090000Y-8686500D02*
X12040000Y-8736500D01*
X12183189Y-1609811D02*
X12233189Y-1659811D01*
X12233189Y-1609811D02*
X12183189Y-1659811D01*
X12183189Y-1896189D02*
X12233189Y-1946189D01*
X12233189Y-1896189D02*
X12183189Y-1946189D01*
X12183189Y-8340811D02*
X12233189Y-8390811D01*
X12233189Y-8340811D02*
X12183189Y-8390811D01*
X12183189Y-8627189D02*
X12233189Y-8677189D01*
X12233189Y-8627189D02*
X12183189Y-8677189D01*
X12242500Y-1753000D02*
X12292500Y-1803000D01*
X12292500Y-1753000D02*
X12242500Y-1803000D01*
X12242500Y-8484000D02*
X12292500Y-8534000D01*
X12292500Y-8484000D02*
X12242500Y-8534000D01*
X3098000Y-2286000D02*
G75*
G03X3098000Y-2286000I-50000J0D01*
G01*
X3098000Y-2540000D02*
G75*
G03X3098000Y-2540000I-50000J0D01*
G01*
X3098000Y-2794000D02*
G75*
G03X3098000Y-2794000I-50000J0D01*
G01*
X1778000Y-1643000D02*
X1778000Y-1913000D01*
X1643000Y-1778000D02*
X1913000Y-1778000D01*
X1778000Y-8374000D02*
X1778000Y-8644000D01*
X1643000Y-8509000D02*
X1913000Y-8509000D01*
X12065000Y-1643000D02*
X12065000Y-1913000D01*
X11930000Y-1778000D02*
X12200000Y-1778000D01*
X12065000Y-8374000D02*
X12065000Y-8644000D01*
X11930000Y-8509000D02*
X12200000Y-8509000D01*
D13*
X1533928Y-9490214D02*
X1533928Y-9190214D01*
X1605357Y-9190214D01*
X1648214Y-9204500D01*
X1676786Y-9233072D01*
X1691071Y-9261643D01*
X1705357Y-9318786D01*
X1705357Y-9361643D01*
X1691071Y-9418786D01*
X1676786Y-9447357D01*
X1648214Y-9475929D01*
X1605357Y-9490214D01*
X1533928Y-9490214D01*
X1833928Y-9490214D02*
X1833928Y-9290214D01*
X1833928Y-9347357D02*
X1848214Y-9318786D01*
X1862500Y-9304500D01*
X1891071Y-9290214D01*
X1919643Y-9290214D01*
X2019643Y-9490214D02*
X2019643Y-9290214D01*
X2019643Y-9190214D02*
X2005357Y-9204500D01*
X2019643Y-9218786D01*
X2033928Y-9204500D01*
X2019643Y-9190214D01*
X2019643Y-9218786D01*
X2205357Y-9490214D02*
X2176786Y-9475929D01*
X2162500Y-9447357D01*
X2162500Y-9190214D01*
X2362500Y-9490214D02*
X2333929Y-9475929D01*
X2319643Y-9447357D01*
X2319643Y-9190214D01*
X2705357Y-9490214D02*
X2705357Y-9190214D01*
X2805357Y-9404500D01*
X2905357Y-9190214D01*
X2905357Y-9490214D01*
X3176786Y-9490214D02*
X3176786Y-9333072D01*
X3162500Y-9304500D01*
X3133928Y-9290214D01*
X3076786Y-9290214D01*
X3048214Y-9304500D01*
X3176786Y-9475929D02*
X3148214Y-9490214D01*
X3076786Y-9490214D01*
X3048214Y-9475929D01*
X3033928Y-9447357D01*
X3033928Y-9418786D01*
X3048214Y-9390214D01*
X3076786Y-9375929D01*
X3148214Y-9375929D01*
X3176786Y-9361643D01*
X3319643Y-9290214D02*
X3319643Y-9590214D01*
X3319643Y-9304500D02*
X3348214Y-9290214D01*
X3405357Y-9290214D01*
X3433928Y-9304500D01*
X3448214Y-9318786D01*
X3462500Y-9347357D01*
X3462500Y-9433072D01*
X3448214Y-9461643D01*
X3433928Y-9475929D01*
X3405357Y-9490214D01*
X3348214Y-9490214D01*
X3319643Y-9475929D01*
X3591071Y-9461643D02*
X3605357Y-9475929D01*
X3591071Y-9490214D01*
X3576786Y-9475929D01*
X3591071Y-9461643D01*
X3591071Y-9490214D01*
X3591071Y-9304500D02*
X3605357Y-9318786D01*
X3591071Y-9333072D01*
X3576786Y-9318786D01*
X3591071Y-9304500D01*
X3591071Y-9333072D01*
X1212500Y-9959500D02*
X1262500Y-10009500D01*
X1262500Y-9959500D02*
X1212500Y-10009500D01*
X1591071Y-9820214D02*
X1619643Y-9820214D01*
X1648214Y-9834500D01*
X1662500Y-9848786D01*
X1676786Y-9877357D01*
X1691071Y-9934500D01*
X1691071Y-10005929D01*
X1676786Y-10063072D01*
X1662500Y-10091643D01*
X1648214Y-10105929D01*
X1619643Y-10120214D01*
X1591071Y-10120214D01*
X1562500Y-10105929D01*
X1548214Y-10091643D01*
X1533928Y-10063072D01*
X1519643Y-10005929D01*
X1519643Y-9934500D01*
X1533928Y-9877357D01*
X1548214Y-9848786D01*
X1562500Y-9834500D01*
X1591071Y-9820214D01*
X1819643Y-10091643D02*
X1833928Y-10105929D01*
X1819643Y-10120214D01*
X1805357Y-10105929D01*
X1819643Y-10091643D01*
X1819643Y-10120214D01*
X2105357Y-9820214D02*
X1962500Y-9820214D01*
X1948214Y-9963072D01*
X1962500Y-9948786D01*
X1991071Y-9934500D01*
X2062500Y-9934500D01*
X2091071Y-9948786D01*
X2105357Y-9963072D01*
X2119643Y-9991643D01*
X2119643Y-10063072D01*
X2105357Y-10091643D01*
X2091071Y-10105929D01*
X2062500Y-10120214D01*
X1991071Y-10120214D01*
X1962500Y-10105929D01*
X1948214Y-10091643D01*
X2305357Y-9820214D02*
X2333929Y-9820214D01*
X2362500Y-9834500D01*
X2376786Y-9848786D01*
X2391071Y-9877357D01*
X2405357Y-9934500D01*
X2405357Y-10005929D01*
X2391071Y-10063072D01*
X2376786Y-10091643D01*
X2362500Y-10105929D01*
X2333929Y-10120214D01*
X2305357Y-10120214D01*
X2276786Y-10105929D01*
X2262500Y-10091643D01*
X2248214Y-10063072D01*
X2233929Y-10005929D01*
X2233929Y-9934500D01*
X2248214Y-9877357D01*
X2262500Y-9848786D01*
X2276786Y-9834500D01*
X2305357Y-9820214D01*
X2533929Y-10120214D02*
X2533929Y-9920214D01*
X2533929Y-9948786D02*
X2548214Y-9934500D01*
X2576786Y-9920214D01*
X2619643Y-9920214D01*
X2648214Y-9934500D01*
X2662500Y-9963072D01*
X2662500Y-10120214D01*
X2662500Y-9963072D02*
X2676786Y-9934500D01*
X2705357Y-9920214D01*
X2748214Y-9920214D01*
X2776786Y-9934500D01*
X2791071Y-9963072D01*
X2791071Y-10120214D01*
X2933928Y-10120214D02*
X2933928Y-9920214D01*
X2933928Y-9948786D02*
X2948214Y-9934500D01*
X2976786Y-9920214D01*
X3019643Y-9920214D01*
X3048214Y-9934500D01*
X3062500Y-9963072D01*
X3062500Y-10120214D01*
X3062500Y-9963072D02*
X3076786Y-9934500D01*
X3105357Y-9920214D01*
X3148214Y-9920214D01*
X3176786Y-9934500D01*
X3191071Y-9963072D01*
X3191071Y-10120214D01*
X3776786Y-9805929D02*
X3519643Y-10191643D01*
X4162500Y-9820214D02*
X4191071Y-9820214D01*
X4219643Y-9834500D01*
X4233928Y-9848786D01*
X4248214Y-9877357D01*
X4262500Y-9934500D01*
X4262500Y-10005929D01*
X4248214Y-10063072D01*
X4233928Y-10091643D01*
X4219643Y-10105929D01*
X4191071Y-10120214D01*
X4162500Y-10120214D01*
X4133928Y-10105929D01*
X4119643Y-10091643D01*
X4105357Y-10063072D01*
X4091071Y-10005929D01*
X4091071Y-9934500D01*
X4105357Y-9877357D01*
X4119643Y-9848786D01*
X4133928Y-9834500D01*
X4162500Y-9820214D01*
X4391071Y-10091643D02*
X4405357Y-10105929D01*
X4391071Y-10120214D01*
X4376786Y-10105929D01*
X4391071Y-10091643D01*
X4391071Y-10120214D01*
X4591071Y-9820214D02*
X4619643Y-9820214D01*
X4648214Y-9834500D01*
X4662500Y-9848786D01*
X4676786Y-9877357D01*
X4691071Y-9934500D01*
X4691071Y-10005929D01*
X4676786Y-10063072D01*
X4662500Y-10091643D01*
X4648214Y-10105929D01*
X4619643Y-10120214D01*
X4591071Y-10120214D01*
X4562500Y-10105929D01*
X4548214Y-10091643D01*
X4533928Y-10063072D01*
X4519643Y-10005929D01*
X4519643Y-9934500D01*
X4533928Y-9877357D01*
X4548214Y-9848786D01*
X4562500Y-9834500D01*
X4591071Y-9820214D01*
X4805357Y-9848786D02*
X4819643Y-9834500D01*
X4848214Y-9820214D01*
X4919643Y-9820214D01*
X4948214Y-9834500D01*
X4962500Y-9848786D01*
X4976786Y-9877357D01*
X4976786Y-9905929D01*
X4962500Y-9948786D01*
X4791071Y-10120214D01*
X4976786Y-10120214D01*
X5162500Y-9820214D02*
X5191071Y-9820214D01*
X5219643Y-9834500D01*
X5233928Y-9848786D01*
X5248214Y-9877357D01*
X5262500Y-9934500D01*
X5262500Y-10005929D01*
X5248214Y-10063072D01*
X5233928Y-10091643D01*
X5219643Y-10105929D01*
X5191071Y-10120214D01*
X5162500Y-10120214D01*
X5133928Y-10105929D01*
X5119643Y-10091643D01*
X5105357Y-10063072D01*
X5091071Y-10005929D01*
X5091071Y-9934500D01*
X5105357Y-9877357D01*
X5119643Y-9848786D01*
X5133928Y-9834500D01*
X5162500Y-9820214D01*
X5376786Y-9820214D02*
X5376786Y-9877357D01*
X5491071Y-9820214D02*
X5491071Y-9877357D01*
X5933928Y-10234500D02*
X5919643Y-10220214D01*
X5891071Y-10177357D01*
X5876785Y-10148786D01*
X5862500Y-10105929D01*
X5848214Y-10034500D01*
X5848214Y-9977357D01*
X5862500Y-9905929D01*
X5876785Y-9863072D01*
X5891071Y-9834500D01*
X5919643Y-9791643D01*
X5933928Y-9777357D01*
X6019643Y-9820214D02*
X6205357Y-9820214D01*
X6105357Y-9934500D01*
X6148214Y-9934500D01*
X6176785Y-9948786D01*
X6191071Y-9963072D01*
X6205357Y-9991643D01*
X6205357Y-10063072D01*
X6191071Y-10091643D01*
X6176785Y-10105929D01*
X6148214Y-10120214D01*
X6062500Y-10120214D01*
X6033928Y-10105929D01*
X6019643Y-10091643D01*
X6319643Y-9848786D02*
X6333928Y-9834500D01*
X6362500Y-9820214D01*
X6433928Y-9820214D01*
X6462500Y-9834500D01*
X6476785Y-9848786D01*
X6491071Y-9877357D01*
X6491071Y-9905929D01*
X6476785Y-9948786D01*
X6305357Y-10120214D01*
X6491071Y-10120214D01*
X6848214Y-10120214D02*
X6848214Y-9820214D01*
X6976785Y-10120214D02*
X6976785Y-9963072D01*
X6962500Y-9934500D01*
X6933928Y-9920214D01*
X6891071Y-9920214D01*
X6862500Y-9934500D01*
X6848214Y-9948786D01*
X7162500Y-10120214D02*
X7133928Y-10105929D01*
X7119643Y-10091643D01*
X7105357Y-10063072D01*
X7105357Y-9977357D01*
X7119643Y-9948786D01*
X7133928Y-9934500D01*
X7162500Y-9920214D01*
X7205357Y-9920214D01*
X7233928Y-9934500D01*
X7248214Y-9948786D01*
X7262500Y-9977357D01*
X7262500Y-10063072D01*
X7248214Y-10091643D01*
X7233928Y-10105929D01*
X7205357Y-10120214D01*
X7162500Y-10120214D01*
X7433928Y-10120214D02*
X7405357Y-10105929D01*
X7391071Y-10077357D01*
X7391071Y-9820214D01*
X7662500Y-10105929D02*
X7633928Y-10120214D01*
X7576786Y-10120214D01*
X7548214Y-10105929D01*
X7533928Y-10077357D01*
X7533928Y-9963072D01*
X7548214Y-9934500D01*
X7576786Y-9920214D01*
X7633928Y-9920214D01*
X7662500Y-9934500D01*
X7676786Y-9963072D01*
X7676786Y-9991643D01*
X7533928Y-10020214D01*
X7791071Y-10105929D02*
X7819643Y-10120214D01*
X7876786Y-10120214D01*
X7905357Y-10105929D01*
X7919643Y-10077357D01*
X7919643Y-10063072D01*
X7905357Y-10034500D01*
X7876786Y-10020214D01*
X7833928Y-10020214D01*
X7805357Y-10005929D01*
X7791071Y-9977357D01*
X7791071Y-9963072D01*
X7805357Y-9934500D01*
X7833928Y-9920214D01*
X7876786Y-9920214D01*
X7905357Y-9934500D01*
X8019643Y-10234500D02*
X8033928Y-10220214D01*
X8062500Y-10177357D01*
X8076786Y-10148786D01*
X8091071Y-10105929D01*
X8105357Y-10034500D01*
X8105357Y-9977357D01*
X8091071Y-9905929D01*
X8076786Y-9863072D01*
X8062500Y-9834500D01*
X8033928Y-9791643D01*
X8019643Y-9777357D01*
X1262500Y-10380500D02*
G75*
G03X1262500Y-10380500I-50000J0D01*
G01*
X1691071Y-10516214D02*
X1519643Y-10516214D01*
X1605357Y-10516214D02*
X1605357Y-10216214D01*
X1576786Y-10259072D01*
X1548214Y-10287643D01*
X1519643Y-10301929D01*
X1819643Y-10487643D02*
X1833928Y-10501929D01*
X1819643Y-10516214D01*
X1805357Y-10501929D01*
X1819643Y-10487643D01*
X1819643Y-10516214D01*
X2019643Y-10216214D02*
X2048214Y-10216214D01*
X2076786Y-10230500D01*
X2091071Y-10244786D01*
X2105357Y-10273357D01*
X2119643Y-10330500D01*
X2119643Y-10401929D01*
X2105357Y-10459072D01*
X2091071Y-10487643D01*
X2076786Y-10501929D01*
X2048214Y-10516214D01*
X2019643Y-10516214D01*
X1991071Y-10501929D01*
X1976786Y-10487643D01*
X1962500Y-10459072D01*
X1948214Y-10401929D01*
X1948214Y-10330500D01*
X1962500Y-10273357D01*
X1976786Y-10244786D01*
X1991071Y-10230500D01*
X2019643Y-10216214D01*
X2305357Y-10216214D02*
X2333929Y-10216214D01*
X2362500Y-10230500D01*
X2376786Y-10244786D01*
X2391071Y-10273357D01*
X2405357Y-10330500D01*
X2405357Y-10401929D01*
X2391071Y-10459072D01*
X2376786Y-10487643D01*
X2362500Y-10501929D01*
X2333929Y-10516214D01*
X2305357Y-10516214D01*
X2276786Y-10501929D01*
X2262500Y-10487643D01*
X2248214Y-10459072D01*
X2233929Y-10401929D01*
X2233929Y-10330500D01*
X2248214Y-10273357D01*
X2262500Y-10244786D01*
X2276786Y-10230500D01*
X2305357Y-10216214D01*
X2533929Y-10516214D02*
X2533929Y-10316214D01*
X2533929Y-10344786D02*
X2548214Y-10330500D01*
X2576786Y-10316214D01*
X2619643Y-10316214D01*
X2648214Y-10330500D01*
X2662500Y-10359072D01*
X2662500Y-10516214D01*
X2662500Y-10359072D02*
X2676786Y-10330500D01*
X2705357Y-10316214D01*
X2748214Y-10316214D01*
X2776786Y-10330500D01*
X2791071Y-10359072D01*
X2791071Y-10516214D01*
X2933928Y-10516214D02*
X2933928Y-10316214D01*
X2933928Y-10344786D02*
X2948214Y-10330500D01*
X2976786Y-10316214D01*
X3019643Y-10316214D01*
X3048214Y-10330500D01*
X3062500Y-10359072D01*
X3062500Y-10516214D01*
X3062500Y-10359072D02*
X3076786Y-10330500D01*
X3105357Y-10316214D01*
X3148214Y-10316214D01*
X3176786Y-10330500D01*
X3191071Y-10359072D01*
X3191071Y-10516214D01*
X3776786Y-10201929D02*
X3519643Y-10587643D01*
X4162500Y-10216214D02*
X4191071Y-10216214D01*
X4219643Y-10230500D01*
X4233928Y-10244786D01*
X4248214Y-10273357D01*
X4262500Y-10330500D01*
X4262500Y-10401929D01*
X4248214Y-10459072D01*
X4233928Y-10487643D01*
X4219643Y-10501929D01*
X4191071Y-10516214D01*
X4162500Y-10516214D01*
X4133928Y-10501929D01*
X4119643Y-10487643D01*
X4105357Y-10459072D01*
X4091071Y-10401929D01*
X4091071Y-10330500D01*
X4105357Y-10273357D01*
X4119643Y-10244786D01*
X4133928Y-10230500D01*
X4162500Y-10216214D01*
X4391071Y-10487643D02*
X4405357Y-10501929D01*
X4391071Y-10516214D01*
X4376786Y-10501929D01*
X4391071Y-10487643D01*
X4391071Y-10516214D01*
X4591071Y-10216214D02*
X4619643Y-10216214D01*
X4648214Y-10230500D01*
X4662500Y-10244786D01*
X4676786Y-10273357D01*
X4691071Y-10330500D01*
X4691071Y-10401929D01*
X4676786Y-10459072D01*
X4662500Y-10487643D01*
X4648214Y-10501929D01*
X4619643Y-10516214D01*
X4591071Y-10516214D01*
X4562500Y-10501929D01*
X4548214Y-10487643D01*
X4533928Y-10459072D01*
X4519643Y-10401929D01*
X4519643Y-10330500D01*
X4533928Y-10273357D01*
X4548214Y-10244786D01*
X4562500Y-10230500D01*
X4591071Y-10216214D01*
X4791071Y-10216214D02*
X4976786Y-10216214D01*
X4876786Y-10330500D01*
X4919643Y-10330500D01*
X4948214Y-10344786D01*
X4962500Y-10359072D01*
X4976786Y-10387643D01*
X4976786Y-10459072D01*
X4962500Y-10487643D01*
X4948214Y-10501929D01*
X4919643Y-10516214D01*
X4833928Y-10516214D01*
X4805357Y-10501929D01*
X4791071Y-10487643D01*
X5119643Y-10516214D02*
X5176786Y-10516214D01*
X5205357Y-10501929D01*
X5219643Y-10487643D01*
X5248214Y-10444786D01*
X5262500Y-10387643D01*
X5262500Y-10273357D01*
X5248214Y-10244786D01*
X5233928Y-10230500D01*
X5205357Y-10216214D01*
X5148214Y-10216214D01*
X5119643Y-10230500D01*
X5105357Y-10244786D01*
X5091071Y-10273357D01*
X5091071Y-10344786D01*
X5105357Y-10373357D01*
X5119643Y-10387643D01*
X5148214Y-10401929D01*
X5205357Y-10401929D01*
X5233928Y-10387643D01*
X5248214Y-10373357D01*
X5262500Y-10344786D01*
X5376786Y-10216214D02*
X5376786Y-10273357D01*
X5491071Y-10216214D02*
X5491071Y-10273357D01*
X5933928Y-10630500D02*
X5919643Y-10616214D01*
X5891071Y-10573357D01*
X5876785Y-10544786D01*
X5862500Y-10501929D01*
X5848214Y-10430500D01*
X5848214Y-10373357D01*
X5862500Y-10301929D01*
X5876785Y-10259072D01*
X5891071Y-10230500D01*
X5919643Y-10187643D01*
X5933928Y-10173357D01*
X6019643Y-10216214D02*
X6205357Y-10216214D01*
X6105357Y-10330500D01*
X6148214Y-10330500D01*
X6176785Y-10344786D01*
X6191071Y-10359072D01*
X6205357Y-10387643D01*
X6205357Y-10459072D01*
X6191071Y-10487643D01*
X6176785Y-10501929D01*
X6148214Y-10516214D01*
X6062500Y-10516214D01*
X6033928Y-10501929D01*
X6019643Y-10487643D01*
X6562500Y-10516214D02*
X6562500Y-10216214D01*
X6691071Y-10516214D02*
X6691071Y-10359072D01*
X6676785Y-10330500D01*
X6648214Y-10316214D01*
X6605357Y-10316214D01*
X6576785Y-10330500D01*
X6562500Y-10344786D01*
X6876785Y-10516214D02*
X6848214Y-10501929D01*
X6833928Y-10487643D01*
X6819643Y-10459072D01*
X6819643Y-10373357D01*
X6833928Y-10344786D01*
X6848214Y-10330500D01*
X6876785Y-10316214D01*
X6919643Y-10316214D01*
X6948214Y-10330500D01*
X6962500Y-10344786D01*
X6976785Y-10373357D01*
X6976785Y-10459072D01*
X6962500Y-10487643D01*
X6948214Y-10501929D01*
X6919643Y-10516214D01*
X6876785Y-10516214D01*
X7148214Y-10516214D02*
X7119643Y-10501929D01*
X7105357Y-10473357D01*
X7105357Y-10216214D01*
X7376786Y-10501929D02*
X7348214Y-10516214D01*
X7291071Y-10516214D01*
X7262500Y-10501929D01*
X7248214Y-10473357D01*
X7248214Y-10359072D01*
X7262500Y-10330500D01*
X7291071Y-10316214D01*
X7348214Y-10316214D01*
X7376786Y-10330500D01*
X7391071Y-10359072D01*
X7391071Y-10387643D01*
X7248214Y-10416214D01*
X7505357Y-10501929D02*
X7533928Y-10516214D01*
X7591071Y-10516214D01*
X7619643Y-10501929D01*
X7633928Y-10473357D01*
X7633928Y-10459072D01*
X7619643Y-10430500D01*
X7591071Y-10416214D01*
X7548214Y-10416214D01*
X7519643Y-10401929D01*
X7505357Y-10373357D01*
X7505357Y-10359072D01*
X7519643Y-10330500D01*
X7548214Y-10316214D01*
X7591071Y-10316214D01*
X7619643Y-10330500D01*
X7733928Y-10630500D02*
X7748214Y-10616214D01*
X7776786Y-10573357D01*
X7791071Y-10544786D01*
X7805357Y-10501929D01*
X7819643Y-10430500D01*
X7819643Y-10373357D01*
X7805357Y-10301929D01*
X7791071Y-10259072D01*
X7776786Y-10230500D01*
X7748214Y-10187643D01*
X7733928Y-10173357D01*
X1127500Y-10641500D02*
X1127500Y-10911500D01*
X992500Y-10776500D02*
X1262500Y-10776500D01*
X1519643Y-10640786D02*
X1533928Y-10626500D01*
X1562500Y-10612214D01*
X1633928Y-10612214D01*
X1662500Y-10626500D01*
X1676786Y-10640786D01*
X1691071Y-10669357D01*
X1691071Y-10697929D01*
X1676786Y-10740786D01*
X1505357Y-10912214D01*
X1691071Y-10912214D01*
X1819643Y-10883643D02*
X1833928Y-10897929D01*
X1819643Y-10912214D01*
X1805357Y-10897929D01*
X1819643Y-10883643D01*
X1819643Y-10912214D01*
X1933928Y-10612214D02*
X2133928Y-10612214D01*
X2005357Y-10912214D01*
X2305357Y-10612214D02*
X2333929Y-10612214D01*
X2362500Y-10626500D01*
X2376786Y-10640786D01*
X2391071Y-10669357D01*
X2405357Y-10726500D01*
X2405357Y-10797929D01*
X2391071Y-10855072D01*
X2376786Y-10883643D01*
X2362500Y-10897929D01*
X2333929Y-10912214D01*
X2305357Y-10912214D01*
X2276786Y-10897929D01*
X2262500Y-10883643D01*
X2248214Y-10855072D01*
X2233929Y-10797929D01*
X2233929Y-10726500D01*
X2248214Y-10669357D01*
X2262500Y-10640786D01*
X2276786Y-10626500D01*
X2305357Y-10612214D01*
X2533929Y-10912214D02*
X2533929Y-10712214D01*
X2533929Y-10740786D02*
X2548214Y-10726500D01*
X2576786Y-10712214D01*
X2619643Y-10712214D01*
X2648214Y-10726500D01*
X2662500Y-10755072D01*
X2662500Y-10912214D01*
X2662500Y-10755072D02*
X2676786Y-10726500D01*
X2705357Y-10712214D01*
X2748214Y-10712214D01*
X2776786Y-10726500D01*
X2791071Y-10755072D01*
X2791071Y-10912214D01*
X2933928Y-10912214D02*
X2933928Y-10712214D01*
X2933928Y-10740786D02*
X2948214Y-10726500D01*
X2976786Y-10712214D01*
X3019643Y-10712214D01*
X3048214Y-10726500D01*
X3062500Y-10755072D01*
X3062500Y-10912214D01*
X3062500Y-10755072D02*
X3076786Y-10726500D01*
X3105357Y-10712214D01*
X3148214Y-10712214D01*
X3176786Y-10726500D01*
X3191071Y-10755072D01*
X3191071Y-10912214D01*
X3776786Y-10597929D02*
X3519643Y-10983643D01*
X4162500Y-10612214D02*
X4191071Y-10612214D01*
X4219643Y-10626500D01*
X4233928Y-10640786D01*
X4248214Y-10669357D01*
X4262500Y-10726500D01*
X4262500Y-10797929D01*
X4248214Y-10855072D01*
X4233928Y-10883643D01*
X4219643Y-10897929D01*
X4191071Y-10912214D01*
X4162500Y-10912214D01*
X4133928Y-10897929D01*
X4119643Y-10883643D01*
X4105357Y-10855072D01*
X4091071Y-10797929D01*
X4091071Y-10726500D01*
X4105357Y-10669357D01*
X4119643Y-10640786D01*
X4133928Y-10626500D01*
X4162500Y-10612214D01*
X4391071Y-10883643D02*
X4405357Y-10897929D01*
X4391071Y-10912214D01*
X4376786Y-10897929D01*
X4391071Y-10883643D01*
X4391071Y-10912214D01*
X4691071Y-10912214D02*
X4519643Y-10912214D01*
X4605357Y-10912214D02*
X4605357Y-10612214D01*
X4576786Y-10655072D01*
X4548214Y-10683643D01*
X4519643Y-10697929D01*
X4876786Y-10612214D02*
X4905357Y-10612214D01*
X4933928Y-10626500D01*
X4948214Y-10640786D01*
X4962500Y-10669357D01*
X4976786Y-10726500D01*
X4976786Y-10797929D01*
X4962500Y-10855072D01*
X4948214Y-10883643D01*
X4933928Y-10897929D01*
X4905357Y-10912214D01*
X4876786Y-10912214D01*
X4848214Y-10897929D01*
X4833928Y-10883643D01*
X4819643Y-10855072D01*
X4805357Y-10797929D01*
X4805357Y-10726500D01*
X4819643Y-10669357D01*
X4833928Y-10640786D01*
X4848214Y-10626500D01*
X4876786Y-10612214D01*
X5233928Y-10612214D02*
X5176786Y-10612214D01*
X5148214Y-10626500D01*
X5133928Y-10640786D01*
X5105357Y-10683643D01*
X5091071Y-10740786D01*
X5091071Y-10855072D01*
X5105357Y-10883643D01*
X5119643Y-10897929D01*
X5148214Y-10912214D01*
X5205357Y-10912214D01*
X5233928Y-10897929D01*
X5248214Y-10883643D01*
X5262500Y-10855072D01*
X5262500Y-10783643D01*
X5248214Y-10755072D01*
X5233928Y-10740786D01*
X5205357Y-10726500D01*
X5148214Y-10726500D01*
X5119643Y-10740786D01*
X5105357Y-10755072D01*
X5091071Y-10783643D01*
X5376786Y-10612214D02*
X5376786Y-10669357D01*
X5491071Y-10612214D02*
X5491071Y-10669357D01*
X5933928Y-11026500D02*
X5919643Y-11012214D01*
X5891071Y-10969357D01*
X5876785Y-10940786D01*
X5862500Y-10897929D01*
X5848214Y-10826500D01*
X5848214Y-10769357D01*
X5862500Y-10697929D01*
X5876785Y-10655072D01*
X5891071Y-10626500D01*
X5919643Y-10583643D01*
X5933928Y-10569357D01*
X6176785Y-10712214D02*
X6176785Y-10912214D01*
X6105357Y-10597929D02*
X6033928Y-10812214D01*
X6219643Y-10812214D01*
X6562500Y-10912214D02*
X6562500Y-10612214D01*
X6691071Y-10912214D02*
X6691071Y-10755072D01*
X6676785Y-10726500D01*
X6648214Y-10712214D01*
X6605357Y-10712214D01*
X6576785Y-10726500D01*
X6562500Y-10740786D01*
X6876785Y-10912214D02*
X6848214Y-10897929D01*
X6833928Y-10883643D01*
X6819643Y-10855072D01*
X6819643Y-10769357D01*
X6833928Y-10740786D01*
X6848214Y-10726500D01*
X6876785Y-10712214D01*
X6919643Y-10712214D01*
X6948214Y-10726500D01*
X6962500Y-10740786D01*
X6976785Y-10769357D01*
X6976785Y-10855072D01*
X6962500Y-10883643D01*
X6948214Y-10897929D01*
X6919643Y-10912214D01*
X6876785Y-10912214D01*
X7148214Y-10912214D02*
X7119643Y-10897929D01*
X7105357Y-10869357D01*
X7105357Y-10612214D01*
X7376786Y-10897929D02*
X7348214Y-10912214D01*
X7291071Y-10912214D01*
X7262500Y-10897929D01*
X7248214Y-10869357D01*
X7248214Y-10755072D01*
X7262500Y-10726500D01*
X7291071Y-10712214D01*
X7348214Y-10712214D01*
X7376786Y-10726500D01*
X7391071Y-10755072D01*
X7391071Y-10783643D01*
X7248214Y-10812214D01*
X7505357Y-10897929D02*
X7533928Y-10912214D01*
X7591071Y-10912214D01*
X7619643Y-10897929D01*
X7633928Y-10869357D01*
X7633928Y-10855072D01*
X7619643Y-10826500D01*
X7591071Y-10812214D01*
X7548214Y-10812214D01*
X7519643Y-10797929D01*
X7505357Y-10769357D01*
X7505357Y-10755072D01*
X7519643Y-10726500D01*
X7548214Y-10712214D01*
X7591071Y-10712214D01*
X7619643Y-10726500D01*
X7733928Y-11026500D02*
X7748214Y-11012214D01*
X7776786Y-10969357D01*
X7791071Y-10940786D01*
X7805357Y-10897929D01*
X7819643Y-10826500D01*
X7819643Y-10769357D01*
X7805357Y-10697929D01*
X7791071Y-10655072D01*
X7776786Y-10626500D01*
X7748214Y-10583643D01*
X7733928Y-10569357D01*
M02*
