M48
;DRILL file {KiCad 4.0.6} date 06/13/17 21:24:47
;FORMAT={-:-/ absolute / inch / decimal}
FMAT,2
INCH,TZ
T1C0.020
T2C0.039
T3C0.106
%
G90
G05
M72
T1
X0.6203Y-0.7
X0.6203Y-3.35
X0.6436Y-0.6436
X0.6436Y-0.7564
X0.6436Y-3.2936
X0.6436Y-3.4064
X0.7Y-0.6203
X0.7Y-0.7797
X0.7Y-3.2703
X0.7Y-3.4297
X0.7564Y-0.6436
X0.7564Y-0.7564
X0.7564Y-3.2936
X0.7564Y-3.4064
X0.7797Y-0.7
X0.7797Y-3.35
X4.6703Y-0.7
X4.6703Y-3.35
X4.6936Y-0.6436
X4.6936Y-0.7564
X4.6936Y-3.2936
X4.6936Y-3.4064
X4.75Y-0.6203
X4.75Y-0.7797
X4.75Y-3.2703
X4.75Y-3.4297
X4.8064Y-0.6436
X4.8064Y-0.7564
X4.8064Y-3.2936
X4.8064Y-3.4064
X4.8297Y-0.7
X4.8297Y-3.35
T2
X1.2Y-0.9
X1.2Y-1.
X1.2Y-1.1
T3
X0.7Y-0.7
X0.7Y-3.35
X4.75Y-0.7
X4.75Y-3.35
T0
M30
